SplineFontDB: 3.0
FontName: DEV-MauryaNormal
FullName: DEV Maurya Normal
FamilyName: DEV Maurya
Weight: Book
Copyright: Copyright (c) 2009-2015, NLCI (http://www.nlci.in/fonts/)
Version: 1.0 Fri Sep 29 15:55:18 1995
ItalicAngle: 0
UnderlinePosition: -290
UnderlineWidth: 20
Ascent: 800
Descent: 200
InvalidEm: 0
LayerCount: 2
Layer: 0 0 "Back" 1
Layer: 1 0 "Fore" 0
XUID: [1021 579 1511418703 8067528]
FSType: 0
OS2Version: 0
OS2_WeightWidthSlopeOnly: 0
OS2_UseTypoMetrics: 1
CreationTime: 1258090174
ModificationTime: 1433224354
PfmFamily: 81
TTFWeight: 400
TTFWidth: 5
LineGap: 0
VLineGap: 0
Panose: 5 0 0 0 0 0 0 0 0 0
OS2TypoAscent: 44
OS2TypoAOffset: 1
OS2TypoDescent: -184
OS2TypoDOffset: 1
OS2TypoLinegap: 0
OS2WinAscent: -336
OS2WinAOffset: 1
OS2WinDescent: -153
OS2WinDOffset: 1
HheadAscent: -336
HheadAOffset: 1
HheadDescent: 153
HheadDOffset: 1
OS2SubXSize: 700
OS2SubYSize: 650
OS2SubXOff: 0
OS2SubYOff: 143
OS2SupXSize: 700
OS2SupYSize: 650
OS2SupXOff: 0
OS2SupYOff: 453
OS2StrikeYSize: 50
OS2StrikeYPos: 259
OS2Vendor: 'Alts'
OS2UnicodeRanges: 00000000.00000000.00000000.00000000
Lookup: 1 0 0 "Wide I-matra" { "Wide I-matra-1"  } []
Lookup: 1 0 0 "'nukt' Nukta Forms in Devanagari lookup 6" { "'locl' Local Forms in Devanagari lookup 6-1"  } ['nukt' ('deva' <'NEP ' > ) ]
Lookup: 4 0 0 "'akhn' Akhand in Devanagari lookup 0" { "'akhn' Akhand in Devanagari lookup 0 subtable"  } ['akhn' ('deva' <'HIN ' 'NEP ' 'dflt' > ) ]
Lookup: 4 0 0 "'rphf' Reph Form in Devanagari lookup 1" { "'rphf' Reph Form in Devanagari lookup 1 subtable"  } ['rphf' ('deva' <'HIN ' 'NEP ' 'dflt' > ) ]
Lookup: 4 0 0 "'blwf' Below Base Forms in Devanagari lookup 2" { "'blwf' Below Base Forms in Devanagari lookup 2 subtable"  } ['blwf' ('deva' <'HIN ' 'NEP ' 'dflt' > ) ]
Lookup: 4 8 0 "'half' Half Forms in Devanagari lookup 3" { "'half' Half Forms in Devanagari lookup 3 subtable"  } ['half' ('deva' <'HIN ' 'NEP ' 'dflt' > ) ]

StartChar: .notdef
Encoding: 65536 -1 0
Width: 1024
Flags: HW
LayerCount: 2
Back
Fore
SplineSet
64 0 m 1
 64 1383 l 1
 960 1383 l 1
 960 0 l 1
 64 0 l 1
896 64 m 1
 896 1319 l 1
 128 1319 l 1
 128 64 l 1
 896 64 l 1
EndSplineSet
EndChar

StartChar: quotedbl
Encoding: 34 34 3
Width: 341
VWidth: 1024
GlyphClass: 2
Flags: HW
LayerCount: 2
Back
Fore
SplineSet
96.5 431 m 1
 80 431 l 1
 44 681 l 1
 44 697 47.8330078125 709.333007812 55.5 718 c 128
 63.1669921875 726.666992188 74 731 88 731 c 0
 102.333007812 731 113.083007812 726.666992188 120.25 718 c 128
 127.416992188 709.333007812 131 697 131 681 c 1
 96.5 431 l 1
261 431 m 1
 244.5 431 l 1
 210 681 l 1
 210 697 213.666992188 709.333007812 221 718 c 128
 228.333007812 726.666992188 239 731 253 731 c 0
 267.333007812 731 278.25 726.666992188 285.75 718 c 128
 293.25 709.333007812 297 697 297 681 c 1
 261 431 l 1
EndSplineSet
EndChar

StartChar: numbersign
Encoding: 35 35 4
Width: 761
VWidth: 1024
GlyphClass: 2
Flags: HW
LayerCount: 2
Back
Fore
SplineSet
332 431 m 1
 281.5 284.5 l 1
 430 284.5 l 1
 480.5 431 l 1
 332 431 l 1
536.5 431 m 1
 488.5 284.5 l 1
 653.5 284.5 l 1
 653.5 233.5 l 1
 470 233.5 l 1
 384 -23.5 l 1
 333 -7 l 1
 412.5 233.5 l 1
 264 233.5 l 1
 177 -23.5 l 1
 127 -6 l 1
 209 233.5 l 1
 63.5 233.5 l 1
 63.5 284.5 l 1
 225.5 284.5 l 1
 275.5 431 l 1
 109.5 431 l 1
 109.5 483.5 l 1
 293 483.5 l 1
 375 725 l 1
 427 708.5 l 1
 348 483.5 l 1
 497.5 483.5 l 1
 578.5 725 l 1
 633 708.5 l 1
 555 483.5 l 1
 698.5 483.5 l 1
 698.5 431 l 1
 536.5 431 l 1
EndSplineSet
EndChar

StartChar: dollar
Encoding: 36 36 5
Width: 576
VWidth: 1024
GlyphClass: 2
Flags: HW
LayerCount: 2
Back
Fore
SplineSet
424 175 m 0
 424 193.666992188 421 209.666992188 415 223 c 128
 409 236.333007812 400.833007812 247.75 390.5 257.25 c 128
 380.166992188 266.75 368.333007812 274.583007812 355 280.75 c 128
 341.666992188 286.916992188 327.833007812 292.333007812 313.5 297 c 1
 313.5 54.5 l 1
 327.833007812 56.8330078125 341.666992188 61 355 67 c 128
 368.333007812 73 380.166992188 80.9169921875 390.5 90.75 c 128
 400.833007812 100.583007812 409 112.5 415 126.5 c 128
 421 140.5 424 156.666992188 424 175 c 0
267.5 633 m 1
 253.833007812 630 241.166992188 625.416992188 229.5 619.25 c 128
 217.833007812 613.083007812 207.666992188 605.166992188 199 595.5 c 128
 190.333007812 585.833007812 183.5 574.416992188 178.5 561.25 c 128
 173.5 548.083007812 171 533 171 516 c 0
 171 499.333007812 174.083007812 485 180.25 473 c 128
 186.416992188 461 194.166992188 450.75 203.5 442.25 c 128
 212.833007812 433.75 223.166992188 426.666992188 234.5 421 c 128
 245.833007812 415.333007812 256.833007812 410.5 267.5 406.5 c 1
 267.5 633 l 1
517 194.5 m 0
 517 173.5 513.5 154.166992188 506.5 136.5 c 128
 499.5 118.833007812 490.416992188 102.916992188 479.25 88.75 c 128
 468.083007812 74.5830078125 455.25 62.1669921875 440.75 51.5 c 128
 426.25 40.8330078125 411.416992188 31.75 396.25 24.25 c 128
 381.083007812 16.75 366.333007812 11 352 7 c 128
 337.666992188 3 324.833007812 0.6669921875 313.5 0 c 1
 313.5 -105.5 l 1
 266 -105.5 l 1
 266 0 l 1
 253.333007812 0.6669921875 238.666992188 1.5 222 2.5 c 128
 205.333007812 3.5 187.916992188 4.9169921875 169.75 6.75 c 128
 151.583007812 8.5830078125 133 11.0830078125 114 14.25 c 128
 95 17.4169921875 76.8330078125 21.5 59.5 26.5 c 1
 59.5 200.5 l 1
 110.5 200.5 l 1
 129 86 l 1
 133.666992188 80.3330078125 140.75 75.25 150.25 70.75 c 128
 159.75 66.25 170.75 62.5 183.25 59.5 c 128
 195.75 56.5 209.166992188 54.1669921875 223.5 52.5 c 128
 237.833007812 50.8330078125 252 50 266 50 c 1
 266 309 l 1
 243.666992188 314 221.25 321.083007812 198.75 330.25 c 128
 176.25 339.416992188 155.916992188 351.333007812 137.75 366 c 128
 119.583007812 380.666992188 104.75 398.583007812 93.25 419.75 c 128
 81.75 440.916992188 76 466.166992188 76 495.5 c 0
 76 516.166992188 78.8330078125 534.916992188 84.5 551.75 c 128
 90.1669921875 568.583007812 97.8330078125 583.583007812 107.5 596.75 c 128
 117.166992188 609.916992188 128.416992188 621.5 141.25 631.5 c 128
 154.083007812 641.5 167.583007812 650 181.75 657 c 128
 195.916992188 664 210.416992188 669.75 225.25 674.25 c 128
 240.083007812 678.75 254.166992188 682 267.5 684 c 1
 267.5 761 l 1
 314.5 761 l 1
 314.5 687 l 1
 336.5 687 357.916992188 685.75 378.75 683.25 c 128
 399.583007812 680.75 418.166992188 678 434.5 675 c 0
 453.5 671.333007812 471.5 667.5 488.5 663.5 c 1
 488.5 502 l 1
 435 502 l 1
 420 610.5 l 1
 404 628.166992188 368.833007812 637 314.5 637 c 1
 314.5 393 l 1
 329.166992188 388.666992188 344.416992188 384 360.25 379 c 128
 376.083007812 374 391.5 368 406.5 361 c 128
 421.5 354 435.666992188 345.833007812 449 336.5 c 128
 462.333007812 327.166992188 474.083007812 315.833007812 484.25 302.5 c 128
 494.416992188 289.166992188 502.416992188 273.666992188 508.25 256 c 128
 514.083007812 238.333007812 517 217.833007812 517 194.5 c 0
EndSplineSet
EndChar

StartChar: percent
Encoding: 37 37 6
Width: 880
VWidth: 1024
GlyphClass: 2
Flags: HW
LayerCount: 2
Back
Fore
SplineSet
268.5 488.5 m 256
 268.5 515.5 267 539.833007812 264 561.5 c 128
 261 583.166992188 256.416992188 601.583007812 250.25 616.75 c 128
 244.083007812 631.916992188 236.083007812 643.666992188 226.25 652 c 128
 216.416992188 660.333007812 204.5 664.5 190.5 664.5 c 256
 176.5 664.5 164.416992188 660.333007812 154.25 652 c 128
 144.083007812 643.666992188 135.666992188 631.916992188 129 616.75 c 128
 122.333007812 601.583007812 117.416992188 583.166992188 114.25 561.5 c 128
 111.083007812 539.833007812 109.5 515.5 109.5 488.5 c 256
 109.5 461.5 111.083007812 437.166992188 114.25 415.5 c 128
 117.416992188 393.833007812 122.333007812 375.416992188 129 360.25 c 128
 135.666992188 345.083007812 144.083007812 333.333007812 154.25 325 c 128
 164.416992188 316.666992188 176.5 312.5 190.5 312.5 c 256
 204.5 312.5 216.416992188 316.666992188 226.25 325 c 128
 236.083007812 333.333007812 244.083007812 345.083007812 250.25 360.25 c 128
 256.416992188 375.416992188 261 393.833007812 264 415.5 c 128
 267 437.166992188 268.5 461.5 268.5 488.5 c 256
769 198.5 m 256
 769 225.5 767.5 249.833007812 764.5 271.5 c 128
 761.5 293.166992188 756.916992188 311.666992188 750.75 327 c 128
 744.583007812 342.333007812 736.583007812 354.166992188 726.75 362.5 c 128
 716.916992188 370.833007812 705 375 691 375 c 0
 677.333007812 375 665.416992188 370.833007812 655.25 362.5 c 128
 645.083007812 354.166992188 636.666992188 342.333007812 630 327 c 128
 623.333007812 311.666992188 618.416992188 293.166992188 615.25 271.5 c 128
 612.083007812 249.833007812 610.5 225.5 610.5 198.5 c 256
 610.5 171.5 612.083007812 147.166992188 615.25 125.5 c 128
 618.416992188 103.833007812 623.333007812 85.25 630 69.75 c 128
 636.666992188 54.25 645.083007812 42.3330078125 655.25 34 c 128
 665.416992188 25.6669921875 677.333007812 21.5 691 21.5 c 0
 705 21.5 716.916992188 25.6669921875 726.75 34 c 128
 736.583007812 42.3330078125 744.583007812 54.25 750.75 69.75 c 128
 756.916992188 85.25 761.5 103.833007812 764.5 125.5 c 128
 767.5 147.166992188 769 171.5 769 198.5 c 256
347 488.5 m 0
 347 457.833007812 343.833007812 429.416992188 337.5 403.25 c 128
 331.166992188 377.083007812 321.5 354.416992188 308.5 335.25 c 128
 295.5 316.083007812 279.166992188 301 259.5 290 c 128
 239.833007812 279 216.833007812 273.5 190.5 273.5 c 256
 164.166992188 273.5 141.166992188 279 121.5 290 c 128
 101.833007812 301 85.4169921875 316.083007812 72.25 335.25 c 128
 59.0830078125 354.416992188 49.25 377.083007812 42.75 403.25 c 128
 36.25 429.416992188 33 457.833007812 33 488.5 c 0
 33 518.833007812 36.25 547.166992188 42.75 573.5 c 128
 49.25 599.833007812 59.0830078125 622.583007812 72.25 641.75 c 128
 85.4169921875 660.916992188 101.833007812 676 121.5 687 c 128
 141.166992188 698 164.166992188 703.5 190.5 703.5 c 256
 216.833007812 703.5 239.833007812 698 259.5 687 c 128
 279.166992188 676 295.5 660.916992188 308.5 641.75 c 128
 321.5 622.583007812 331.166992188 599.833007812 337.5 573.5 c 128
 343.833007812 547.166992188 347 518.833007812 347 488.5 c 0
256 0 m 1
 191.5 0 l 1
 626.5 687 l 1
 690 687 l 1
 256 0 l 1
848 198.5 m 256
 848 168.166992188 844.75 139.916992188 838.25 113.75 c 128
 831.75 87.5830078125 822 64.8330078125 809 45.5 c 128
 796 26.1669921875 779.666992188 11 760 0 c 128
 740.333007812 -11 717.333007812 -16.5 691 -16.5 c 256
 664.666992188 -16.5 641.666992188 -11 622 0 c 128
 602.333007812 11 585.916992188 26.1669921875 572.75 45.5 c 128
 559.583007812 64.8330078125 549.75 87.5830078125 543.25 113.75 c 128
 536.75 139.916992188 533.5 168.166992188 533.5 198.5 c 256
 533.5 228.833007812 536.75 257.166992188 543.25 283.5 c 128
 549.75 309.833007812 559.583007812 332.583007812 572.75 351.75 c 128
 585.916992188 370.916992188 602.333007812 386 622 397 c 128
 641.666992188 408 664.666992188 413.5 691 413.5 c 256
 717.333007812 413.5 740.333007812 408 760 397 c 128
 779.666992188 386 796 370.916992188 809 351.75 c 128
 822 332.583007812 831.75 309.833007812 838.25 283.5 c 128
 844.75 257.166992188 848 228.833007812 848 198.5 c 256
EndSplineSet
EndChar

StartChar: ampersand
Encoding: 38 38 7
Width: 716
VWidth: 1024
GlyphClass: 2
Flags: HW
LayerCount: 2
Back
Fore
SplineSet
217 341 m 1
 206.666992188 334 197.083007812 326.25 188.25 317.75 c 128
 179.416992188 309.25 171.666992188 299.916992188 165 289.75 c 128
 158.333007812 279.583007812 153.083007812 268.25 149.25 255.75 c 128
 145.416992188 243.25 143.5 229.333007812 143.5 214 c 0
 143.5 191 147.333007812 169.75 155 150.25 c 128
 162.666992188 130.75 173.166992188 113.916992188 186.5 99.75 c 128
 199.833007812 85.5830078125 215.583007812 74.5 233.75 66.5 c 128
 251.916992188 58.5 271.333007812 54.5 292 54.5 c 0
 307.666992188 54.5 321.916992188 56.0830078125 334.75 59.25 c 128
 347.583007812 62.4169921875 359.416992188 66.6669921875 370.25 72 c 128
 381.083007812 77.3330078125 391.25 83.4169921875 400.75 90.25 c 128
 410.25 97.0830078125 419.333007812 104.166992188 428 111.5 c 1
 217 341 l 1
371.5 539.5 m 0
 371.5 554.166992188 369.583007812 568.166992188 365.75 581.5 c 128
 361.916992188 594.833007812 356 606.583007812 348 616.75 c 128
 340 626.916992188 330 635 318 641 c 128
 306 647 291.833007812 650 275.5 650 c 0
 261.5 650 248.833007812 647.5 237.5 642.5 c 128
 226.166992188 637.5 216.5 630.666992188 208.5 622 c 128
 200.5 613.333007812 194.333007812 603.166992188 190 591.5 c 128
 185.666992188 579.833007812 183.5 567.333007812 183.5 554 c 0
 183.5 537 186.75 521.083007812 193.25 506.25 c 128
 199.75 491.416992188 207.75 477.75 217.25 465.25 c 128
 226.75 452.75 237 441.25 248 430.75 c 128
 259 420.25 269.166992188 410.5 278.5 401.5 c 1
 293.5 408.833007812 306.75 416.916992188 318.25 425.75 c 128
 329.75 434.583007812 339.416992188 444.583007812 347.25 455.75 c 128
 355.083007812 466.916992188 361.083007812 479.416992188 365.25 493.25 c 128
 369.416992188 507.083007812 371.5 522.5 371.5 539.5 c 0
507 0 m 1
 507 24.5 l 1
 461 76 l 1
 447.666992188 65.3330078125 433.833007812 54.75 419.5 44.25 c 128
 405.166992188 33.75 389.666992188 24.3330078125 373 16 c 128
 356.333007812 7.6669921875 338.166992188 0.8330078125 318.5 -4.5 c 128
 298.833007812 -9.8330078125 277 -12.5 253 -12.5 c 0
 223.666992188 -12.5 196.083007812 -7.4169921875 170.25 2.75 c 128
 144.416992188 12.9169921875 121.833007812 27 102.5 45 c 128
 83.1669921875 63 67.9169921875 84.4169921875 56.75 109.25 c 128
 45.5830078125 134.083007812 40 161.166992188 40 190.5 c 0
 40 212.833007812 43.3330078125 233.25 50 251.75 c 128
 56.6669921875 270.25 66.0830078125 286.916992188 78.25 301.75 c 128
 90.4169921875 316.583007812 104.916992188 329.666992188 121.75 341 c 128
 138.583007812 352.333007812 157 362.166992188 177 370.5 c 1
 171.333007812 376.166992188 163.666992188 383.916992188 154 393.75 c 128
 144.333007812 403.583007812 134.833007812 415.166992188 125.5 428.5 c 128
 116.166992188 441.833007812 108.083007812 456.833007812 101.25 473.5 c 128
 94.4169921875 490.166992188 91 508.166992188 91 527.5 c 0
 91 553.166992188 95.9169921875 576.583007812 105.75 597.75 c 128
 115.583007812 618.916992188 129.25 637.166992188 146.75 652.5 c 128
 164.25 667.833007812 184.833007812 679.666992188 208.5 688 c 128
 232.166992188 696.333007812 257.833007812 700.5 285.5 700.5 c 0
 311.5 700.5 335.5 696.583007812 357.5 688.75 c 128
 379.5 680.916992188 398.5 670.166992188 414.5 656.5 c 128
 430.5 642.833007812 443.083007812 626.583007812 452.25 607.75 c 128
 461.416992188 588.916992188 466 568.333007812 466 546 c 0
 466 521 461.666992188 499.166992188 453 480.5 c 128
 444.333007812 461.833007812 432.916992188 445.5 418.75 431.5 c 128
 404.583007812 417.5 388.5 405.25 370.5 394.75 c 128
 352.5 384.25 334.166992188 374.833007812 315.5 366.5 c 1
 487.5 181 l 1
 492.833007812 188 498.583007812 196.333007812 504.75 206 c 128
 510.916992188 215.666992188 516.75 225.833007812 522.25 236.5 c 128
 527.75 247.166992188 532.583007812 258.083007812 536.75 269.25 c 128
 540.916992188 280.416992188 543.666992188 291 545 301 c 0
 545.333007812 304 543.583007812 307.833007812 539.75 312.5 c 128
 535.916992188 317.166992188 531.833007812 319.833007812 527.5 320.5 c 2
 472 328.5 l 1
 472 371.5 l 1
 682 371.5 l 1
 682 328.5 l 1
 608.5 317.5 l 1
 603.5 300.166992188 597.583007812 283.333007812 590.75 267 c 128
 583.916992188 250.666992188 576.583007812 235.083007812 568.75 220.25 c 128
 560.916992188 205.416992188 552.833007812 191.666992188 544.5 179 c 128
 536.166992188 166.333007812 528.333007812 154.833007812 521 144.5 c 1
 604 49 l 1
 695.5 44 l 1
 695.5 0 l 1
 507 0 l 1
EndSplineSet
EndChar

StartChar: quotesingle
Encoding: 39 39 8
Width: 175
VWidth: 1024
GlyphClass: 2
Flags: HW
LayerCount: 2
Back
Fore
SplineSet
96.5 431 m 1
 80 431 l 1
 44 681 l 1
 44 697 47.6669921875 709.333007812 55 718 c 128
 62.3330078125 726.666992188 73 731 87 731 c 0
 101.333007812 731 112.25 726.666992188 119.75 718 c 128
 127.25 709.333007812 131 697 131 681 c 1
 96.5 431 l 1
EndSplineSet
EndChar

StartChar: asterisk
Encoding: 42 42 9
Width: 512
VWidth: 1024
GlyphClass: 2
Flags: HW
LayerCount: 2
Back
Fore
SplineSet
203 371.5 m 1
 132 345 l 1
 134 421 l 1
 237.5 504 l 1
 250 494.5 l 1
 203 371.5 l 1
233.5 518 m 1
 100.5 525.5 l 1
 54.5 583.5 l 1
 127 605 l 1
 237.5 532.5 l 1
 233.5 518 l 1
309 371.5 m 1
 262 494.5 l 1
 274.5 504 l 1
 378 421 l 1
 380 345 l 1
 309 371.5 l 1
263 542.5 m 1
 249 542.5 l 1
 214 670.5 l 1
 256 733 l 1
 299 670.5 l 1
 263 542.5 l 1
411.5 525.5 m 1
 279.5 518 l 1
 274.5 532.5 l 1
 385 605 l 1
 457.5 583.5 l 1
 411.5 525.5 l 1
EndSplineSet
EndChar

StartChar: plus
Encoding: 43 43 10
Width: 1024
VWidth: 1024
GlyphClass: 2
Flags: HW
LayerCount: 2
Back
Fore
SplineSet
543.5 275.5 m 1
 543.5 0 l 1
 480.5 0 l 1
 480.5 275.5 l 1
 205 275.5 l 1
 205 339 l 1
 480.5 339 l 1
 480.5 614.5 l 1
 543.5 614.5 l 1
 543.5 339 l 1
 819 339 l 1
 819 275.5 l 1
 543.5 275.5 l 1
EndSplineSet
EndChar

StartChar: less
Encoding: 60 60 11
Width: 1024
VWidth: 1024
GlyphClass: 2
Flags: HW
LayerCount: 2
Back
Fore
SplineSet
205 275.5 m 1
 205 339 l 1
 819 574.5 l 1
 819 511 l 1
 270.5 307 l 1
 819 103.5 l 1
 819 40 l 1
 205 275.5 l 1
EndSplineSet
EndChar

StartChar: equal
Encoding: 61 61 12
Width: 1024
VWidth: 1024
GlyphClass: 2
Flags: HW
LayerCount: 2
Back
Fore
SplineSet
205 182.5 m 1
 205 246 l 1
 819 246 l 1
 819 182.5 l 1
 205 182.5 l 1
205 368.5 m 1
 205 432 l 1
 819 432 l 1
 819 368.5 l 1
 205 368.5 l 1
EndSplineSet
EndChar

StartChar: greater
Encoding: 62 62 13
Width: 1024
VWidth: 1024
GlyphClass: 2
Flags: HW
LayerCount: 2
Back
Fore
SplineSet
205 40 m 1
 205 103.5 l 1
 753.5 307 l 1
 205 511 l 1
 205 574.5 l 1
 819 339 l 1
 819 275.5 l 1
 205 40 l 1
EndSplineSet
EndChar

StartChar: at
Encoding: 64 64 14
Width: 958
VWidth: 1024
GlyphClass: 2
Flags: HW
LayerCount: 2
Back
Fore
SplineSet
598 402.5 m 2
 599 406.833007812 598.166992188 412.333007812 595.5 419 c 128
 592.833007812 425.666992188 588.75 432.083007812 583.25 438.25 c 128
 577.75 444.416992188 571.083007812 449.75 563.25 454.25 c 128
 555.416992188 458.75 546.833007812 461 537.5 461 c 0
 512.166992188 461 489.333007812 455.083007812 469 443.25 c 128
 448.666992188 431.416992188 431.333007812 415.25 417 394.75 c 128
 402.666992188 374.25 391.666992188 350.25 384 322.75 c 128
 376.333007812 295.25 372.5 265.833007812 372.5 234.5 c 0
 372.5 197.5 379.416992188 169.833007812 393.25 151.5 c 128
 407.083007812 133.166992188 426.833007812 124 452.5 124 c 0
 463.833007812 124 474.666992188 126.25 485 130.75 c 128
 495.333007812 135.25 504.916992188 140.833007812 513.75 147.5 c 128
 522.583007812 154.166992188 530.666992188 161.333007812 538 169 c 128
 545.333007812 176.666992188 551.666992188 183.833007812 557 190.5 c 1
 598 402.5 l 2
884.5 382 m 0
 884.5 347.333007812 880.75 315.25 873.25 285.75 c 128
 865.75 256.25 855.583007812 229.5 842.75 205.5 c 128
 829.916992188 181.5 815.083007812 160.25 798.25 141.75 c 128
 781.416992188 123.25 763.75 107.75 745.25 95.25 c 128
 726.75 82.75 708 73.3330078125 689 67 c 128
 670 60.6669921875 652 57.5 635 57.5 c 0
 606.666992188 57.5 586.25 64.5830078125 573.75 78.75 c 128
 561.25 92.9169921875 555 114.166992188 555 142.5 c 1
 528.333007812 115.5 502.916992188 94.75 478.75 80.25 c 128
 454.583007812 65.75 430.5 58.5 406.5 58.5 c 0
 387.833007812 58.5 370.666992188 62.4169921875 355 70.25 c 128
 339.333007812 78.0830078125 325.833007812 89.25 314.5 103.75 c 128
 303.166992188 118.25 294.333007812 135.75 288 156.25 c 128
 281.666992188 176.75 278.5 199.833007812 278.5 225.5 c 0
 278.5 264.5 285.75 301 300.25 335 c 128
 314.75 369 333.916992188 398.5 357.75 423.5 c 128
 381.583007812 448.5 408.75 468.166992188 439.25 482.5 c 128
 469.75 496.833007812 501.166992188 504 533.5 504 c 0
 540.833007812 504 548.833007812 503.333007812 557.5 502 c 128
 566.166992188 500.666992188 574.916992188 498.75 583.75 496.25 c 128
 592.583007812 493.75 601.25 490.75 609.75 487.25 c 128
 618.25 483.75 626.333007812 480 634 476 c 1
 652.5 499.5 l 1
 709.5 499.5 l 1
 708.833007812 497.5 707.333007812 491.583007812 705 481.75 c 128
 702.666992188 471.916992188 699.833007812 459.75 696.5 445.25 c 128
 693.166992188 430.75 689.416992188 414.416992188 685.25 396.25 c 128
 681.083007812 378.083007812 677 359.833007812 673 341.5 c 0
 663 298.166992188 652 249.5 640 195.5 c 1
 637 183.833007812 635.5 173.083007812 635.5 163.25 c 128
 635.5 153.416992188 637 145 640 138 c 128
 643 131 647.666992188 125.5 654 121.5 c 128
 660.333007812 117.5 668.333007812 115.5 678 115.5 c 0
 693 115.5 709.666992188 121.666992188 728 134 c 128
 746.333007812 146.333007812 763.333007812 164 779 187 c 128
 794.666992188 210 807.833007812 237.916992188 818.5 270.75 c 128
 829.166992188 303.583007812 834.5 340.333007812 834.5 381 c 0
 834.5 429 826.333007812 470.666992188 810 506 c 128
 793.666992188 541.333007812 772.083007812 570.583007812 745.25 593.75 c 128
 718.416992188 616.916992188 687.833007812 634.166992188 653.5 645.5 c 128
 619.166992188 656.833007812 584 662.5 548 662.5 c 0
 509 662.5 472.083007812 657.916992188 437.25 648.75 c 128
 402.416992188 639.583007812 370.25 626.583007812 340.75 609.75 c 128
 311.25 592.916992188 284.583007812 572.5 260.75 548.5 c 128
 236.916992188 524.5 216.75 497.666992188 200.25 468 c 128
 183.75 438.333007812 171 406.25 162 371.75 c 128
 153 337.25 148.5 301 148.5 263 c 0
 148.5 211 156.583007812 162.5 172.75 117.5 c 128
 188.916992188 72.5 212.333007812 33.5 243 0.5 c 128
 273.666992188 -32.5 311.166992188 -58.4169921875 355.5 -77.25 c 128
 399.833007812 -96.0830078125 450.333007812 -105.5 507 -105.5 c 0
 537 -105.5 565 -103.166992188 591 -98.5 c 128
 617 -93.8330078125 641.166992188 -87.8330078125 663.5 -80.5 c 128
 685.833007812 -73.1669921875 706.416992188 -65 725.25 -56 c 128
 744.083007812 -47 761.333007812 -38.1669921875 777 -29.5 c 1
 791.5 -66.5 l 1
 768.5 -78.8330078125 745 -90.4169921875 721 -101.25 c 128
 697 -112.083007812 672.25 -121.583007812 646.75 -129.75 c 128
 621.25 -137.916992188 594.916992188 -144.416992188 567.75 -149.25 c 128
 540.583007812 -154.083007812 512.166992188 -156.5 482.5 -156.5 c 0
 445.833007812 -156.5 410.333007812 -152.333007812 376 -144 c 128
 341.666992188 -135.666992188 309.416992188 -123.583007812 279.25 -107.75 c 128
 249.083007812 -91.9169921875 221.5 -72.4169921875 196.5 -49.25 c 128
 171.5 -26.0830078125 150 0.3330078125 132 30 c 128
 114 59.6669921875 100 92.5 90 128.5 c 128
 80 164.5 75 203.166992188 75 244.5 c 0
 75 295.166992188 81.0830078125 341.75 93.25 384.25 c 128
 105.416992188 426.75 122.166992188 465.166992188 143.5 499.5 c 128
 164.833007812 533.833007812 190.083007812 564 219.25 590 c 128
 248.416992188 616 280 637.666992188 314 655 c 128
 348 672.333007812 383.75 685.416992188 421.25 694.25 c 128
 458.75 703.083007812 496.5 707.5 534.5 707.5 c 0
 585.166992188 707.5 631.916992188 700.416992188 674.75 686.25 c 128
 717.583007812 672.083007812 754.5 651.25 785.5 623.75 c 128
 816.5 596.25 840.75 562.25 858.25 521.75 c 128
 875.75 481.25 884.5 434.666992188 884.5 382 c 0
EndSplineSet
EndChar

StartChar: A
Encoding: 65 65 15
Width: 690
VWidth: 1024
GlyphClass: 2
Flags: HW
LayerCount: 2
Back
Fore
SplineSet
321.5 571.5 m 1
 222 303 l 1
 422 303 l 1
 321.5 571.5 l 1
441.5 0 m 1
 441.5 44 l 1
 500.5 49 l 2
 503.833007812 49 506.666992188 51.25 509 55.75 c 128
 511.333007812 60.25 512 63.8330078125 511 66.5 c 2
 440.5 254 l 1
 204 254 l 1
 136 69.5 l 2
 135.333007812 67.5 135.333007812 65.3330078125 136 63 c 128
 136.666992188 60.6669921875 137.833007812 58.4169921875 139.5 56.25 c 128
 141.166992188 54.0830078125 143 52.3330078125 145 51 c 128
 147 49.6669921875 148.833007812 49 150.5 49 c 2
 211 44 l 1
 211 0 l 1
 5 0 l 1
 5 44 l 1
 64.5 56.5 l 1
 303 703.5 l 1
 380 703.5 l 1
 617.5 71.5 l 2
 619.833007812 64.5 622.083007812 59.8330078125 624.25 57.5 c 128
 626.416992188 55.1669921875 631.333007812 53.3330078125 639 52 c 2
 685 44 l 1
 685 0 l 1
 441.5 0 l 1
EndSplineSet
EndChar

StartChar: B
Encoding: 66 66 16
Width: 619
VWidth: 1024
GlyphClass: 2
Flags: HW
LayerCount: 2
Back
Fore
SplineSet
579.5 203 m 0
 579.5 175.333007812 575.583007812 151.083007812 567.75 130.25 c 128
 559.916992188 109.416992188 549.333007812 91.5 536 76.5 c 128
 522.666992188 61.5 507.25 49.0830078125 489.75 39.25 c 128
 472.25 29.4169921875 453.916992188 21.5830078125 434.75 15.75 c 128
 415.583007812 9.9169921875 396.083007812 5.8330078125 376.25 3.5 c 128
 356.416992188 1.1669921875 337.5 0 319.5 0 c 2
 33 0 l 1
 33 44 l 1
 87 48 l 2
 94.3330078125 48.6669921875 99.75 51.3330078125 103.25 56 c 128
 106.75 60.6669921875 108.5 65.5 108.5 70.5 c 2
 108.5 616.5 l 2
 108.5 621.5 106.75 626.333007812 103.25 631 c 128
 99.75 635.666992188 94.3330078125 638.333007812 87 639 c 2
 33 643 l 1
 33 687 l 1
 307 687 l 2
 347.666992188 687 382.583007812 683.25 411.75 675.75 c 128
 440.916992188 668.25 464.833007812 657.333007812 483.5 643 c 128
 502.166992188 628.666992188 515.833007812 611.333007812 524.5 591 c 128
 533.166992188 570.666992188 537.5 547.666992188 537.5 522 c 256
 537.5 496.333007812 532.666992188 474.5 523 456.5 c 128
 513.333007812 438.5 501.166992188 423.333007812 486.5 411 c 128
 471.833007812 398.666992188 455.833007812 388.833007812 438.5 381.5 c 128
 421.166992188 374.166992188 405 368.5 390 364.5 c 1
 413 364.5 435.75 361.75 458.25 356.25 c 128
 480.75 350.75 501 341.666992188 519 329 c 128
 537 316.333007812 551.583007812 299.666992188 562.75 279 c 128
 573.916992188 258.333007812 579.5 233 579.5 203 c 0
468 194.5 m 0
 468 241.166992188 454.166992188 275.333007812 426.5 297 c 128
 398.833007812 318.666992188 357.666992188 329.5 303 329.5 c 0
 294.666992188 329.5 285.416992188 329.166992188 275.25 328.5 c 128
 265.083007812 327.833007812 255.5 327.166992188 246.5 326.5 c 128
 237.5 325.833007812 229.666992188 325.166992188 223 324.5 c 128
 216.333007812 323.833007812 212.333007812 323.5 211 323.5 c 1
 211 53 l 1
 219.333007812 52.3330078125 227.5 51.8330078125 235.5 51.5 c 1
 242.166992188 50.8330078125 249.083007812 50.4169921875 256.25 50.25 c 128
 263.416992188 50.0830078125 269.5 50 274.5 50 c 0
 310.5 50 340.75 53 365.25 59 c 128
 389.75 65 409.666992188 74 425 86 c 128
 440.333007812 98 451.333007812 113 458 131 c 128
 464.666992188 149 468 170.166992188 468 194.5 c 0
427 515 m 0
 427 555.333007812 414 586.25 388 607.75 c 128
 362 629.25 322.5 640 269.5 640 c 0
 264.166992188 640 258.416992188 639.833007812 252.25 639.5 c 128
 246.083007812 639.166992188 240.25 638.833007812 234.75 638.5 c 128
 229.25 638.166992188 224.333007812 637.833007812 220 637.5 c 128
 215.666992188 637.166992188 212.666992188 637 211 637 c 1
 211 378 l 1
 215.666992188 377.666992188 220.333007812 377.5 225 377.5 c 1
 229 377.166992188 233 377 237 377 c 2
 248 377 l 2
 281.333007812 377 309.416992188 380.083007812 332.25 386.25 c 128
 355.083007812 392.416992188 373.5 401.333007812 387.5 413 c 128
 401.5 424.666992188 411.583007812 439.083007812 417.75 456.25 c 128
 423.916992188 473.416992188 427 493 427 515 c 0
EndSplineSet
EndChar

StartChar: C
Encoding: 67 67 17
Width: 642
VWidth: 1024
GlyphClass: 2
Flags: HW
LayerCount: 2
Back
Fore
SplineSet
602 23.5 m 1
 600.666992188 22.8330078125 594.166992188 20.4169921875 582.5 16.25 c 128
 570.833007812 12.0830078125 555.666992188 7.5830078125 537 2.75 c 128
 518.333007812 -2.0830078125 496.916992188 -6.5 472.75 -10.5 c 128
 448.583007812 -14.5 423.5 -16.5 397.5 -16.5 c 0
 359.166992188 -16.5 323.75 -11.9169921875 291.25 -2.75 c 128
 258.75 6.4169921875 229.25 19.1669921875 202.75 35.5 c 128
 176.25 51.8330078125 152.916992188 71.3330078125 132.75 94 c 128
 112.583007812 116.666992188 95.5830078125 141.333007812 81.75 168 c 128
 67.9169921875 194.666992188 57.5 223 50.5 253 c 128
 43.5 283 40 313.666992188 40 345 c 0
 40 398 48.6669921875 446.5 66 490.5 c 128
 83.3330078125 534.5 107.666992188 572.25 139 603.75 c 128
 170.333007812 635.25 208 659.75 252 677.25 c 128
 296 694.75 344.833007812 703.5 398.5 703.5 c 0
 415.166992188 703.5 431.25 702.583007812 446.75 700.75 c 128
 462.25 698.916992188 478 696.333007812 494 693 c 128
 510 689.666992188 526.833007812 685.5 544.5 680.5 c 128
 562.166992188 675.5 581.333007812 669.833007812 602 663.5 c 1
 602 503 l 1
 540.5 503 l 1
 525.5 596 l 2
 524.833007812 600.666992188 522.5 605.333007812 518.5 610 c 128
 514.5 614.666992188 511 617.833007812 508 619.5 c 1
 504 621.166992188 498.75 623.5 492.25 626.5 c 128
 485.75 629.5 478 632.416992188 469 635.25 c 128
 460 638.083007812 450 640.583007812 439 642.75 c 128
 428 644.916992188 416.166992188 646 403.5 646 c 0
 368.5 646 336 639.5 306 626.5 c 128
 276 613.5 250 594.333007812 228 569 c 128
 206 543.666992188 188.75 512.25 176.25 474.75 c 128
 163.75 437.25 157.5 394 157.5 345 c 0
 157.5 297.333007812 163.416992188 254.666992188 175.25 217 c 128
 187.083007812 179.333007812 204.166992188 147.333007812 226.5 121 c 128
 248.833007812 94.6669921875 276 74.5830078125 308 60.75 c 128
 340 46.9169921875 376.333007812 40 417 40 c 0
 429 40 439.916992188 40.8330078125 449.75 42.5 c 128
 459.583007812 44.1669921875 468.166992188 46.0830078125 475.5 48.25 c 128
 482.833007812 50.4169921875 488.5 52.4169921875 492.5 54.25 c 128
 496.5 56.0830078125 498.833007812 57.1669921875 499.5 57.5 c 0
 504.833007812 59.5 509.166992188 62.3330078125 512.5 66 c 128
 515.833007812 69.6669921875 518 73.6669921875 519 78 c 2
 542.5 189.5 l 1
 602 189.5 l 1
 602 23.5 l 1
EndSplineSet
EndChar

StartChar: D
Encoding: 68 68 18
Width: 712
VWidth: 1024
GlyphClass: 2
Flags: HW
LayerCount: 2
Back
Fore
SplineSet
557 343 m 0
 557 396.666992188 550.75 442.25 538.25 479.75 c 128
 525.75 517.25 507.916992188 547.75 484.75 571.25 c 128
 461.583007812 594.75 433.583007812 611.75 400.75 622.25 c 128
 367.916992188 632.75 331.333007812 638 291 638 c 2
 213 638 l 1
 213 49 l 1
 296 50 l 2
 335.333007812 50.3330078125 371.083007812 55.9169921875 403.25 66.75 c 128
 435.416992188 77.5830078125 462.833007812 94.6669921875 485.5 118 c 128
 508.166992188 141.333007812 525.75 171.5 538.25 208.5 c 128
 550.75 245.5 557 290.333007812 557 343 c 0
673 345 m 0
 673 315 670.166992188 285.75 664.5 257.25 c 128
 658.833007812 228.75 650 201.666992188 638 176 c 128
 626 150.333007812 610.583007812 126.75 591.75 105.25 c 128
 572.916992188 83.75 550.333007812 65.1669921875 524 49.5 c 128
 497.666992188 33.8330078125 467.416992188 21.6669921875 433.25 13 c 128
 399.083007812 4.3330078125 360.5 0 317.5 0 c 2
 33 0 l 1
 33 44 l 1
 87 48 l 2
 94.3330078125 48.6669921875 99.9169921875 51.3330078125 103.75 56 c 128
 107.583007812 60.6669921875 109.5 65.5 109.5 70.5 c 2
 109.5 616.5 l 2
 109.5 621.5 107.583007812 626.333007812 103.75 631 c 128
 99.9169921875 635.666992188 94.3330078125 638.333007812 87 639 c 2
 33 643 l 1
 33 687 l 1
 297 687 l 2
 350.666992188 687 400.5 680.25 446.5 666.75 c 128
 492.5 653.25 532.25 632.5 565.75 604.5 c 128
 599.25 576.5 625.5 541 644.5 498 c 128
 663.5 455 673 404 673 345 c 0
EndSplineSet
EndChar

StartChar: E
Encoding: 69 69 19
Width: 597
VWidth: 1024
GlyphClass: 2
Flags: HW
LayerCount: 2
Back
Fore
SplineSet
33 0 m 1
 33 44 l 1
 86 48 l 2
 93.3330078125 48.6669921875 98.9169921875 51.3330078125 102.75 56 c 128
 106.583007812 60.6669921875 108.5 65.5 108.5 70.5 c 2
 108.5 616.5 l 2
 108.5 621.5 106.583007812 626.333007812 102.75 631 c 128
 98.9169921875 635.666992188 93.3330078125 638.333007812 86 639 c 2
 33 643 l 1
 33 687 l 1
 530.5 687 l 1
 530.5 534.5 l 1
 469 534.5 l 1
 453.5 618.5 l 2
 452.833007812 623.5 450.75 628 447.25 632 c 128
 443.75 636 439.666992188 638 435 638 c 2
 213 638 l 1
 213 383 l 1
 366.5 383 l 2
 371.166992188 383 375.416992188 385 379.25 389 c 128
 383.083007812 393 385 396.833007812 385 400.5 c 1
 395.5 471 l 1
 447.5 471 l 1
 447.5 242.5 l 1
 395.5 242.5 l 1
 385 313.5 l 1
 385 317.166992188 383 321.166992188 379 325.5 c 128
 375 329.833007812 370.833007812 332 366.5 332 c 2
 213 332 l 1
 213 50 l 1
 472 50 l 2
 476.333007812 50 480.333007812 52.3330078125 484 57 c 128
 487.666992188 61.6669921875 489.833007812 65.8330078125 490.5 69.5 c 2
 509 171 l 1
 564 171 l 1
 564 0 l 1
 33 0 l 1
EndSplineSet
EndChar

StartChar: F
Encoding: 70 70 20
Width: 554
VWidth: 1024
GlyphClass: 2
Flags: HW
LayerCount: 2
Back
Fore
SplineSet
463 524.5 m 1
 448.5 618.5 l 2
 447.5 623.5 445.5 627.833007812 442.5 631.5 c 128
 439.5 635.166992188 435.666992188 637 431 637 c 2
 213 637 l 1
 213 370.5 l 1
 369.5 370.5 l 2
 374.166992188 370.5 378.25 372.666992188 381.75 377 c 128
 385.25 381.333007812 387.333007812 385.333007812 388 389 c 2
 397.5 461 l 1
 448.5 461 l 1
 448.5 230.5 l 1
 397.5 230.5 l 1
 388 302 l 2
 387.333007812 305.666992188 385.166992188 309.666992188 381.5 314 c 128
 377.833007812 318.333007812 373.833007812 320.5 369.5 320.5 c 2
 213 320.5 l 1
 213 70.5 l 2
 213 65.5 214.75 60.6669921875 218.25 56 c 128
 221.75 51.3330078125 227.166992188 48.6669921875 234.5 48 c 2
 303 44 l 1
 303 0 l 1
 34 0 l 1
 34 44 l 1
 88 48 l 2
 95.3330078125 48.6669921875 100.75 51.3330078125 104.25 56 c 128
 107.75 60.6669921875 109.5 65.5 109.5 70.5 c 2
 109.5 616.5 l 2
 109.5 621.5 107.75 626.333007812 104.25 631 c 128
 100.75 635.666992188 95.3330078125 638.333007812 88 639 c 2
 25.5 643 l 1
 25.5 687 l 1
 523.5 687 l 1
 523.5 524.5 l 1
 463 524.5 l 1
EndSplineSet
EndChar

StartChar: G
Encoding: 71 71 21
Width: 711
VWidth: 1024
GlyphClass: 2
Flags: HW
LayerCount: 2
Back
Fore
SplineSet
634 282.5 m 2
 626.666992188 281.833007812 621.25 279.416992188 617.75 275.25 c 128
 614.25 271.083007812 612.5 266.333007812 612.5 261 c 2
 612.5 24.5 l 1
 591.833007812 16.8330078125 569.833007812 10 546.5 4 c 0
 526.5 -1.3330078125 503.583007812 -6.0830078125 477.75 -10.25 c 128
 451.916992188 -14.4169921875 425.166992188 -16.5 397.5 -16.5 c 0
 359.5 -16.5 324.25 -12 291.75 -3 c 128
 259.25 6 229.75 18.6669921875 203.25 35 c 128
 176.75 51.3330078125 153.333007812 70.75 133 93.25 c 128
 112.666992188 115.75 95.5830078125 140.333007812 81.75 167 c 128
 67.9169921875 193.666992188 57.5 222.083007812 50.5 252.25 c 128
 43.5 282.416992188 40 313.333007812 40 345 c 0
 40 398.666992188 48.5 447.583007812 65.5 491.75 c 128
 82.5 535.916992188 107 573.666992188 139 605 c 128
 171 636.333007812 209.916992188 660.583007812 255.75 677.75 c 128
 301.583007812 694.916992188 353.166992188 703.5 410.5 703.5 c 0
 429.833007812 703.5 448.25 702.416992188 465.75 700.25 c 128
 483.25 698.083007812 500.166992188 695.333007812 516.5 692 c 128
 532.833007812 688.666992188 548.833007812 684.916992188 564.5 680.75 c 128
 580.166992188 676.583007812 595.833007812 672.5 611.5 668.5 c 1
 611.5 503 l 1
 550 503 l 1
 533.5 595 l 2
 532.5 601 530 606.083007812 526 610.25 c 128
 522 614.416992188 517.666992188 617.5 513 619.5 c 0
 508 621.5 501.916992188 624 494.75 627 c 128
 487.583007812 630 479.5 632.916992188 470.5 635.75 c 128
 461.5 638.583007812 451.583007812 641 440.75 643 c 128
 429.916992188 645 418.5 646 406.5 646 c 0
 369.5 646 335.666992188 639.5 305 626.5 c 128
 274.333007812 613.5 248 594.5 226 569.5 c 128
 204 544.5 186.916992188 513.583007812 174.75 476.75 c 128
 162.583007812 439.916992188 156.5 397.666992188 156.5 350 c 0
 156.5 301 162.666992188 257.333007812 175 219 c 128
 187.333007812 180.666992188 204.916992188 148.333007812 227.75 122 c 128
 250.583007812 95.6669921875 278.166992188 75.5830078125 310.5 61.75 c 128
 342.833007812 47.9169921875 379 41 419 41 c 0
 430.333007812 41 441.166992188 41.8330078125 451.5 43.5 c 128
 461.833007812 45.1669921875 471 46.9169921875 479 48.75 c 128
 487 50.5830078125 493.666992188 52.3330078125 499 54 c 128
 504.333007812 55.6669921875 507.666992188 56.5 509 56.5 c 1
 509 261 l 2
 509 266.333007812 507.25 271.083007812 503.75 275.25 c 128
 500.25 279.416992188 494.833007812 281.833007812 487.5 282.5 c 2
 419 287.5 l 1
 419 332 l 1
 686 332 l 1
 686 287.5 l 1
 634 282.5 l 2
EndSplineSet
EndChar

StartChar: H
Encoding: 72 72 22
Width: 761
VWidth: 1024
GlyphClass: 2
Flags: HW
LayerCount: 2
Back
Fore
SplineSet
469 0 m 1
 469 44 l 1
 527.5 48 l 2
 534.5 48.6669921875 539.833007812 51.3330078125 543.5 56 c 128
 547.166992188 60.6669921875 549 65.5 549 70.5 c 2
 549 335 l 1
 212 335 l 1
 212 70.5 l 2
 212 65.5 213.75 60.6669921875 217.25 56 c 128
 220.75 51.3330078125 226.166992188 48.6669921875 233.5 48 c 2
 292 44 l 1
 292 0 l 1
 33 0 l 1
 33 44 l 1
 86 48 l 2
 93.3330078125 48.6669921875 98.9169921875 51.3330078125 102.75 56 c 128
 106.583007812 60.6669921875 108.5 65.5 108.5 70.5 c 2
 108.5 616.5 l 2
 108.5 621.5 106.583007812 626.166992188 102.75 630.5 c 128
 98.9169921875 634.833007812 93.3330078125 637.333007812 86 638 c 2
 33 642 l 1
 33 687 l 1
 292 687 l 1
 292 642 l 1
 233.5 638 l 2
 226.166992188 637.333007812 220.75 634.833007812 217.25 630.5 c 128
 213.75 626.166992188 212 621.5 212 616.5 c 2
 212 386 l 1
 549 386 l 1
 549 616.5 l 2
 549 621.5 547.166992188 626.166992188 543.5 630.5 c 128
 539.833007812 634.833007812 534.5 637.333007812 527.5 638 c 2
 469 642 l 1
 469 687 l 1
 728 687 l 1
 728 642 l 1
 675 638 l 2
 667.666992188 637.333007812 662.083007812 634.833007812 658.25 630.5 c 128
 654.416992188 626.166992188 652.5 621.5 652.5 616.5 c 2
 652.5 70.5 l 2
 652.5 65.5 654.416992188 60.6669921875 658.25 56 c 128
 662.083007812 51.3330078125 667.666992188 48.6669921875 675 48 c 2
 728 44 l 1
 728 0 l 1
 469 0 l 1
EndSplineSet
EndChar

StartChar: I
Encoding: 73 73 23
Width: 338
VWidth: 1024
GlyphClass: 2
Flags: HW
LayerCount: 2
Back
Fore
SplineSet
34 0 m 1
 34 44 l 1
 95 48 l 2
 102.333007812 48.6669921875 107.75 51.3330078125 111.25 56 c 128
 114.75 60.6669921875 116.5 65.5 116.5 70.5 c 2
 116.5 616.5 l 2
 116.5 621.5 114.75 626.166992188 111.25 630.5 c 128
 107.75 634.833007812 102.333007812 637.333007812 95 638 c 2
 34 642 l 1
 34 687 l 1
 304 687 l 1
 304 642 l 1
 241.5 638 l 2
 234.5 637.333007812 229.166992188 634.833007812 225.5 630.5 c 128
 221.833007812 626.166992188 220 621.5 220 616.5 c 2
 220 70.5 l 2
 220 65.5 221.833007812 60.6669921875 225.5 56 c 128
 229.166992188 51.3330078125 234.5 48.6669921875 241.5 48 c 2
 304 44 l 1
 304 0 l 1
 34 0 l 1
EndSplineSet
EndChar

StartChar: J
Encoding: 74 74 24
Width: 496
VWidth: 1024
GlyphClass: 2
Flags: HW
LayerCount: 2
Back
Fore
SplineSet
410.5 639 m 2
 403.5 638.333007812 398.166992188 635.666992188 394.5 631 c 128
 390.833007812 626.333007812 389 621.5 389 616.5 c 2
 389 259 l 2
 389 216.333007812 385 178 377 144 c 128
 369 110 356.166992188 81.1669921875 338.5 57.5 c 128
 320.833007812 33.8330078125 297.666992188 15.5830078125 269 2.75 c 128
 240.333007812 -10.0830078125 205.333007812 -16.5 164 -16.5 c 0
 147.333007812 -16.5 131 -15.0830078125 115 -12.25 c 128
 99 -9.4169921875 84.6669921875 -6.25 72 -2.75 c 128
 59.3330078125 0.75 48.75 4 40.25 7 c 128
 31.75 10 26.8330078125 11.8330078125 25.5 12.5 c 1
 25.5 187.5 l 1
 87 187.5 l 1
 109.5 62.5 l 2
 110.5 57.5 112.583007812 53.25 115.75 49.75 c 128
 118.916992188 46.25 122.666992188 43.5 127 41.5 c 128
 131.333007812 39.5 136.083007812 38.0830078125 141.25 37.25 c 128
 146.416992188 36.4169921875 151.5 36 156.5 36 c 0
 179.833007812 36 199.666992188 40.5 216 49.5 c 128
 232.333007812 58.5 245.666992188 72 256 90 c 128
 266.333007812 108 273.833007812 130.5 278.5 157.5 c 128
 283.166992188 184.5 285.5 216 285.5 252 c 2
 285.5 616.5 l 2
 285.5 621.5 283.75 626.333007812 280.25 631 c 128
 276.75 635.666992188 271.333007812 638.333007812 264 639 c 2
 199.5 643 l 1
 199.5 687 l 1
 470 687 l 1
 470 643 l 1
 410.5 639 l 2
EndSplineSet
EndChar

StartChar: K
Encoding: 75 75 25
Width: 653
VWidth: 1024
GlyphClass: 2
Flags: HW
LayerCount: 2
Back
Fore
SplineSet
474 0 m 1
 474 31.5 l 1
 283.5 305 l 1
 212 305 l 1
 212 70.5 l 2
 212 65.5 213.916992188 60.6669921875 217.75 56 c 128
 221.583007812 51.3330078125 227.166992188 48.6669921875 234.5 48 c 2
 293 44 l 1
 293 0 l 1
 33 0 l 1
 33 44 l 1
 87 48 l 2
 94.3330078125 48.6669921875 99.75 51.3330078125 103.25 56 c 128
 106.75 60.6669921875 108.5 65.5 108.5 70.5 c 2
 108.5 616.5 l 2
 108.5 621.5 106.75 626.333007812 103.25 631 c 128
 99.75 635.666992188 94.3330078125 638.333007812 87 639 c 2
 33 643 l 1
 33 687 l 1
 293 687 l 1
 293 643 l 1
 234.5 639 l 2
 227.166992188 638.333007812 221.583007812 635.666992188 217.75 631 c 128
 213.916992188 626.333007812 212 621.5 212 616.5 c 2
 212 348 l 1
 249 348 l 1
 472 620.5 l 2
 474.333007812 623.5 474.416992188 627 472.25 631 c 128
 470.083007812 635 467.333007812 637.333007812 464 638 c 1
 411.5 643 l 1
 411.5 687 l 1
 628.5 687 l 1
 628.5 643 l 1
 616.5 642 605.666992188 640.833007812 596 639.5 c 0
 587.666992188 638.5 579.833007812 637.583007812 572.5 636.75 c 128
 565.166992188 635.916992188 560.666992188 635.333007812 559 635 c 1
 350 385 l 1
 579.5 49 l 1
 653.5 44 l 1
 653.5 0 l 1
 474 0 l 1
EndSplineSet
EndChar

StartChar: L
Encoding: 76 76 26
Width: 543
VWidth: 1024
GlyphClass: 2
Flags: HW
LayerCount: 2
Back
Fore
SplineSet
27.5 0 m 1
 27.5 44 l 1
 87 48 l 2
 94.3330078125 48.6669921875 99.75 51.3330078125 103.25 56 c 128
 106.75 60.6669921875 108.5 65.5 108.5 70.5 c 2
 108.5 616.5 l 2
 108.5 621.5 106.75 626.333007812 103.25 631 c 128
 99.75 635.666992188 94.3330078125 638.333007812 87 639 c 2
 27.5 643 l 1
 27.5 687 l 1
 289 687 l 1
 289 643 l 1
 234.5 639 l 2
 227.166992188 638.333007812 221.583007812 635.666992188 217.75 631 c 128
 213.916992188 626.333007812 212 621.5 212 616.5 c 2
 212 50 l 1
 427 50 l 2
 431.666992188 50 436.416992188 51.75 441.25 55.25 c 128
 446.083007812 58.75 448.833007812 62.8330078125 449.5 67.5 c 2
 466 190.5 l 1
 525.5 190.5 l 1
 525.5 0 l 1
 27.5 0 l 1
EndSplineSet
EndChar

StartChar: M
Encoding: 77 77 27
Width: 897
VWidth: 1024
GlyphClass: 2
Flags: HW
LayerCount: 2
Back
Fore
SplineSet
607 0 m 1
 607 44 l 1
 661.5 48 l 2
 668.833007812 48.6669921875 674.416992188 51.3330078125 678.25 56 c 128
 682.083007812 60.6669921875 684 65.5 684 70.5 c 2
 684 635 l 1
 448.5 0 l 1
 397.5 0 l 1
 170 625.5 l 1
 170 70.5 l 2
 170 65.5 171.916992188 60.6669921875 175.75 56 c 128
 179.583007812 51.3330078125 185.166992188 48.6669921875 192.5 48 c 2
 251 44 l 1
 251 0 l 1
 29.5 0 l 1
 29.5 44 l 1
 88 48 l 2
 95.3330078125 48.6669921875 100.75 51.3330078125 104.25 56 c 128
 107.75 60.6669921875 109.5 65.5 109.5 70.5 c 2
 109.5 616.5 l 2
 109.5 621.5 107.75 626.333007812 104.25 631 c 128
 100.75 635.666992188 95.3330078125 638.333007812 88 639 c 2
 29.5 643 l 1
 29.5 687 l 1
 259 687 l 1
 259 659.5 l 1
 444.5 156.5 l 1
 630 656.5 l 1
 630 687 l 1
 865.5 687 l 1
 865.5 643 l 1
 810 639 l 2
 802.666992188 638.333007812 797.083007812 635.666992188 793.25 631 c 128
 789.416992188 626.333007812 787.5 621.5 787.5 616.5 c 2
 787.5 70.5 l 2
 787.5 65.5 789.416992188 60.6669921875 793.25 56 c 128
 797.083007812 51.3330078125 802.666992188 48.6669921875 810 48 c 2
 865.5 44 l 1
 865.5 0 l 1
 607 0 l 1
EndSplineSet
EndChar

StartChar: N
Encoding: 78 78 28
Width: 738
VWidth: 1024
GlyphClass: 2
Flags: HW
LayerCount: 2
Back
Fore
SplineSet
651.5 639 m 2
 644.166992188 638.333007812 638.75 635.666992188 635.25 631 c 128
 631.75 626.333007812 630 621.5 630 616.5 c 2
 630 0 l 1
 550 0 l 1
 169 573.5 l 1
 169 70.5 l 2
 169 65.5 170.75 60.6669921875 174.25 56 c 128
 177.75 51.3330078125 183.166992188 48.6669921875 190.5 48 c 2
 249 44 l 1
 249 0 l 1
 27.5 0 l 1
 27.5 44 l 1
 86 48 l 2
 93.3330078125 48.6669921875 98.9169921875 51.3330078125 102.75 56 c 128
 106.583007812 60.6669921875 108.5 65.5 108.5 70.5 c 2
 108.5 616.5 l 2
 108.5 621.5 106.583007812 626.333007812 102.75 631 c 128
 98.9169921875 635.666992188 93.3330078125 638.333007812 86 639 c 2
 25.5 643 l 1
 25.5 687 l 1
 228.5 687 l 1
 228.5 661.5 l 1
 569.5 146.5 l 1
 569.5 616.5 l 2
 569.5 621.5 567.666992188 626.333007812 564 631 c 128
 560.333007812 635.666992188 555 638.333007812 548 639 c 2
 489.5 643 l 1
 489.5 687 l 1
 708.5 687 l 1
 708.5 643 l 1
 651.5 639 l 2
EndSplineSet
EndChar

StartChar: O
Encoding: 79 79 29
Width: 748
VWidth: 1024
GlyphClass: 2
Flags: HW
LayerCount: 2
Back
Fore
SplineSet
590 342 m 0
 590 383.666992188 585.5 422.916992188 576.5 459.75 c 128
 567.5 496.583007812 554 528.75 536 556.25 c 128
 518 583.75 495.583007812 605.416992188 468.75 621.25 c 128
 441.916992188 637.083007812 410.666992188 645 375 645 c 0
 338 645 305.833007812 637 278.5 621 c 128
 251.166992188 605 228.5 583.25 210.5 555.75 c 128
 192.5 528.25 179.166992188 496.25 170.5 459.75 c 128
 161.833007812 423.25 157.5 384.666992188 157.5 344 c 0
 157.5 303 161.916992188 264.083007812 170.75 227.25 c 128
 179.583007812 190.416992188 192.916992188 158.166992188 210.75 130.5 c 128
 228.583007812 102.833007812 250.916992188 80.8330078125 277.75 64.5 c 128
 304.583007812 48.1669921875 336.166992188 40 372.5 40 c 0
 409.5 40 441.583007812 48.1669921875 468.75 64.5 c 128
 495.916992188 80.8330078125 518.5 102.75 536.5 130.25 c 128
 554.5 157.75 567.916992188 189.75 576.75 226.25 c 128
 585.583007812 262.75 590 301.333007812 590 342 c 0
708.5 343 m 256
 708.5 293.333007812 700.5 246.666992188 684.5 203 c 128
 668.5 159.333007812 645.916992188 121.25 616.75 88.75 c 128
 587.583007812 56.25 552.5 30.5830078125 511.5 11.75 c 128
 470.5 -7.0830078125 425 -16.5 375 -16.5 c 0
 324.666992188 -16.5 278.916992188 -7.4169921875 237.75 10.75 c 128
 196.583007812 28.9169921875 161.333007812 54.1669921875 132 86.5 c 128
 102.666992188 118.833007812 80 156.916992188 64 200.75 c 128
 48 244.583007812 40 292.333007812 40 344 c 0
 40 394 47.8330078125 440.833007812 63.5 484.5 c 128
 79.1669921875 528.166992188 101.5 566.25 130.5 598.75 c 128
 159.5 631.25 194.583007812 656.833007812 235.75 675.5 c 128
 276.916992188 694.166992188 323 703.5 374 703.5 c 0
 424.666992188 703.5 470.583007812 694 511.75 675 c 128
 552.916992188 656 588.083007812 630.166992188 617.25 597.5 c 128
 646.416992188 564.833007812 668.916992188 526.666992188 684.75 483 c 128
 700.583007812 439.333007812 708.5 392.666992188 708.5 343 c 256
EndSplineSet
EndChar

StartChar: P
Encoding: 80 80 30
Width: 593
VWidth: 1024
GlyphClass: 2
Flags: HW
LayerCount: 2
Back
Fore
SplineSet
446.5 479 m 0
 446.5 504 443.166992188 526.25 436.5 545.75 c 128
 429.833007812 565.25 419.25 581.75 404.75 595.25 c 128
 390.25 608.75 371.5 619.083007812 348.5 626.25 c 128
 325.5 633.416992188 297.666992188 637 265 637 c 0
 260.333007812 637 255 636.916992188 249 636.75 c 128
 243 636.583007812 237.333007812 636.5 232 636.5 c 0
 226 636.166992188 219.666992188 636 213 636 c 1
 213 313.5 l 1
 213.666992188 313.5 216.166992188 313.25 220.5 312.75 c 128
 224.833007812 312.25 229.833007812 311.583007812 235.5 310.75 c 128
 241.166992188 309.916992188 247.166992188 309.25 253.5 308.75 c 128
 259.833007812 308.25 265.5 308 270.5 308 c 0
 297.5 307.666992188 321.833007812 310.833007812 343.5 317.5 c 128
 365.166992188 324.166992188 383.583007812 334.5 398.75 348.5 c 128
 413.916992188 362.5 425.666992188 380.333007812 434 402 c 128
 442.333007812 423.666992188 446.5 449.333007812 446.5 479 c 0
553 480.5 m 0
 553 442.833007812 546 409.916992188 532 381.75 c 128
 518 353.583007812 498.916992188 330.25 474.75 311.75 c 128
 450.583007812 293.25 422.25 279.416992188 389.75 270.25 c 128
 357.25 261.083007812 322.5 256.666992188 285.5 257 c 0
 278.833007812 257 271.583007812 257.166992188 263.75 257.5 c 128
 255.916992188 257.833007812 248.416992188 258.25 241.25 258.75 c 128
 234.083007812 259.25 227.916992188 259.666992188 222.75 260 c 128
 217.583007812 260.333007812 214.333007812 260.666992188 213 261 c 1
 213 70.5 l 2
 213 65.5 214.75 60.6669921875 218.25 56 c 128
 221.75 51.3330078125 227.166992188 48.6669921875 234.5 48 c 2
 302 44 l 1
 302 0 l 1
 33 0 l 1
 33 44 l 1
 87 48 l 2
 94.3330078125 48.6669921875 99.9169921875 51.3330078125 103.75 56 c 128
 107.583007812 60.6669921875 109.5 65.5 109.5 70.5 c 2
 109.5 616.5 l 2
 109.5 621.5 107.583007812 626.333007812 103.75 631 c 128
 99.9169921875 635.666992188 94.3330078125 638.333007812 87 639 c 2
 25.5 643 l 1
 25.5 687 l 1
 270.5 687 l 2
 318.833007812 687 360.75 683.333007812 396.25 676 c 128
 431.75 668.666992188 461.083007812 656.833007812 484.25 640.5 c 128
 507.416992188 624.166992188 524.666992188 602.916992188 536 576.75 c 128
 547.333007812 550.583007812 553 518.5 553 480.5 c 0
EndSplineSet
EndChar

StartChar: Q
Encoding: 81 81 31
Width: 756
VWidth: 1024
GlyphClass: 2
Flags: HW
LayerCount: 2
Back
Fore
SplineSet
596 343 m 0
 596 383.333007812 591.666992188 421.75 583 458.25 c 128
 574.333007812 494.75 561.083007812 526.916992188 543.25 554.75 c 128
 525.416992188 582.583007812 502.833007812 604.75 475.5 621.25 c 128
 448.166992188 637.75 415.666992188 646 378 646 c 0
 340.666992188 646 308.25 638 280.75 622 c 128
 253.25 606 230.5 584.25 212.5 556.75 c 128
 194.5 529.25 181.166992188 497.25 172.5 460.75 c 128
 163.833007812 424.25 159.5 385.666992188 159.5 345 c 0
 159.5 305 164 266.583007812 173 229.75 c 128
 182 192.916992188 195.583007812 160.416992188 213.75 132.25 c 128
 231.916992188 104.083007812 254.666992188 81.6669921875 282 65 c 128
 309.333007812 48.3330078125 341.333007812 40 378 40 c 0
 415 40 447.166992188 48.25 474.5 64.75 c 128
 501.833007812 81.25 524.5 103.416992188 542.5 131.25 c 128
 560.5 159.083007812 573.916992188 191.333007812 582.75 228 c 128
 591.583007812 264.666992188 596 303 596 343 c 0
717 343 m 0
 717 297 710.583007812 254 697.75 214 c 128
 684.916992188 174 666.333007812 138.5 642 107.5 c 128
 617.666992188 76.5 588 50.75 553 30.25 c 128
 518 9.75 478.333007812 -4.1669921875 434 -11.5 c 1
 434.666992188 -49.8330078125 446.583007812 -80 469.75 -102 c 128
 492.916992188 -124 528.166992188 -135 575.5 -135 c 0
 587.833007812 -135 599.5 -134.5 610.5 -133.5 c 128
 621.5 -132.5 631.333007812 -131.416992188 640 -130.25 c 128
 648.666992188 -129.083007812 655.916992188 -127.916992188 661.75 -126.75 c 128
 667.583007812 -125.583007812 671.666992188 -124.666992188 674 -124 c 1
 674 -168 l 1
 670.333007812 -168.666992188 663.75 -170 654.25 -172 c 128
 644.75 -174 633.166992188 -176 619.5 -178 c 128
 605.833007812 -180 590.666992188 -181.75 574 -183.25 c 128
 557.333007812 -184.75 540 -185.5 522 -185.5 c 0
 486 -185.5 455.5 -181.5 430.5 -173.5 c 128
 405.5 -165.5 385.083007812 -154 369.25 -139 c 128
 353.416992188 -124 342 -105.916992188 335 -84.75 c 128
 328 -63.5830078125 324.5 -39.8330078125 324.5 -13.5 c 1
 283.5 -7.5 245.666992188 5 211 24 c 128
 176.333007812 43 146.333007812 67.75 121 98.25 c 128
 95.6669921875 128.75 75.8330078125 164.666992188 61.5 206 c 128
 47.1669921875 247.333007812 40 293 40 343 c 0
 40 376.333007812 43.5830078125 408.416992188 50.75 439.25 c 128
 57.9169921875 470.083007812 68.25 498.833007812 81.75 525.5 c 128
 95.25 552.166992188 111.833007812 576.416992188 131.5 598.25 c 128
 151.166992188 620.083007812 173.5 638.833007812 198.5 654.5 c 128
 223.5 670.166992188 251 682.25 281 690.75 c 128
 311 699.25 343 703.5 377 703.5 c 0
 429 703.5 475.916992188 694.166992188 517.75 675.5 c 128
 559.583007812 656.833007812 595.25 631.333007812 624.75 599 c 128
 654.25 566.666992188 677 528.5 693 484.5 c 128
 709 440.5 717 393.333007812 717 343 c 0
EndSplineSet
EndChar

StartChar: R
Encoding: 82 82 32
Width: 664
VWidth: 1024
GlyphClass: 2
Flags: HW
LayerCount: 2
Back
Fore
SplineSet
439.5 500.5 m 0
 439.5 522.5 436.166992188 541.916992188 429.5 558.75 c 128
 422.833007812 575.583007812 412.25 589.833007812 397.75 601.5 c 128
 383.25 613.166992188 364.583007812 622 341.75 628 c 128
 318.916992188 634 291.333007812 637 259 637 c 2
 212 637 l 1
 212 356.5 l 1
 212.666992188 356.5 215 356.416992188 219 356.25 c 128
 223 356.083007812 227.583007812 356 232.75 356 c 128
 237.916992188 356 243.25 355.916992188 248.75 355.75 c 128
 254.25 355.583007812 259 355.5 263 355.5 c 0
 291.333007812 355.5 316.5 357.916992188 338.5 362.75 c 128
 360.5 367.583007812 379 375.666992188 394 387 c 128
 409 398.333007812 420.333007812 413.25 428 431.75 c 128
 435.666992188 450.25 439.5 473.166992188 439.5 500.5 c 0
664.5 -3 m 1
 662.166992188 -3.3330078125 658.833007812 -4.1669921875 654.5 -5.5 c 128
 650.166992188 -6.8330078125 645 -8.3330078125 639 -10 c 128
 633 -11.6669921875 626.416992188 -13.1669921875 619.25 -14.5 c 128
 612.083007812 -15.8330078125 604.666992188 -16.5 597 -16.5 c 0
 566.333007812 -16.5 541.5 -11.9169921875 522.5 -2.75 c 128
 503.5 6.4169921875 488.083007812 18.5830078125 476.25 33.75 c 128
 464.416992188 48.9169921875 455.166992188 66.1669921875 448.5 85.5 c 128
 441.833007812 104.833007812 435.666992188 124.583007812 430 144.75 c 128
 424.333007812 164.916992188 418.083007812 184.666992188 411.25 204 c 128
 404.416992188 223.333007812 394.833007812 240.583007812 382.5 255.75 c 128
 370.166992188 270.916992188 354.166992188 283.083007812 334.5 292.25 c 128
 314.833007812 301.416992188 289.333007812 306 258 306 c 0
 252.666992188 306 247.333007812 305.916992188 242 305.75 c 128
 236.666992188 305.583007812 231.916992188 305.333007812 227.75 305 c 128
 223.583007812 304.666992188 220 304.416992188 217 304.25 c 128
 214 304.083007812 212.333007812 304 212 304 c 1
 212 70.5 l 2
 212 65.5 213.75 60.6669921875 217.25 56 c 128
 220.75 51.3330078125 226.166992188 48.6669921875 233.5 48 c 2
 287.5 44 l 1
 287.5 0 l 1
 33 0 l 1
 33 44 l 1
 86 48 l 2
 93.3330078125 48.6669921875 98.9169921875 51.3330078125 102.75 56 c 128
 106.583007812 60.6669921875 108.5 65.5 108.5 70.5 c 2
 108.5 616.5 l 2
 108.5 621.5 106.583007812 626.333007812 102.75 631 c 128
 98.9169921875 635.666992188 93.3330078125 638.333007812 86 639 c 2
 33 643 l 1
 33 687 l 1
 300 687 l 2
 339 687 374 683.833007812 405 677.5 c 128
 436 671.166992188 462.333007812 660.833007812 484 646.5 c 128
 505.666992188 632.166992188 522.25 613.416992188 533.75 590.25 c 128
 545.25 567.083007812 551 538.666992188 551 505 c 0
 551 478 546.333007812 454.833007812 537 435.5 c 128
 527.666992188 416.166992188 515.25 399.833007812 499.75 386.5 c 128
 484.25 373.166992188 466.333007812 362.333007812 446 354 c 128
 425.666992188 345.666992188 404.666992188 339 383 334 c 1
 410.666992188 327.333007812 432.833007812 318.083007812 449.5 306.25 c 128
 466.166992188 294.416992188 479.333007812 281 489 266 c 128
 498.666992188 251 505.833007812 235.083007812 510.5 218.25 c 128
 515.166992188 201.416992188 519.333007812 184.75 523 168.25 c 128
 526.666992188 151.75 530.833007812 136 535.5 121 c 128
 540.166992188 106 547.416992188 92.6669921875 557.25 81 c 128
 567.083007812 69.3330078125 580.416992188 60.0830078125 597.25 53.25 c 128
 614.083007812 46.4169921875 636.5 43 664.5 43 c 1
 664.5 -3 l 1
EndSplineSet
EndChar

StartChar: S
Encoding: 83 83 33
Width: 533
VWidth: 1024
GlyphClass: 2
Flags: HW
LayerCount: 2
Back
Fore
SplineSet
493.5 192.5 m 0
 493.5 166.5 488.416992188 141 478.25 116 c 128
 468.083007812 91 452 68.6669921875 430 49 c 128
 408 29.3330078125 379.833007812 13.5 345.5 1.5 c 128
 311.166992188 -10.5 270 -16.5 222 -16.5 c 0
 194 -16.5 168.916992188 -14.5 146.75 -10.5 c 128
 124.583007812 -6.5 105.5 -2.1669921875 89.5 2.5 c 0
 71.1669921875 8.1669921875 54.6669921875 14.5 40 21.5 c 1
 40 203 l 1
 104.5 203 l 1
 118 87 l 2
 118.666992188 83 120.75 78.6669921875 124.25 74 c 128
 127.75 69.3330078125 131.333007812 66.1669921875 135 64.5 c 2
 143.5 60 l 2
 148.5 57.6669921875 155.333007812 55.0830078125 164 52.25 c 128
 172.666992188 49.4169921875 183.25 46.8330078125 195.75 44.5 c 128
 208.25 42.1669921875 222.5 41 238.5 41 c 0
 260.166992188 41 280.25 43.75 298.75 49.25 c 128
 317.25 54.75 333.166992188 62.6669921875 346.5 73 c 128
 359.833007812 83.3330078125 370.25 96 377.75 111 c 128
 385.25 126 389 143 389 162 c 0
 389 182.666992188 383.083007812 200.75 371.25 216.25 c 128
 359.416992188 231.75 344.583007812 245.583007812 326.75 257.75 c 128
 308.916992188 269.916992188 289.5 280.833007812 268.5 290.5 c 128
 247.5 300.166992188 227.666992188 309.5 209 318.5 c 0
 188 328.5 167.916992188 338.833007812 148.75 349.5 c 128
 129.583007812 360.166992188 112.75 372.5 98.25 386.5 c 128
 83.75 400.5 72.25 416.916992188 63.75 435.75 c 128
 55.25 454.583007812 51 477 51 503 c 0
 51 533.333007812 57 560.833007812 69 585.5 c 128
 81 610.166992188 97.5830078125 631.25 118.75 648.75 c 128
 139.916992188 666.25 164.916992188 679.75 193.75 689.25 c 128
 222.583007812 698.75 253.833007812 703.5 287.5 703.5 c 0
 306.833007812 703.5 325.083007812 702.333007812 342.25 700 c 128
 359.416992188 697.666992188 375.416992188 694.75 390.25 691.25 c 128
 405.083007812 687.75 418.916992188 684 431.75 680 c 128
 444.583007812 676 456.666992188 672.166992188 468 668.5 c 1
 468 509 l 1
 409.5 509 l 1
 394 607 l 2
 393.333007812 610.333007812 391.416992188 613.666992188 388.25 617 c 128
 385.083007812 620.333007812 382 622.833007812 379 624.5 c 0
 378.333007812 624.833007812 376.166992188 626.333007812 372.5 629 c 128
 368.833007812 631.666992188 363.416992188 634.333007812 356.25 637 c 128
 349.083007812 639.666992188 339.916992188 642.166992188 328.75 644.5 c 128
 317.583007812 646.833007812 304.333007812 648 289 648 c 0
 268.333007812 648 249.833007812 645 233.5 639 c 128
 217.166992188 633 203.333007812 624.583007812 192 613.75 c 128
 180.666992188 602.916992188 171.916992188 590.166992188 165.75 575.5 c 128
 159.583007812 560.833007812 156.5 544.833007812 156.5 527.5 c 0
 156.5 511.833007812 159.583007812 497.583007812 165.75 484.75 c 128
 171.916992188 471.916992188 181.083007812 460.083007812 193.25 449.25 c 128
 205.416992188 438.416992188 220.333007812 428.333007812 238 419 c 128
 255.666992188 409.666992188 276 400.666992188 299 392 c 0
 330 380.333007812 357.583007812 368.166992188 381.75 355.5 c 128
 405.916992188 342.833007812 426.25 328.666992188 442.75 313 c 128
 459.25 297.333007812 471.833007812 279.75 480.5 260.25 c 128
 489.166992188 240.75 493.5 218.166992188 493.5 192.5 c 0
EndSplineSet
EndChar

StartChar: T
Encoding: 84 84 34
Width: 613
VWidth: 1024
GlyphClass: 2
Flags: HW
LayerCount: 2
Back
Fore
SplineSet
536.5 523.5 m 1
 522 619.5 l 2
 521 624.833007812 519.083007812 629.083007812 516.25 632.25 c 128
 513.416992188 635.416992188 509.666992188 637 505 637 c 2
 358.5 637 l 1
 358.5 70.5 l 2
 358.5 65.5 360.25 60.6669921875 363.75 56 c 128
 367.25 51.3330078125 372.666992188 48.6669921875 380 48 c 2
 445.5 44 l 1
 445.5 0 l 1
 168 0 l 1
 168 44 l 1
 233.5 48 l 2
 240.833007812 48.6669921875 246.25 51.3330078125 249.75 56 c 128
 253.25 60.6669921875 255 65.5 255 70.5 c 2
 255 637 l 1
 107.5 637 l 2
 102.833007812 637 98.9169921875 635.416992188 95.75 632.25 c 128
 92.5830078125 629.083007812 90.6669921875 624.833007812 90 619.5 c 2
 76 523.5 l 1
 16.5 523.5 l 1
 16.5 687 l 1
 597 687 l 1
 597 523.5 l 1
 536.5 523.5 l 1
EndSplineSet
EndChar

StartChar: U
Encoding: 85 85 35
Width: 729
VWidth: 1024
GlyphClass: 2
Flags: HW
LayerCount: 2
Back
Fore
SplineSet
642 639 m 2
 634.666992188 638.333007812 629.25 635.666992188 625.75 631 c 128
 622.25 626.333007812 620.5 621.5 620.5 616.5 c 2
 620.5 227.5 l 2
 620.5 185.5 614.833007812 149.166992188 603.5 118.5 c 128
 592.166992188 87.8330078125 575.416992188 62.5 553.25 42.5 c 128
 531.083007812 22.5 503.583007812 7.6669921875 470.75 -2 c 128
 437.916992188 -11.6669921875 400.166992188 -16.5 357.5 -16.5 c 0
 272.833007812 -16.5 210 4 169 45 c 128
 128 86 107.5 146.833007812 107.5 227.5 c 2
 107.5 616.5 l 2
 107.5 621.5 105.75 626.333007812 102.25 631 c 128
 98.75 635.666992188 93.3330078125 638.333007812 86 639 c 2
 31.5 643 l 1
 31.5 687 l 1
 292 687 l 1
 292 643 l 1
 233.5 639 l 2
 226.166992188 638.333007812 220.75 635.666992188 217.25 631 c 128
 213.75 626.333007812 212 621.5 212 616.5 c 2
 212 254 l 2
 212 224 214.333007812 196.583007812 219 171.75 c 128
 223.666992188 146.916992188 232.333007812 125.666992188 245 108 c 128
 257.666992188 90.3330078125 275.25 76.5830078125 297.75 66.75 c 128
 320.25 56.9169921875 349.333007812 52 385 52 c 0
 420.333007812 52 449.333007812 57.1669921875 472 67.5 c 128
 494.666992188 77.8330078125 512.5 92.0830078125 525.5 110.25 c 128
 538.5 128.416992188 547.5 149.833007812 552.5 174.5 c 128
 557.5 199.166992188 560 225.666992188 560 254 c 2
 560 616.5 l 2
 560 621.5 558.083007812 626.333007812 554.25 631 c 128
 550.416992188 635.666992188 544.833007812 638.333007812 537.5 639 c 2
 479 643 l 1
 479 687 l 1
 701.5 687 l 1
 701.5 643 l 1
 642 639 l 2
EndSplineSet
EndChar

StartChar: V
Encoding: 86 86 36
Width: 682
VWidth: 1024
GlyphClass: 2
Flags: HW
LayerCount: 2
Back
Fore
SplineSet
612.5 632 m 1
 383 -16.5 l 1
 305 -16.5 l 1
 70.5 633 l 1
 10 643 l 1
 10 687 l 1
 255 687 l 1
 255 643 l 1
 194.5 638 l 1
 190.833007812 637.333007812 188.166992188 634.833007812 186.5 630.5 c 128
 184.833007812 626.166992188 184.5 622.5 185.5 619.5 c 2
 365.5 113.5 l 1
 538.5 617.5 l 2
 539.833007812 621.5 538.916992188 625.75 535.75 630.25 c 128
 532.583007812 634.75 528.833007812 637.333007812 524.5 638 c 2
 468 643 l 1
 468 687 l 1
 671.5 687 l 1
 671.5 643 l 1
 612.5 632 l 1
EndSplineSet
EndChar

StartChar: W
Encoding: 87 87 37
Width: 953
VWidth: 1024
GlyphClass: 2
Flags: HW
LayerCount: 2
Back
Fore
SplineSet
880.5 631 m 1
 724 -16.5 l 1
 649 -16.5 l 1
 478 551 l 1
 310.5 -16.5 l 1
 236.5 -16.5 l 1
 69.5 631 l 1
 10 643 l 1
 10 687 l 1
 244.5 687 l 1
 244.5 643 l 1
 183.5 637 l 2
 178.833007812 636.333007812 175.666992188 633.916992188 174 629.75 c 128
 172.333007812 625.583007812 172 621.166992188 173 616.5 c 2
 295 154.5 l 1
 455.5 687 l 1
 534.5 687 l 1
 699.5 138 l 1
 813 616.5 l 2
 814 621.166992188 813.166992188 625.583007812 810.5 629.75 c 128
 807.833007812 633.916992188 803.833007812 636.333007812 798.5 637 c 2
 734 643 l 1
 734 687 l 1
 943 687 l 1
 943 643 l 1
 880.5 631 l 1
EndSplineSet
EndChar

StartChar: X
Encoding: 88 88 38
Width: 649
VWidth: 1024
GlyphClass: 2
Flags: HW
LayerCount: 2
Back
Fore
SplineSet
376 0 m 1
 376 44 l 1
 435 50 l 2
 440.333007812 50.6669921875 444.5 53.1669921875 447.5 57.5 c 128
 450.5 61.8330078125 450.5 66.5 447.5 71.5 c 2
 311.5 285.5 l 1
 153.5 68.5 l 2
 150.833007812 64.8330078125 150.166992188 60.8330078125 151.5 56.5 c 128
 152.833007812 52.1669921875 157.666992188 49.6669921875 166 49 c 2
 227.5 44 l 1
 227.5 0 l 1
 10 0 l 1
 10 44 l 1
 71.5 56.5 l 1
 277.5 339 l 1
 91 631 l 1
 23.5 643 l 1
 23.5 687 l 1
 280.5 687 l 1
 280.5 643 l 1
 228.5 638 l 2
 220.166992188 637.333007812 215.333007812 634.75 214 630.25 c 128
 212.666992188 625.75 213.333007812 621.5 216 617.5 c 2
 341 425 l 1
 479 614.5 l 2
 482.666992188 619.5 483 624.166992188 480 628.5 c 128
 477 632.833007812 473 635.333007812 468 636 c 2
 415.5 643 l 1
 415.5 687 l 1
 630 687 l 1
 630 643 l 1
 564 633 l 1
 374 371.5 l 1
 575.5 56.5 l 1
 639 44 l 1
 639 0 l 1
 376 0 l 1
EndSplineSet
EndChar

StartChar: Y
Encoding: 89 89 39
Width: 641
VWidth: 1024
GlyphClass: 2
Flags: HW
LayerCount: 2
Back
Fore
SplineSet
575.5 633 m 1
 369.5 292 l 1
 369.5 70.5 l 2
 369.5 65.5 371.333007812 60.6669921875 375 56 c 128
 378.666992188 51.3330078125 384 48.6669921875 391 48 c 2
 456.5 44 l 1
 456.5 0 l 1
 180 0 l 1
 180 44 l 1
 243.5 48 l 2
 250.833007812 48.6669921875 256.416992188 51.3330078125 260.25 56 c 128
 264.083007812 60.6669921875 266 65.5 266 70.5 c 2
 266 276.5 l 1
 69.5 631 l 1
 10 643 l 1
 10 687 l 1
 253 687 l 1
 253 643 l 1
 201.5 638 l 2
 193.5 637 189 634.333007812 188 630 c 128
 187 625.666992188 187.5 621.5 189.5 617.5 c 2
 334 350 l 1
 492.5 614.5 l 2
 495.5 619.5 495.5 624.166992188 492.5 628.5 c 128
 489.5 632.833007812 485.5 635.333007812 480.5 636 c 2
 423 643 l 1
 423 687 l 1
 631 687 l 1
 631 643 l 1
 575.5 633 l 1
EndSplineSet
EndChar

StartChar: Z
Encoding: 90 90 40
Width: 589
VWidth: 1024
GlyphClass: 2
Flags: HW
LayerCount: 2
Back
Fore
SplineSet
40 0 m 1
 40 45 l 1
 421 636 l 1
 154.5 636 l 2
 149.833007812 636 146.083007812 634.333007812 143.25 631 c 128
 140.416992188 627.666992188 138.333007812 623.5 137 618.5 c 1
 122 523.5 l 1
 61.5 523.5 l 1
 61.5 687 l 1
 543.5 687 l 1
 543.5 640 l 1
 162 52 l 1
 453.5 52 l 2
 458.166992188 52 462 53.8330078125 465 57.5 c 128
 468 61.1669921875 470 65.5 471 70.5 c 2
 488.5 189.5 l 1
 549 189.5 l 1
 549 0 l 1
 40 0 l 1
EndSplineSet
EndChar

StartChar: bracketleft
Encoding: 91 91 41
Width: 433
VWidth: 1024
GlyphClass: 2
Flags: HW
LayerCount: 2
Back
Fore
SplineSet
139.5 -135 m 1
 139.5 725 l 1
 388 725 l 1
 388 679 l 1
 228.5 679 l 1
 228.5 -88 l 1
 388 -88 l 1
 388 -135 l 1
 139.5 -135 l 1
EndSplineSet
EndChar

StartChar: backslash
Encoding: 92 92 42
Width: 500
VWidth: 1024
GlyphClass: 2
Flags: HW
LayerCount: 2
Back
Fore
SplineSet
435 -95 m 1
 0 687 l 1
 65.5 687 l 1
 500.5 -95 l 1
 435 -95 l 1
EndSplineSet
EndChar

StartChar: bracketright
Encoding: 93 93 43
Width: 433
VWidth: 1024
GlyphClass: 2
Flags: HW
LayerCount: 2
Back
Fore
SplineSet
45 -135 m 1
 45 -88 l 1
 206 -88 l 1
 206 679 l 1
 45 679 l 1
 45 725 l 1
 295 725 l 1
 295 -135 l 1
 45 -135 l 1
EndSplineSet
EndChar

StartChar: asciicircum
Encoding: 94 94 44
Width: 335
VWidth: 1024
GlyphClass: 2
Flags: HW
LayerCount: 2
Back
Fore
SplineSet
273.5 564 m 1
 168 665.5 l 1
 61.5 564 l 1
 0 564 l 1
 129 737.5 l 1
 206 737.5 l 1
 335 564 l 1
 273.5 564 l 1
EndSplineSet
EndChar

StartChar: underscore
Encoding: 95 95 45
Width: 343
VWidth: 1024
GlyphClass: 2
Flags: HW
LayerCount: 2
Back
Fore
SplineSet
0 -152.5 m 1
 0 -87.5 l 1
 343 -87.5 l 1
 343 -152.5 l 1
 0 -152.5 l 1
EndSplineSet
EndChar

StartChar: grave
Encoding: 96 96 46
Width: 358
VWidth: 1024
GlyphClass: 2
Flags: HW
LayerCount: 2
Back
Fore
SplineSet
179 564 m 1
 23.5 663.5 l 2
 16.1669921875 668.166992188 10.4169921875 673.833007812 6.25 680.5 c 128
 2.0830078125 687.166992188 0 695.166992188 0 704.5 c 0
 0 709.833007812 0.8330078125 715.25 2.5 720.75 c 128
 4.1669921875 726.25 6.8330078125 731.166992188 10.5 735.5 c 128
 14.1669921875 739.833007812 19 743.416992188 25 746.25 c 128
 31 749.083007812 38.3330078125 750.5 47 750.5 c 0
 54.3330078125 750.5 60.5 749.916992188 65.5 748.75 c 128
 70.5 747.583007812 75 745.833007812 79 743.5 c 128
 83 741.166992188 86.6669921875 738.25 90 734.75 c 128
 93.3330078125 731.25 96.8330078125 727.333007812 100.5 723 c 2
 237.5 564 l 1
 179 564 l 1
EndSplineSet
EndChar

StartChar: a
Encoding: 97 97 47
Width: 521
VWidth: 1024
GlyphClass: 2
Flags: HW
LayerCount: 2
Back
Fore
SplineSet
339 273.5 m 1
 293 261.833007812 256.5 250.333007812 229.5 239 c 128
 202.5 227.666992188 182.083007812 216.25 168.25 204.75 c 128
 154.416992188 193.25 145.583007812 181.583007812 141.75 169.75 c 128
 137.916992188 157.916992188 136 145.666992188 136 133 c 0
 136 122.333007812 137.75 111.916992188 141.25 101.75 c 128
 144.75 91.5830078125 149.75 82.5 156.25 74.5 c 128
 162.75 66.5 170.75 60.0830078125 180.25 55.25 c 128
 189.75 50.4169921875 200.666992188 48 213 48 c 0
 226.666992188 48 240.916992188 50.5 255.75 55.5 c 128
 270.583007812 60.5 284.166992188 66 296.5 72 c 0
 310.833007812 79 325 87.1669921875 339 96.5 c 1
 339 273.5 l 1
352.5 0 m 1
 339 60.5 l 1
 321 46.8330078125 302.5 34.6669921875 283.5 24 c 0
 275.166992188 19.3330078125 266.333007812 14.8330078125 257 10.5 c 128
 247.666992188 6.1669921875 238.083007812 2.25 228.25 -1.25 c 128
 218.416992188 -4.75 208.416992188 -7.5 198.25 -9.5 c 128
 188.083007812 -11.5 178 -12.5 168 -12.5 c 0
 149.333007812 -12.5 131.916992188 -9.3330078125 115.75 -3 c 128
 99.5830078125 3.3330078125 85.5 12.5 73.5 24.5 c 128
 61.5 36.5 52.0830078125 51 45.25 68 c 128
 38.4169921875 85 35 104.333007812 35 126 c 0
 35 138.666992188 36.25 150.666992188 38.75 162 c 128
 41.25 173.333007812 46.3330078125 184.333007812 54 195 c 128
 61.6669921875 205.666992188 72.4169921875 215.916992188 86.25 225.75 c 128
 100.083007812 235.583007812 118.25 245.333007812 140.75 255 c 128
 163.25 264.666992188 190.75 274.25 223.25 283.75 c 128
 255.75 293.25 294.333007812 302.833007812 339 312.5 c 1
 339 356.5 l 2
 339 390.833007812 331.333007812 416.25 316 432.75 c 128
 300.666992188 449.25 276.5 457.5 243.5 457.5 c 0
 225.5 457.5 210.166992188 455.833007812 197.5 452.5 c 128
 184.833007812 449.166992188 176 446.5 171 444.5 c 1
 171 355.5 l 1
 96.5 355.5 l 2
 91.8330078125 355.5 87.25 355.833007812 82.75 356.5 c 128
 78.25 357.166992188 74.1669921875 358.583007812 70.5 360.75 c 128
 66.8330078125 362.916992188 63.9169921875 365.916992188 61.75 369.75 c 128
 59.5830078125 373.583007812 58.5 378.666992188 58.5 385 c 0
 58.5 406 64.8330078125 424.083007812 77.5 439.25 c 128
 90.1669921875 454.416992188 106.666992188 467 127 477 c 128
 147.333007812 487 170.166992188 494.333007812 195.5 499 c 128
 220.833007812 503.666992188 246.166992188 506 271.5 506 c 0
 303.166992188 506 329.416992188 502.166992188 350.25 494.5 c 128
 371.083007812 486.833007812 387.583007812 476.166992188 399.75 462.5 c 128
 411.916992188 448.833007812 420.5 432.666992188 425.5 414 c 128
 430.5 395.333007812 433 374.833007812 433 352.5 c 2
 433 65.5 l 2
 433 59.1669921875 435.083007812 54 439.25 50 c 128
 443.416992188 46 448.5 43.6669921875 454.5 43 c 2
 504 40 l 1
 504 0 l 1
 352.5 0 l 1
EndSplineSet
EndChar

StartChar: b
Encoding: 98 98 48
Width: 568
VWidth: 1024
GlyphClass: 2
Flags: HW
LayerCount: 2
Back
Fore
SplineSet
533.5 270.5 m 0
 533.5 231.833007812 527.833007812 196.083007812 516.5 163.25 c 128
 505.166992188 130.416992188 487.583007812 101.833007812 463.75 77.5 c 128
 439.916992188 53.1669921875 409.416992188 34.1669921875 372.25 20.5 c 128
 335.083007812 6.8330078125 290.833007812 0 239.5 0 c 2
 92 0 l 1
 92 681 l 1
 14.5 681 l 1
 14.5 715 l 1
 146.5 754.5 l 1
 187.5 754.5 l 1
 187.5 468 l 1
 193.5 470.666992188 201.333007812 474.166992188 211 478.5 c 128
 220.666992188 482.833007812 231.75 487 244.25 491 c 128
 256.75 495 270.166992188 498.5 284.5 501.5 c 128
 298.833007812 504.5 313.5 506 328.5 506 c 0
 362.166992188 506 391.75 499.666992188 417.25 487 c 128
 442.75 474.333007812 464.166992188 457.166992188 481.5 435.5 c 128
 498.833007812 413.833007812 511.833007812 388.75 520.5 360.25 c 128
 529.166992188 331.75 533.5 301.833007812 533.5 270.5 c 0
429 250 m 0
 429 314.333007812 415.25 363 387.75 396 c 128
 360.25 429 321.833007812 445.5 272.5 445.5 c 0
 266.833007812 445.5 260.166992188 445 252.5 444 c 128
 244.833007812 443 237.083007812 441.666992188 229.25 440 c 128
 221.416992188 438.333007812 213.75 436.5 206.25 434.5 c 128
 198.75 432.5 192.5 430.666992188 187.5 429 c 1
 187.5 49 l 1
 193.166992188 48.6669921875 199 48.5 205 48.5 c 1
 210 48.1669921875 215.333007812 48 221 48 c 2
 237.5 48 l 2
 267.833007812 48 294.833007812 51.5 318.5 58.5 c 128
 342.166992188 65.5 362.166992188 77 378.5 93 c 128
 394.833007812 109 407.333007812 129.833007812 416 155.5 c 128
 424.666992188 181.166992188 429 212.666992188 429 250 c 0
EndSplineSet
EndChar

StartChar: c
Encoding: 99 99 49
Width: 477
VWidth: 1024
GlyphClass: 2
Flags: HW
LayerCount: 2
Back
Fore
SplineSet
442.5 38 m 1
 430.833007812 32 418.583007812 25.9169921875 405.75 19.75 c 128
 392.916992188 13.5830078125 379.25 8.1669921875 364.75 3.5 c 128
 350.25 -1.1669921875 335.083007812 -5 319.25 -8 c 128
 303.416992188 -11 286.833007812 -12.5 269.5 -12.5 c 0
 233.5 -12.5 201.083007812 -6.0830078125 172.25 6.75 c 128
 143.416992188 19.5830078125 118.833007812 37.4169921875 98.5 60.25 c 128
 78.1669921875 83.0830078125 62.5 110.166992188 51.5 141.5 c 128
 40.5 172.833007812 35 206.833007812 35 243.5 c 0
 35 286.5 41.6669921875 324.333007812 55 357 c 128
 68.3330078125 389.666992188 86.3330078125 417.083007812 109 439.25 c 128
 131.666992188 461.416992188 157.916992188 478.083007812 187.75 489.25 c 128
 217.583007812 500.416992188 248.833007812 506 281.5 506 c 0
 303.833007812 506 324.75 503.75 344.25 499.25 c 128
 363.75 494.75 380.583007812 488.166992188 394.75 479.5 c 128
 408.916992188 470.833007812 420.083007812 460.166992188 428.25 447.5 c 128
 436.416992188 434.833007812 440.5 420.166992188 440.5 403.5 c 0
 440.5 393.5 438.75 384.75 435.25 377.25 c 128
 431.75 369.75 427.166992188 363.416992188 421.5 358.25 c 128
 415.833007812 353.083007812 409.416992188 349.25 402.25 346.75 c 128
 395.083007812 344.25 387.666992188 343 380 343 c 0
 368.666992188 343 358.833007812 344.916992188 350.5 348.75 c 128
 342.166992188 352.583007812 334.833007812 356.5 328.5 360.5 c 1
 328.5 449.5 l 1
 321.5 453.5 314.25 456.75 306.75 459.25 c 128
 299.25 461.75 292.166992188 463 285.5 463 c 0
 262.833007812 463 242.416992188 457.833007812 224.25 447.5 c 128
 206.083007812 437.166992188 190.75 422.833007812 178.25 404.5 c 128
 165.75 386.166992188 156.166992188 364.416992188 149.5 339.25 c 128
 142.833007812 314.083007812 139.5 286.666992188 139.5 257 c 0
 139.5 228.666992188 143.083007812 202 150.25 177 c 128
 157.416992188 152 168.083007812 130.25 182.25 111.75 c 128
 196.416992188 93.25 214.083007812 78.6669921875 235.25 68 c 128
 256.416992188 57.3330078125 281 52 309 52 c 0
 333 52 355.75 55.75 377.25 63.25 c 128
 398.75 70.75 420.5 81.8330078125 442.5 96.5 c 1
 442.5 38 l 1
EndSplineSet
EndChar

StartChar: d
Encoding: 100 100 50
Width: 577
VWidth: 1024
GlyphClass: 2
Flags: HW
LayerCount: 2
Back
Fore
SplineSet
390 441.5 m 1
 385.666992188 442.833007812 380.083007812 444.416992188 373.25 446.25 c 128
 366.416992188 448.083007812 359.083007812 449.75 351.25 451.25 c 128
 343.416992188 452.75 335.25 454 326.75 455 c 128
 318.25 456 310.333007812 456.5 303 456.5 c 0
 277.666992188 456.5 254.666992188 451.583007812 234 441.75 c 128
 213.333007812 431.916992188 195.75 418.083007812 181.25 400.25 c 128
 166.75 382.416992188 155.583007812 360.833007812 147.75 335.5 c 128
 139.916992188 310.166992188 136 282 136 251 c 0
 136 223 139.333007812 197.25 146 173.75 c 128
 152.666992188 150.25 162.333007812 129.833007812 175 112.5 c 128
 187.666992188 95.1669921875 203.166992188 81.6669921875 221.5 72 c 128
 239.833007812 62.3330078125 260.833007812 57.5 284.5 57.5 c 0
 294.833007812 57.5 304.833007812 58.5830078125 314.5 60.75 c 128
 324.166992188 62.9169921875 333.5 65.75 342.5 69.25 c 128
 351.5 72.75 360 76.5830078125 368 80.75 c 128
 376 84.9169921875 383.333007812 89 390 93 c 1
 390 441.5 l 1
390 0 m 1
 390 54.5 l 1
 378.333007812 45.5 366.25 36.9169921875 353.75 28.75 c 128
 341.25 20.5830078125 328.416992188 13.5 315.25 7.5 c 128
 302.083007812 1.5 288.583007812 -3.3330078125 274.75 -7 c 128
 260.916992188 -10.6669921875 246.5 -12.5 231.5 -12.5 c 0
 197.166992188 -12.5 167.583007812 -5.0830078125 142.75 9.75 c 128
 117.916992188 24.5830078125 97.5 43.75 81.5 67.25 c 128
 65.5 90.75 53.75 117.083007812 46.25 146.25 c 128
 38.75 175.416992188 35 204.5 35 233.5 c 0
 35 268.166992188 40.3330078125 301.916992188 51 334.75 c 128
 61.6669921875 367.583007812 77.8330078125 396.666992188 99.5 422 c 128
 121.166992188 447.333007812 148.333007812 467.666992188 181 483 c 128
 213.666992188 498.333007812 252 506 296 506 c 0
 304 506 312.666992188 505.5 322 504.5 c 128
 331.333007812 503.5 340.416992188 502.416992188 349.25 501.25 c 128
 358.083007812 500.083007812 366.083007812 498.75 373.25 497.25 c 128
 380.416992188 495.75 386 494.5 390 493.5 c 1
 390 681 l 1
 312.5 681 l 1
 312.5 715 l 1
 444.5 754.5 l 1
 485.5 754.5 l 1
 485.5 65.5 l 2
 485.5 59.1669921875 487.5 54 491.5 50 c 128
 495.5 46 500.666992188 43.6669921875 507 43 c 2
 551 40 l 1
 551 0 l 1
 390 0 l 1
EndSplineSet
EndChar

StartChar: e
Encoding: 101 101 51
Width: 502
VWidth: 1024
GlyphClass: 2
Flags: HW
LayerCount: 2
Back
Fore
SplineSet
467 51 m 1
 452.666992188 42 437.75 33.6669921875 422.25 26 c 128
 406.75 18.3330078125 390.75 11.6669921875 374.25 6 c 128
 357.75 0.3330078125 341 -4.1669921875 324 -7.5 c 128
 307 -10.8330078125 289.833007812 -12.5 272.5 -12.5 c 0
 241.5 -12.5 211.666992188 -7.25 183 3.25 c 128
 154.333007812 13.75 129.083007812 29.5 107.25 50.5 c 128
 85.4169921875 71.5 67.9169921875 97.9169921875 54.75 129.75 c 128
 41.5830078125 161.583007812 35 198.833007812 35 241.5 c 0
 35 281.5 41 317.75 53 350.25 c 128
 65 382.75 81.6669921875 410.583007812 103 433.75 c 128
 124.333007812 456.916992188 149.666992188 474.75 179 487.25 c 128
 208.333007812 499.75 240.5 506 275.5 506 c 0
 307.166992188 506 335 500.75 359 490.25 c 128
 383 479.75 403 465.25 419 446.75 c 128
 435 428.25 447 406.083007812 455 380.25 c 128
 463 354.416992188 467 326.333007812 467 296 c 2
 467 282.5 l 2
 467 277.166992188 466.666992188 272.166992188 466 267.5 c 1
 134 267.5 l 1
 134 241.5 136.75 215.5 142.25 189.5 c 128
 147.75 163.5 157 140.166992188 170 119.5 c 128
 183 98.8330078125 200.5 82.0830078125 222.5 69.25 c 128
 244.5 56.4169921875 272 50 305 50 c 0
 319.666992188 50 334.166992188 51.9169921875 348.5 55.75 c 128
 362.833007812 59.5830078125 376.916992188 64.5 390.75 70.5 c 128
 404.583007812 76.5 417.833007812 83.25 430.5 90.75 c 128
 443.166992188 98.25 455.333007812 105.833007812 467 113.5 c 1
 467 51 l 1
364.5 336 m 2
 364.5 353 362.5 368.75 358.5 383.25 c 128
 354.5 397.75 348.416992188 410.333007812 340.25 421 c 128
 332.083007812 431.666992188 321.75 440.083007812 309.25 446.25 c 128
 296.75 452.416992188 282 455.5 265 455.5 c 256
 248 455.5 232.166992188 452.25 217.5 445.75 c 128
 202.833007812 439.25 189.916992188 429.833007812 178.75 417.5 c 128
 167.583007812 405.166992188 158.583007812 390.25 151.75 372.75 c 128
 144.916992188 355.25 140.833007812 335.5 139.5 313.5 c 1
 364.5 313.5 l 1
 364.5 336 l 2
EndSplineSet
EndChar

StartChar: f
Encoding: 102 102 52
Width: 334
VWidth: 1024
GlyphClass: 2
Flags: HW
LayerCount: 2
Back
Fore
SplineSet
398.5 693 m 0
 398.5 682.666992188 396.416992188 674.083007812 392.25 667.25 c 128
 388.083007812 660.416992188 383.25 654.916992188 377.75 650.75 c 128
 372.25 646.583007812 366.916992188 643.5 361.75 641.5 c 128
 356.583007812 639.5 353 638.333007812 351 638 c 1
 350.333007812 638.666992188 347.583007812 640.75 342.75 644.25 c 128
 337.916992188 647.75 332.083007812 651.916992188 325.25 656.75 c 128
 318.416992188 661.583007812 311.083007812 666.666992188 303.25 672 c 128
 295.416992188 677.333007812 288.166992188 682.416992188 281.5 687.25 c 128
 274.833007812 692.083007812 269.166992188 696.083007812 264.5 699.25 c 128
 259.833007812 702.416992188 257.333007812 704.166992188 257 704.5 c 1
 249.666992188 700.5 242.416992188 694.833007812 235.25 687.5 c 128
 228.083007812 680.166992188 221.583007812 670.333007812 215.75 658 c 128
 209.916992188 645.666992188 205.25 630.75 201.75 613.25 c 128
 198.25 595.75 196.5 575 196.5 551 c 2
 196.5 485.5 l 1
 323.5 485.5 l 1
 323.5 433 l 1
 196.5 433 l 1
 196.5 65.5 l 2
 196.5 59.1669921875 198.583007812 54 202.75 50 c 128
 206.916992188 46 212 43.6669921875 218 43 c 1
 278.5 40 l 1
 278.5 0 l 1
 29.5 0 l 1
 29.5 40 l 1
 80 43 l 2
 86 43.6669921875 91.0830078125 46 95.25 50 c 128
 99.4169921875 54 101.5 59.1669921875 101.5 65.5 c 2
 101.5 433 l 1
 36 433 l 1
 36 469 l 1
 101.5 487.5 l 1
 101.5 504.5 102.083007812 519.75 103.25 533.25 c 128
 104.416992188 546.75 106.416992188 559.416992188 109.25 571.25 c 128
 112.083007812 583.083007812 115.666992188 594.583007812 120 605.75 c 128
 124.333007812 616.916992188 129.666992188 628.666992188 136 641 c 0
 146 660.333007812 157.583007812 677.083007812 170.75 691.25 c 128
 183.916992188 705.416992188 198.083007812 717.166992188 213.25 726.5 c 128
 228.416992188 735.833007812 244.25 742.833007812 260.75 747.5 c 128
 277.25 752.166992188 293.833007812 754.5 310.5 754.5 c 0
 324.833007812 754.5 337.5 752.833007812 348.5 749.5 c 128
 359.5 746.166992188 368.75 741.666992188 376.25 736 c 128
 383.75 730.333007812 389.333007812 723.833007812 393 716.5 c 128
 396.666992188 709.166992188 398.5 701.333007812 398.5 693 c 0
EndSplineSet
EndChar

StartChar: g
Encoding: 103 103 53
Width: 537
VWidth: 1024
GlyphClass: 2
Flags: HW
LayerCount: 2
Back
Fore
SplineSet
405.5 -68.5 m 0
 405.5 -54.5 402 -42.5830078125 395 -32.75 c 128
 388 -22.9169921875 378.75 -14.8330078125 367.25 -8.5 c 128
 355.75 -2.1669921875 342.75 2.9169921875 328.25 6.75 c 128
 313.75 10.5830078125 299.083007812 13.75 284.25 16.25 c 128
 269.416992188 18.75 255.083007812 20.75 241.25 22.25 c 128
 227.416992188 23.75 215.333007812 25.5 205 27.5 c 1
 190 22.1669921875 177.5 15.75 167.5 8.25 c 128
 157.5 0.75 149.5 -7.3330078125 143.5 -16 c 128
 137.5 -24.6669921875 133.25 -33.5 130.75 -42.5 c 128
 128.25 -51.5 127 -60.1669921875 127 -68.5 c 0
 127 -80.8330078125 129.666992188 -94 135 -108 c 128
 140.333007812 -122 148.5 -134.833007812 159.5 -146.5 c 128
 170.5 -158.166992188 184.416992188 -167.916992188 201.25 -175.75 c 128
 218.083007812 -183.583007812 238 -187.5 261 -187.5 c 0
 285.333007812 -187.5 306.583007812 -183.583007812 324.75 -175.75 c 128
 342.916992188 -167.916992188 358 -158.166992188 370 -146.5 c 128
 382 -134.833007812 390.916992188 -122 396.75 -108 c 128
 402.583007812 -94 405.5 -80.8330078125 405.5 -68.5 c 0
348 339 m 0
 348 355 345.916992188 370.583007812 341.75 385.75 c 128
 337.583007812 400.916992188 331.5 414.25 323.5 425.75 c 128
 315.5 437.25 305.583007812 446.5 293.75 453.5 c 128
 281.916992188 460.5 268.333007812 464 253 464 c 0
 238.666992188 464 225.5 461.166992188 213.5 455.5 c 128
 201.5 449.833007812 191.25 441.583007812 182.75 430.75 c 128
 174.25 419.916992188 167.583007812 406.666992188 162.75 391 c 128
 157.916992188 375.333007812 155.5 357.666992188 155.5 338 c 0
 155.5 321 157.583007812 304.916992188 161.75 289.75 c 128
 165.916992188 274.583007812 172.083007812 261.333007812 180.25 250 c 128
 188.416992188 238.666992188 198.583007812 229.666992188 210.75 223 c 128
 222.916992188 216.333007812 237 213 253 213 c 0
 268.333007812 213 281.916992188 216.333007812 293.75 223 c 128
 305.583007812 229.666992188 315.5 238.666992188 323.5 250 c 128
 331.5 261.333007812 337.583007812 274.666992188 341.75 290 c 128
 345.916992188 305.333007812 348 321.666992188 348 339 c 0
418 425 m 1
 425.666992188 412.666992188 432.166992188 399.25 437.5 384.75 c 128
 442.833007812 370.25 445.5 353 445.5 333 c 0
 445.5 306 439.333007812 282 427 261 c 128
 414.666992188 240 398.25 222.5 377.75 208.5 c 128
 357.25 194.5 333.75 184.25 307.25 177.75 c 128
 280.75 171.25 253.166992188 169 224.5 171 c 1
 220.5 164.333007812 217.75 157.166992188 216.25 149.5 c 128
 214.75 141.833007812 213.916992188 134.666992188 213.75 128 c 128
 213.583007812 121.333007812 213.833007812 115.583007812 214.5 110.75 c 128
 215.166992188 105.916992188 215.666992188 103.166992188 216 102.5 c 1
 231.333007812 100.833007812 248.833007812 99 268.5 97 c 128
 288.166992188 95 308.25 92.0830078125 328.75 88.25 c 128
 349.25 84.4169921875 369.416992188 79.3330078125 389.25 73 c 128
 409.083007812 66.6669921875 426.666992188 58.4169921875 442 48.25 c 128
 457.333007812 38.0830078125 469.75 25.75 479.25 11.25 c 128
 488.75 -3.25 493.5 -20.6669921875 493.5 -41 c 0
 493.5 -65.3330078125 486.583007812 -89.0830078125 472.75 -112.25 c 128
 458.916992188 -135.416992188 440 -156.083007812 416 -174.25 c 128
 392 -192.416992188 363.833007812 -207 331.5 -218 c 128
 299.166992188 -229 264.5 -234.5 227.5 -234.5 c 0
 196.833007812 -234.5 169.583007812 -230.833007812 145.75 -223.5 c 128
 121.916992188 -216.166992188 101.833007812 -206 85.5 -193 c 128
 69.1669921875 -180 56.6669921875 -164.583007812 48 -146.75 c 128
 39.3330078125 -128.916992188 35 -109.666992188 35 -89 c 0
 35 -74 37.1669921875 -59.75 41.5 -46.25 c 128
 45.8330078125 -32.75 52.5 -20.5830078125 61.5 -9.75 c 128
 70.5 1.0830078125 81.75 10.4169921875 95.25 18.25 c 128
 108.75 26.0830078125 124.833007812 31.6669921875 143.5 35 c 1
 141.5 40.3330078125 139.833007812 44.75 138.5 48.25 c 128
 137.166992188 51.75 136.083007812 55.0830078125 135.25 58.25 c 128
 134.416992188 61.4169921875 133.833007812 64.75 133.5 68.25 c 128
 133.166992188 71.75 133 76.3330078125 133 82 c 0
 133 95.3330078125 137.083007812 110.083007812 145.25 126.25 c 128
 153.416992188 142.416992188 166.5 159.666992188 184.5 178 c 1
 167.5 182 151.333007812 188.333007812 136 197 c 128
 120.666992188 205.666992188 107.166992188 216.583007812 95.5 229.75 c 128
 83.8330078125 242.916992188 74.5830078125 258.083007812 67.75 275.25 c 128
 60.9169921875 292.416992188 57.5 311.333007812 57.5 332 c 0
 57.5 359 62.5 383.25 72.5 404.75 c 128
 82.5 426.25 96.5 444.5 114.5 459.5 c 128
 132.5 474.5 154.083007812 486 179.25 494 c 128
 204.416992188 502 232.333007812 506 263 506 c 0
 275 506 286.75 505 298.25 503 c 128
 309.75 501 320.583007812 498.416992188 330.75 495.25 c 128
 340.916992188 492.083007812 350.333007812 488.666992188 359 485 c 128
 367.666992188 481.333007812 375.333007812 478 382 475 c 1
 520 475 l 1
 520 425 l 1
 418 425 l 1
EndSplineSet
EndChar

StartChar: h
Encoding: 104 104 54
Width: 588
VWidth: 1024
GlyphClass: 2
Flags: HW
LayerCount: 2
Back
Fore
SplineSet
336 0 m 1
 336 40 l 1
 378 43 l 2
 384 43.6669921875 389.25 46 393.75 50 c 128
 398.25 54 400.5 59.1669921875 400.5 65.5 c 2
 400.5 329.5 l 2
 400.5 344.166992188 398.916992188 357.666992188 395.75 370 c 128
 392.583007812 382.333007812 387.083007812 393 379.25 402 c 128
 371.416992188 411 361 418.083007812 348 423.25 c 128
 335 428.416992188 318.666992188 431 299 431 c 0
 290 431 280.5 430.25 270.5 428.75 c 128
 260.5 427.25 250.583007812 425.166992188 240.75 422.5 c 128
 230.916992188 419.833007812 221.416992188 416.666992188 212.25 413 c 128
 203.083007812 409.333007812 194.833007812 405.5 187.5 401.5 c 1
 187.5 65.5 l 2
 187.5 59.1669921875 189.333007812 54 193 50 c 128
 196.666992188 46 201.666992188 43.6669921875 208 43 c 2
 252 40 l 1
 252 0 l 1
 21.5 0 l 1
 21.5 40 l 1
 70.5 43 l 2
 76.8330078125 43.6669921875 82 46 86 50 c 128
 90 54 92 59.1669921875 92 65.5 c 2
 92 681 l 1
 15.5 681 l 1
 15.5 715 l 1
 146.5 754.5 l 1
 187.5 754.5 l 1
 187.5 442.5 l 1
 196.833007812 448.166992188 208.333007812 454.666992188 222 462 c 128
 235.666992188 469.333007812 250.25 476.25 265.75 482.75 c 128
 281.25 489.25 296.916992188 494.75 312.75 499.25 c 128
 328.583007812 503.75 343.166992188 506 356.5 506 c 0
 376.166992188 506 394.416992188 502.833007812 411.25 496.5 c 128
 428.083007812 490.166992188 442.75 480.666992188 455.25 468 c 128
 467.75 455.333007812 477.583007812 439.25 484.75 419.75 c 128
 491.916992188 400.25 495.5 377.333007812 495.5 351 c 2
 495.5 65.5 l 2
 495.5 59.1669921875 497.75 54 502.25 50 c 128
 506.75 46 512 43.6669921875 518 43 c 2
 564 40 l 1
 564 0 l 1
 336 0 l 1
EndSplineSet
EndChar

StartChar: i
Encoding: 105 105 55
Width: 310
VWidth: 1024
GlyphClass: 2
Flags: HW
LayerCount: 2
Back
Fore
SplineSet
35 0 m 1
 35 40 l 1
 85 43 l 2
 91.3330078125 43.6669921875 96.5 46 100.5 50 c 128
 104.5 54 106.5 59.1669921875 106.5 65.5 c 2
 106.5 431 l 1
 36 431 l 1
 36 467 l 1
 161 506 l 1
 201.5 506 l 1
 201.5 65.5 l 2
 201.5 59.1669921875 203.583007812 54 207.75 50 c 128
 211.916992188 46 217 43.6669921875 223 43 c 2
 275.5 40 l 1
 275.5 0 l 1
 35 0 l 1
223 662.5 m 256
 223 653.833007812 221.416992188 645.583007812 218.25 637.75 c 128
 215.083007812 629.916992188 210.666992188 623.166992188 205 617.5 c 128
 199.333007812 611.833007812 192.75 607.333007812 185.25 604 c 128
 177.75 600.666992188 169.666992188 599 161 599 c 256
 152.333007812 599 144.083007812 600.666992188 136.25 604 c 128
 128.416992188 607.333007812 121.666992188 611.833007812 116 617.5 c 128
 110.333007812 623.166992188 105.833007812 629.916992188 102.5 637.75 c 128
 99.1669921875 645.583007812 97.5 653.833007812 97.5 662.5 c 256
 97.5 671.166992188 99.1669921875 679.333007812 102.5 687 c 128
 105.833007812 694.666992188 110.333007812 701.333007812 116 707 c 128
 121.666992188 712.666992188 128.416992188 717.083007812 136.25 720.25 c 128
 144.083007812 723.416992188 152.333007812 725 161 725 c 256
 169.666992188 725 177.75 723.416992188 185.25 720.25 c 128
 192.75 717.083007812 199.333007812 712.666992188 205 707 c 128
 210.666992188 701.333007812 215.083007812 694.666992188 218.25 687 c 128
 221.416992188 679.333007812 223 671.166992188 223 662.5 c 256
EndSplineSet
EndChar

StartChar: j
Encoding: 106 106 56
Width: 299
VWidth: 1024
GlyphClass: 2
Flags: HW
LayerCount: 2
Back
Fore
SplineSet
207 65.5 m 2
 207 50.1669921875 206.5 33.4169921875 205.5 15.25 c 128
 204.5 -2.9169921875 202.583007812 -21.1669921875 199.75 -39.5 c 128
 196.916992188 -57.8330078125 192.916992188 -75.6669921875 187.75 -93 c 128
 182.583007812 -110.333007812 175.666992188 -125.833007812 167 -139.5 c 0
 146 -171.833007812 120.5 -195.75 90.5 -211.25 c 128
 60.5 -226.75 29.3330078125 -234.5 -3 -234.5 c 0
 -13.6669921875 -234.5 -23.6669921875 -233.416992188 -33 -231.25 c 128
 -42.3330078125 -229.083007812 -50.5830078125 -225.666992188 -57.75 -221 c 128
 -64.9169921875 -216.333007812 -70.5830078125 -210.416992188 -74.75 -203.25 c 128
 -78.9169921875 -196.083007812 -81 -187.666992188 -81 -178 c 0
 -81 -169.333007812 -79.6669921875 -161.75 -77 -155.25 c 128
 -74.3330078125 -148.75 -70.9169921875 -143.083007812 -66.75 -138.25 c 128
 -62.5830078125 -133.416992188 -57.8330078125 -129.416992188 -52.5 -126.25 c 128
 -47.1669921875 -123.083007812 -42 -120.666992188 -37 -119 c 1
 62.5 -187.5 l 1
 71.8330078125 -182.166992188 79.6669921875 -174.25 86 -163.75 c 128
 92.3330078125 -153.25 97.4169921875 -140.75 101.25 -126.25 c 128
 105.083007812 -111.75 107.75 -95.5830078125 109.25 -77.75 c 128
 110.75 -59.9169921875 111.5 -41.1669921875 111.5 -21.5 c 2
 111.5 433 l 1
 39 433 l 1
 39 467 l 1
 165 506 l 1
 207 506 l 1
 207 65.5 l 2
218 662.5 m 256
 218 653.833007812 216.416992188 645.583007812 213.25 637.75 c 128
 210.083007812 629.916992188 205.666992188 623.166992188 200 617.5 c 128
 194.333007812 611.833007812 187.666992188 607.333007812 180 604 c 128
 172.333007812 600.666992188 164.166992188 599 155.5 599 c 256
 146.833007812 599 138.666992188 600.666992188 131 604 c 128
 123.333007812 607.333007812 116.583007812 611.833007812 110.75 617.5 c 128
 104.916992188 623.166992188 100.333007812 629.916992188 97 637.75 c 128
 93.6669921875 645.583007812 92 653.833007812 92 662.5 c 256
 92 671.166992188 93.6669921875 679.333007812 97 687 c 128
 100.333007812 694.666992188 104.916992188 701.333007812 110.75 707 c 128
 116.583007812 712.666992188 123.333007812 717.083007812 131 720.25 c 128
 138.666992188 723.416992188 146.833007812 725 155.5 725 c 256
 164.166992188 725 172.333007812 723.416992188 180 720.25 c 128
 187.666992188 717.083007812 194.333007812 712.666992188 200 707 c 128
 205.666992188 701.333007812 210.083007812 694.666992188 213.25 687 c 128
 216.416992188 679.333007812 218 671.166992188 218 662.5 c 256
EndSplineSet
EndChar

StartChar: k
Encoding: 107 107 57
Width: 547
VWidth: 1024
GlyphClass: 2
Flags: HW
LayerCount: 2
Back
Fore
SplineSet
372.5 0 m 1
 372.5 40 l 1
 244.5 232.5 l 1
 187.5 232.5 l 1
 187.5 65.5 l 2
 187.5 59.1669921875 189.5 54 193.5 50 c 128
 197.5 46 202.666992188 43.6669921875 209 43 c 2
 253 40 l 1
 253 0 l 1
 20.5 0 l 1
 20.5 40 l 1
 70.5 43 l 2
 76.8330078125 43.6669921875 82 46 86 50 c 128
 90 54 92 59.1669921875 92 65.5 c 2
 92 681 l 1
 14.5 681 l 1
 14.5 715 l 1
 145.5 754.5 l 1
 187.5 754.5 l 1
 187.5 262 l 1
 208 262 l 1
 358.5 432 l 2
 361.166992188 435.333007812 361.583007812 438.916992188 359.75 442.75 c 128
 357.916992188 446.583007812 354.666992188 448.833007812 350 449.5 c 2
 308 453.5 l 1
 308 493.5 l 1
 507 493.5 l 1
 507 453.5 l 1
 441.5 446.5 l 1
 306 302 l 1
 482.5 46 l 1
 536.5 40 l 1
 536.5 0 l 1
 372.5 0 l 1
EndSplineSet
EndChar

StartChar: l
Encoding: 108 108 58
Width: 304
VWidth: 1024
GlyphClass: 2
Flags: HW
LayerCount: 2
Back
Fore
SplineSet
27.5 0 m 1
 27.5 40 l 1
 82 43 l 2
 86.6669921875 43 91.5830078125 45.4169921875 96.75 50.25 c 128
 101.916992188 55.0830078125 104.5 59.8330078125 104.5 64.5 c 2
 104.5 681 l 1
 26.5 681 l 1
 26.5 715 l 1
 157.5 754.5 l 1
 199.5 754.5 l 1
 199.5 64.5 l 2
 199.5 59.8330078125 201.916992188 55.0830078125 206.75 50.25 c 128
 211.583007812 45.4169921875 216.333007812 43 221 43 c 2
 276.5 40 l 1
 276.5 0 l 1
 27.5 0 l 1
EndSplineSet
EndChar

StartChar: m
Encoding: 109 109 59
Width: 870
VWidth: 1024
GlyphClass: 2
Flags: HW
LayerCount: 2
Back
Fore
SplineSet
618.5 0 m 1
 618.5 40 l 1
 661.5 43 l 2
 667.833007812 43.6669921875 673 46 677 50 c 128
 681 54 683 59.1669921875 683 65.5 c 2
 683 326.5 l 2
 683 342.5 681.5 356.916992188 678.5 369.75 c 128
 675.5 382.583007812 670.416992188 393.5 663.25 402.5 c 128
 656.083007812 411.5 646.666992188 418.5 635 423.5 c 128
 623.333007812 428.5 609 431 592 431 c 0
 583.333007812 431 574.25 430.25 564.75 428.75 c 128
 555.25 427.25 545.75 425.25 536.25 422.75 c 128
 526.75 420.25 517.416992188 417.25 508.25 413.75 c 128
 499.083007812 410.25 490.5 406.5 482.5 402.5 c 1
 482.5 65.5 l 2
 482.5 59.1669921875 484.5 54 488.5 50 c 128
 492.5 46 497.666992188 43.6669921875 504 43 c 2
 547 40 l 1
 547 0 l 1
 322.5 0 l 1
 322.5 40 l 1
 365.5 43 l 2
 371.833007812 43.6669921875 377 46 381 50 c 128
 385 54 387 59.1669921875 387 65.5 c 2
 387 333 l 2
 387 347.333007812 385.416992188 360.583007812 382.25 372.75 c 128
 379.083007812 384.916992188 373.916992188 395.25 366.75 403.75 c 128
 359.583007812 412.25 350.25 418.916992188 338.75 423.75 c 128
 327.25 428.583007812 313.333007812 431 297 431 c 0
 287.333007812 431 277.25 430.083007812 266.75 428.25 c 128
 256.25 426.416992188 246.166992188 424.083007812 236.5 421.25 c 128
 226.833007812 418.416992188 217.75 415.25 209.25 411.75 c 128
 200.75 408.25 193.5 404.833007812 187.5 401.5 c 1
 187.5 65.5 l 2
 187.5 59.1669921875 189.5 54 193.5 50 c 128
 197.5 46 202.666992188 43.6669921875 209 43 c 2
 252 40 l 1
 252 0 l 1
 20.5 0 l 1
 20.5 40 l 1
 70.5 43 l 2
 76.8330078125 43.6669921875 82 46 86 50 c 128
 90 54 92 59.1669921875 92 65.5 c 2
 92 421 l 1
 21.5 421 l 1
 21.5 454.5 l 1
 145.5 493.5 l 1
 187.5 493.5 l 1
 187.5 442.5 l 1
 198.833007812 449.5 211.416992188 456.666992188 225.25 464 c 128
 239.083007812 471.333007812 253.333007812 478.166992188 268 484.5 c 128
 282.666992188 490.833007812 297.416992188 496 312.25 500 c 128
 327.083007812 504 341.166992188 506 354.5 506 c 0
 369.166992188 506 382.5 503.916992188 394.5 499.75 c 128
 406.5 495.583007812 417.083007812 490.083007812 426.25 483.25 c 128
 435.416992188 476.416992188 443.416992188 468.75 450.25 460.25 c 128
 457.083007812 451.75 462.666992188 443.333007812 467 435 c 1
 477.333007812 441.333007812 489.833007812 448.666992188 504.5 457 c 128
 519.166992188 465.333007812 534.666992188 473.083007812 551 480.25 c 128
 567.333007812 487.416992188 583.666992188 493.5 600 498.5 c 128
 616.333007812 503.5 631.333007812 506 645 506 c 0
 672 506 694 501.083007812 711 491.25 c 128
 728 481.416992188 741.416992188 468.916992188 751.25 453.75 c 128
 761.083007812 438.583007812 767.833007812 421.666992188 771.5 403 c 128
 775.166992188 384.333007812 777 366.333007812 777 349 c 2
 777 65.5 l 2
 777 59.1669921875 779.083007812 54 783.25 50 c 128
 787.416992188 46 792.5 43.6669921875 798.5 43 c 2
 848 40 l 1
 848 0 l 1
 618.5 0 l 1
EndSplineSet
EndChar

StartChar: n
Encoding: 110 110 60
Width: 580
VWidth: 1024
GlyphClass: 2
Flags: HW
LayerCount: 2
Back
Fore
SplineSet
334 0 m 1
 334 40 l 1
 377 43 l 2
 383 43.6669921875 388.083007812 46 392.25 50 c 128
 396.416992188 54 398.5 59.1669921875 398.5 65.5 c 2
 398.5 332 l 2
 398.5 364.333007812 391 388.916992188 376 405.75 c 128
 361 422.583007812 335.666992188 431 300 431 c 0
 280.333007812 431 261 428.25 242 422.75 c 128
 223 417.25 204.833007812 410.166992188 187.5 401.5 c 1
 187.5 65.5 l 2
 187.5 59.1669921875 189.5 54 193.5 50 c 128
 197.5 46 202.666992188 43.6669921875 209 43 c 2
 252 40 l 1
 252 0 l 1
 20.5 0 l 1
 20.5 40 l 1
 70.5 43 l 2
 76.8330078125 43.6669921875 82 46 86 50 c 128
 90 54 92 59.1669921875 92 65.5 c 2
 92 421 l 1
 20.5 421 l 1
 20.5 454.5 l 1
 145.5 493.5 l 1
 187.5 493.5 l 1
 187.5 442.5 l 1
 201.833007812 450.5 216.416992188 458.333007812 231.25 466 c 128
 246.083007812 473.666992188 260.833007812 480.5 275.5 486.5 c 128
 290.166992188 492.5 304.333007812 497.25 318 500.75 c 128
 331.666992188 504.25 344.5 506 356.5 506 c 0
 401.166992188 506 435.166992188 492.166992188 458.5 464.5 c 128
 481.833007812 436.833007812 493.5 398 493.5 348 c 2
 493.5 65.5 l 2
 493.5 59.1669921875 495.583007812 54 499.75 50 c 128
 503.916992188 46 509 43.6669921875 515 43 c 2
 560 40 l 1
 560 0 l 1
 334 0 l 1
EndSplineSet
EndChar

StartChar: o
Encoding: 111 111 61
Width: 557
VWidth: 1024
GlyphClass: 2
Flags: HW
LayerCount: 2
Back
Fore
SplineSet
415.5 247 m 256
 415.5 275 412.75 301.833007812 407.25 327.5 c 128
 401.75 353.166992188 393.333007812 375.833007812 382 395.5 c 128
 370.666992188 415.166992188 356.5 430.833007812 339.5 442.5 c 128
 322.5 454.166992188 302.5 460 279.5 460 c 0
 255.833007812 460 235.333007812 454.166992188 218 442.5 c 128
 200.666992188 430.833007812 186.416992188 415.166992188 175.25 395.5 c 128
 164.083007812 375.833007812 155.833007812 353.166992188 150.5 327.5 c 128
 145.166992188 301.833007812 142.5 275 142.5 247 c 0
 142.5 219.333007812 145.25 192.666992188 150.75 167 c 128
 156.25 141.333007812 164.666992188 118.666992188 176 99 c 128
 187.333007812 79.3330078125 201.5 63.5830078125 218.5 51.75 c 128
 235.5 39.9169921875 255.5 34 278.5 34 c 0
 301.833007812 34 322.166992188 39.8330078125 339.5 51.5 c 128
 356.833007812 63.1669921875 371.083007812 78.8330078125 382.25 98.5 c 128
 393.416992188 118.166992188 401.75 140.833007812 407.25 166.5 c 128
 412.75 192.166992188 415.5 219 415.5 247 c 256
522 246 m 0
 522 209.666992188 516.25 175.75 504.75 144.25 c 128
 493.25 112.75 476.916992188 85.4169921875 455.75 62.25 c 128
 434.583007812 39.0830078125 408.916992188 20.8330078125 378.75 7.5 c 128
 348.583007812 -5.8330078125 314.833007812 -12.5 277.5 -12.5 c 256
 240.166992188 -12.5 206.5 -5.9169921875 176.5 7.25 c 128
 146.5 20.4169921875 121 38.5 100 61.5 c 128
 79 84.5 62.9169921875 111.75 51.75 143.25 c 128
 40.5830078125 174.75 35 209 35 246 c 0
 35 282.333007812 40.6669921875 316.333007812 52 348 c 128
 63.3330078125 379.666992188 79.6669921875 407.25 101 430.75 c 128
 122.333007812 454.25 148.083007812 472.666992188 178.25 486 c 128
 208.416992188 499.333007812 242.5 506 280.5 506 c 256
 318.5 506 352.5 499.166992188 382.5 485.5 c 128
 412.5 471.833007812 437.833007812 453.25 458.5 429.75 c 128
 479.166992188 406.25 494.916992188 378.75 505.75 347.25 c 128
 516.583007812 315.75 522 282 522 246 c 0
EndSplineSet
EndChar

StartChar: p
Encoding: 112 112 62
Width: 572
VWidth: 1024
GlyphClass: 2
Flags: HW
LayerCount: 2
Back
Fore
SplineSet
435 239.5 m 0
 435 265.833007812 431.916992188 290.75 425.75 314.25 c 128
 419.583007812 337.75 410.5 358.416992188 398.5 376.25 c 128
 386.5 394.083007812 371.583007812 408.166992188 353.75 418.5 c 128
 335.916992188 428.833007812 315.333007812 434 292 434 c 0
 279 434 266.25 432.333007812 253.75 429 c 128
 241.25 425.666992188 230.166992188 422.166992188 220.5 418.5 c 0
 209.166992188 414.166992188 198.166992188 409.166992188 187.5 403.5 c 1
 187.5 51 l 1
 195.5 48 204 45.3330078125 213 43 c 0
 220.666992188 41 229.5 39.1669921875 239.5 37.5 c 128
 249.5 35.8330078125 259.833007812 35 270.5 35 c 0
 298.5 35 322.833007812 40.6669921875 343.5 52 c 128
 364.166992188 63.3330078125 381.25 78.4169921875 394.75 97.25 c 128
 408.25 116.083007812 418.333007812 137.833007812 425 162.5 c 128
 431.666992188 187.166992188 435 212.833007812 435 239.5 c 0
537.5 254 m 0
 537.5 213.666992188 531.583007812 177.083007812 519.75 144.25 c 128
 507.916992188 111.416992188 490.916992188 83.4169921875 468.75 60.25 c 128
 446.583007812 37.0830078125 419.416992188 19.1669921875 387.25 6.5 c 128
 355.083007812 -6.1669921875 318.833007812 -12.5 278.5 -12.5 c 0
 269.166992188 -12.5 259.166992188 -12.0830078125 248.5 -11.25 c 128
 237.833007812 -10.4169921875 228 -9.3330078125 219 -8 c 0
 208.333007812 -6.6669921875 197.833007812 -5 187.5 -3 c 1
 187.5 -155.5 l 2
 187.5 -161.833007812 189.666992188 -166.833007812 194 -170.5 c 128
 198.333007812 -174.166992188 203.666992188 -176.333007812 210 -177 c 2
 270.5 -183.5 l 1
 270.5 -223 l 1
 21.5 -223 l 1
 21.5 -183.5 l 1
 70.5 -177 l 2
 76.8330078125 -176.333007812 82 -174.166992188 86 -170.5 c 128
 90 -166.833007812 92 -161.833007812 92 -155.5 c 2
 92 421 l 1
 21.5 421 l 1
 21.5 454.5 l 1
 147.5 493.5 l 1
 187.5 493.5 l 1
 187.5 442.5 l 1
 202.166992188 454.166992188 217.833007812 464.666992188 234.5 474 c 0
 248.833007812 482 265.333007812 489.333007812 284 496 c 128
 302.666992188 502.666992188 322 506 342 506 c 0
 368.333007812 506 393.333007812 500 417 488 c 128
 440.666992188 476 461.416992188 459 479.25 437 c 128
 497.083007812 415 511.25 388.5 521.75 357.5 c 128
 532.25 326.5 537.5 292 537.5 254 c 0
EndSplineSet
EndChar

StartChar: q
Encoding: 113 113 63
Width: 562
VWidth: 1024
GlyphClass: 2
Flags: HW
LayerCount: 2
Back
Fore
SplineSet
381 447.5 m 1
 371.666992188 449.5 361.083007812 451.916992188 349.25 454.75 c 128
 337.416992188 457.583007812 324.5 459 310.5 459 c 0
 282.5 459 257.75 454 236.25 444 c 128
 214.75 434 196.75 419.916992188 182.25 401.75 c 128
 167.75 383.583007812 156.75 361.75 149.25 336.25 c 128
 141.75 310.75 138 282.333007812 138 251 c 0
 138 224.666992188 140.916992188 199.25 146.75 174.75 c 128
 152.583007812 150.25 161.75 128.666992188 174.25 110 c 128
 186.75 91.3330078125 202.75 76.3330078125 222.25 65 c 128
 241.75 53.6669921875 265.333007812 48 293 48 c 0
 299.333007812 48 306.416992188 48.4169921875 314.25 49.25 c 128
 322.083007812 50.0830078125 330 51.1669921875 338 52.5 c 128
 346 53.8330078125 353.75 55.4169921875 361.25 57.25 c 128
 368.75 59.0830078125 375.333007812 60.8330078125 381 62.5 c 1
 381 447.5 l 1
299 -223 m 1
 299 -184.5 l 1
 359.5 -179 l 2
 365.5 -178.333007812 370.583007812 -176.166992188 374.75 -172.5 c 128
 378.916992188 -168.833007812 381 -163.833007812 381 -157.5 c 2
 381 27.5 l 1
 371.333007812 22.8330078125 360.666992188 18.1669921875 349 13.5 c 128
 337.333007812 8.8330078125 325.083007812 4.5830078125 312.25 0.75 c 128
 299.416992188 -3.0830078125 286.583007812 -6.25 273.75 -8.75 c 128
 260.916992188 -11.25 248.833007812 -12.5 237.5 -12.5 c 0
 205.833007812 -12.5 177.5 -6 152.5 7 c 128
 127.5 20 106.333007812 37.6669921875 89 60 c 128
 71.6669921875 82.3330078125 58.3330078125 108.5 49 138.5 c 128
 39.6669921875 168.5 35 200.5 35 234.5 c 0
 35 276.166992188 41.6669921875 313.75 55 347.25 c 128
 68.3330078125 380.75 87.6669921875 409.25 113 432.75 c 128
 138.333007812 456.25 169.333007812 474.333007812 206 487 c 128
 242.666992188 499.666992188 284.333007812 506 331 506 c 0
 340.333007812 506 351.166992188 505.583007812 363.5 504.75 c 128
 375.833007812 503.916992188 388.5 502.833007812 401.5 501.5 c 128
 414.5 500.166992188 427.5 498.416992188 440.5 496.25 c 128
 453.5 494.083007812 465.333007812 491.833007812 476 489.5 c 1
 476 -157.5 l 2
 476 -163.833007812 478.083007812 -168.75 482.25 -172.25 c 128
 486.416992188 -175.75 491.5 -178 497.5 -179 c 2
 547 -184.5 l 1
 547 -223 l 1
 299 -223 l 1
EndSplineSet
EndChar

StartChar: r
Encoding: 114 114 64
Width: 400
VWidth: 1024
GlyphClass: 2
Flags: HW
LayerCount: 2
Back
Fore
SplineSet
350 389 m 1
 343.333007812 396.666992188 335.666992188 403.25 327 408.75 c 128
 318.333007812 414.25 307.666992188 417 295 417 c 0
 278.333007812 417 261.5 411.416992188 244.5 400.25 c 128
 227.5 389.083007812 210.166992188 373.5 192.5 353.5 c 1
 192.5 65.5 l 2
 192.5 59.1669921875 194.5 54 198.5 50 c 128
 202.5 46 207.666992188 43.6669921875 214 43 c 1
 281.5 40 l 1
 281.5 0 l 1
 25.5 0 l 1
 25.5 39 l 1
 76 43 l 2
 82 43.6669921875 87.0830078125 46 91.25 50 c 128
 95.4169921875 54 97.5 59.1669921875 97.5 65.5 c 2
 97.5 421 l 1
 23.5 421 l 1
 23.5 454.5 l 1
 150.5 493.5 l 1
 192.5 493.5 l 1
 192.5 402.5 l 1
 199.833007812 410.5 208.75 420.416992188 219.25 432.25 c 128
 229.75 444.083007812 241 455.5 253 466.5 c 128
 265 477.5 277.416992188 486.833007812 290.25 494.5 c 128
 303.083007812 502.166992188 315.5 506 327.5 506 c 0
 332.833007812 506 338.5 505.5 344.5 504.5 c 128
 350.5 503.5 356.333007812 502.25 362 500.75 c 128
 367.666992188 499.25 372.916992188 497.583007812 377.75 495.75 c 128
 382.583007812 493.916992188 386.666992188 492.166992188 390 490.5 c 1
 390 389 l 1
 350 389 l 1
EndSplineSet
EndChar

StartChar: s
Encoding: 115 115 65
Width: 407
VWidth: 1024
GlyphClass: 2
Flags: HW
LayerCount: 2
Back
Fore
SplineSet
372.5 148.5 m 0
 372.5 123.5 368 101 359 81 c 128
 350 61 337.166992188 44.0830078125 320.5 30.25 c 128
 303.833007812 16.4169921875 283.333007812 5.8330078125 259 -1.5 c 128
 234.666992188 -8.8330078125 207.333007812 -12.5 177 -12.5 c 0
 161.333007812 -12.5 146.083007812 -11.5830078125 131.25 -9.75 c 128
 116.416992188 -7.9169921875 102.75 -5.5830078125 90.25 -2.75 c 128
 77.75 0.0830078125 66.6669921875 3 57 6 c 128
 47.3330078125 9 40 11.5 35 13.5 c 1
 35 149.5 l 1
 87 149.5 l 1
 99.5 62.5 l 1
 109.833007812 55.8330078125 122.583007812 49.4169921875 137.75 43.25 c 128
 152.916992188 37.0830078125 170.5 34 190.5 34 c 0
 205.166992188 34 218.166992188 36.25 229.5 40.75 c 128
 240.833007812 45.25 250.416992188 51.1669921875 258.25 58.5 c 128
 266.083007812 65.8330078125 272.083007812 74.25 276.25 83.75 c 128
 280.416992188 93.25 282.5 103.166992188 282.5 113.5 c 0
 282.5 127.833007812 279.666992188 140.083007812 274 150.25 c 128
 268.333007812 160.416992188 260.166992188 169.583007812 249.5 177.75 c 128
 238.833007812 185.916992188 225.75 193.833007812 210.25 201.5 c 128
 194.75 209.166992188 177.166992188 217.833007812 157.5 227.5 c 0
 138.833007812 236.5 122.333007812 245.416992188 108 254.25 c 128
 93.6669921875 263.083007812 81.5830078125 272.583007812 71.75 282.75 c 128
 61.9169921875 292.916992188 54.5 304.083007812 49.5 316.25 c 128
 44.5 328.416992188 42 342.166992188 42 357.5 c 0
 42 380.166992188 46.0830078125 400.666992188 54.25 419 c 128
 62.4169921875 437.333007812 74.3330078125 452.916992188 90 465.75 c 128
 105.666992188 478.583007812 124.916992188 488.5 147.75 495.5 c 128
 170.583007812 502.5 196.833007812 506 226.5 506 c 0
 241.5 506 255.833007812 505.166992188 269.5 503.5 c 128
 283.166992188 501.833007812 295.666992188 499.833007812 307 497.5 c 128
 318.333007812 495.166992188 328.333007812 492.666992188 337 490 c 128
 345.666992188 487.333007812 352.5 484.833007812 357.5 482.5 c 1
 357.5 361.5 l 1
 304 361.5 l 1
 296 433 l 1
 288.666992188 438.666992188 277.833007812 444 263.5 449 c 128
 249.166992188 454 234 456.5 218 456.5 c 0
 189.666992188 456.5 168.75 450.083007812 155.25 437.25 c 128
 141.75 424.416992188 135 408 135 388 c 0
 135 376.333007812 136.916992188 366.166992188 140.75 357.5 c 128
 144.583007812 348.833007812 150.916992188 340.666992188 159.75 333 c 128
 168.583007812 325.333007812 180.25 317.5 194.75 309.5 c 128
 209.25 301.5 227.333007812 292.5 249 282.5 c 0
 267 274.5 283.5 266.166992188 298.5 257.5 c 128
 313.5 248.833007812 326.5 239.166992188 337.5 228.5 c 128
 348.5 217.833007812 357.083007812 206 363.25 193 c 128
 369.416992188 180 372.5 165.166992188 372.5 148.5 c 0
EndSplineSet
EndChar

StartChar: t
Encoding: 116 116 66
Width: 348
VWidth: 1024
GlyphClass: 2
Flags: HW
LayerCount: 2
Back
Fore
SplineSet
341 21.5 m 1
 328.333007812 15.1669921875 314.5 9.5 299.5 4.5 c 0
 286.833007812 0.1669921875 272.166992188 -3.75 255.5 -7.25 c 128
 238.833007812 -10.75 221.333007812 -12.5 203 -12.5 c 0
 164.333007812 -12.5 136.333007812 -3.5 119 14.5 c 128
 101.666992188 32.5 93 61.8330078125 93 102.5 c 2
 93 442.5 l 1
 27.5 442.5 l 1
 27.5 476 l 1
 97.5 509 l 1
 143.5 617.5 l 1
 188.5 617.5 l 1
 188.5 493.5 l 1
 333 493.5 l 1
 333 442.5 l 1
 188.5 442.5 l 1
 188.5 156.5 l 2
 188.5 136.166992188 190.25 118.916992188 193.75 104.75 c 128
 197.25 90.5830078125 202.416992188 79.0830078125 209.25 70.25 c 128
 216.083007812 61.4169921875 224.583007812 55 234.75 51 c 128
 244.916992188 47 256.833007812 45 270.5 45 c 0
 280.5 45 289.75 45.8330078125 298.25 47.5 c 128
 306.75 49.1669921875 314.166992188 51.1669921875 320.5 53.5 c 0
 327.833007812 56.1669921875 334.666992188 59.1669921875 341 62.5 c 1
 341 21.5 l 1
EndSplineSet
EndChar

StartChar: u
Encoding: 117 117 67
Width: 582
VWidth: 1024
GlyphClass: 2
Flags: HW
LayerCount: 2
Back
Fore
SplineSet
398.5 0 m 1
 398.5 58.5 l 1
 389.833007812 51.8330078125 379.25 44.3330078125 366.75 36 c 128
 354.25 27.6669921875 340.75 19.9169921875 326.25 12.75 c 128
 311.75 5.5830078125 296.583007812 -0.4169921875 280.75 -5.25 c 128
 264.916992188 -10.0830078125 249.5 -12.5 234.5 -12.5 c 0
 212.5 -12.5 192.75 -9.25 175.25 -2.75 c 128
 157.75 3.75 142.916992188 13.75 130.75 27.25 c 128
 118.583007812 40.75 109.25 57.9169921875 102.75 78.75 c 128
 96.25 99.5830078125 93 124.5 93 153.5 c 2
 93 431 l 1
 21.5 431 l 1
 21.5 466 l 1
 147.5 506 l 1
 188.5 506 l 1
 188.5 173 l 2
 188.5 155 190.25 138.833007812 193.75 124.5 c 128
 197.25 110.166992188 202.916992188 98 210.75 88 c 128
 218.583007812 78 228.833007812 70.4169921875 241.5 65.25 c 128
 254.166992188 60.0830078125 269.5 57.5 287.5 57.5 c 0
 297.833007812 57.5 308.333007812 58.5 319 60.5 c 128
 329.666992188 62.5 339.833007812 65.0830078125 349.5 68.25 c 128
 359.166992188 71.4169921875 368.25 74.75 376.75 78.25 c 128
 385.25 81.75 392.5 85 398.5 88 c 1
 398.5 431 l 1
 326.5 431 l 1
 326.5 466 l 1
 451.5 506 l 1
 493.5 506 l 1
 493.5 65.5 l 2
 493.5 59.1669921875 495.75 54 500.25 50 c 128
 504.75 46 510 43.6669921875 516 43 c 2
 561 40 l 1
 561 0 l 1
 398.5 0 l 1
EndSplineSet
EndChar

StartChar: v
Encoding: 118 118 68
Width: 541
VWidth: 1024
GlyphClass: 2
Flags: HW
LayerCount: 2
Back
Fore
SplineSet
477 447.5 m 1
 298 0 l 1
 231.5 0 l 1
 66.5 447.5 l 1
 10 453.5 l 1
 10 493.5 l 1
 236.5 493.5 l 1
 236.5 453.5 l 1
 187.5 450.5 l 2
 181.833007812 449.833007812 177.333007812 447.333007812 174 443 c 128
 170.666992188 438.666992188 170 433.666992188 172 428 c 2
 286.5 107.5 l 1
 412.5 428 l 2
 414.833007812 433.333007812 414.5 438.25 411.5 442.75 c 128
 408.5 447.25 404.166992188 449.833007812 398.5 450.5 c 2
 352.5 453.5 l 1
 352.5 493.5 l 1
 531.5 493.5 l 1
 531.5 453.5 l 1
 477 447.5 l 1
EndSplineSet
EndChar

StartChar: w
Encoding: 119 119 69
Width: 802
VWidth: 1024
GlyphClass: 2
Flags: HW
LayerCount: 2
Back
Fore
SplineSet
739.5 447.5 m 1
 599 0 l 1
 526.5 0 l 1
 405.5 383 l 1
 270.5 0 l 1
 197.5 0 l 1
 66.5 447.5 l 1
 10 453.5 l 1
 10 493.5 l 1
 234.5 493.5 l 1
 234.5 453.5 l 1
 186.5 450.5 l 2
 180.833007812 449.833007812 176.416992188 447.333007812 173.25 443 c 128
 170.083007812 438.666992188 169.333007812 433.666992188 171 428 c 2
 256 109.5 l 1
 388 493.5 l 1
 461 493.5 l 1
 579.5 109.5 l 1
 674 428 l 2
 675.666992188 433.333007812 675.083007812 438.25 672.25 442.75 c 128
 669.416992188 447.25 665.166992188 449.833007812 659.5 450.5 c 2
 612.5 453.5 l 1
 612.5 493.5 l 1
 791.5 493.5 l 1
 791.5 453.5 l 1
 739.5 447.5 l 1
EndSplineSet
EndChar

StartChar: x
Encoding: 120 120 70
Width: 522
VWidth: 1024
GlyphClass: 2
Flags: HW
LayerCount: 2
Back
Fore
SplineSet
292 0 m 1
 292 40 l 1
 326.5 44 l 2
 331.166992188 44.6669921875 334.416992188 47 336.25 51 c 128
 338.083007812 55 338 58.8330078125 336 62.5 c 1
 248 193.5 l 1
 147.5 62.5 l 2
 144.833007812 59.5 144 55.8330078125 145 51.5 c 128
 146 47.1669921875 148.833007812 44.6669921875 153.5 44 c 2
 205 40 l 1
 205 0 l 1
 10 0 l 1
 10 40 l 1
 68.5 48 l 1
 215 238.5 l 1
 76 444.5 l 1
 15.5 453.5 l 1
 15.5 493.5 l 1
 240.5 493.5 l 1
 240.5 453.5 l 1
 205 448.5 l 2
 200.333007812 447.833007812 196.916992188 445.5 194.75 441.5 c 128
 192.583007812 437.5 192.5 433.666992188 194.5 430 c 1
 275.5 315.5 l 1
 364.5 430 l 2
 367.166992188 433 367.833007812 436.666992188 366.5 441 c 128
 365.166992188 445.333007812 362.166992188 447.833007812 357.5 448.5 c 2
 313.5 453.5 l 1
 313.5 493.5 l 1
 497.5 493.5 l 1
 497.5 453.5 l 1
 442.5 444.5 l 1
 305 269.5 l 1
 456.5 48 l 1
 512 40 l 1
 512 0 l 1
 292 0 l 1
EndSplineSet
EndChar

StartChar: y
Encoding: 121 121 71
Width: 542
VWidth: 1024
GlyphClass: 2
Flags: HW
LayerCount: 2
Back
Fore
SplineSet
479 447.5 m 1
 282.5 -31.5 l 2
 279.166992188 -39.8330078125 274.5 -51 268.5 -65 c 128
 262.5 -79 255.416992188 -93.9169921875 247.25 -109.75 c 128
 239.083007812 -125.583007812 230.083007812 -141.166992188 220.25 -156.5 c 128
 210.416992188 -171.833007812 200.166992188 -184.833007812 189.5 -195.5 c 0
 177.166992188 -207.833007812 163.583007812 -217.416992188 148.75 -224.25 c 128
 133.916992188 -231.083007812 117.833007812 -234.5 100.5 -234.5 c 0
 88.5 -234.5 77.8330078125 -232.916992188 68.5 -229.75 c 128
 59.1669921875 -226.583007812 51.3330078125 -222.333007812 45 -217 c 128
 38.6669921875 -211.666992188 33.8330078125 -205.416992188 30.5 -198.25 c 128
 27.1669921875 -191.083007812 25.5 -183.666992188 25.5 -176 c 0
 25.5 -164.333007812 28.0830078125 -153.583007812 33.25 -143.75 c 128
 38.4169921875 -133.916992188 46.8330078125 -124.166992188 58.5 -114.5 c 1
 154.5 -158.5 l 1
 162.833007812 -150.166992188 171.333007812 -139.25 180 -125.75 c 128
 188.666992188 -112.25 196.833007812 -98 204.5 -83 c 128
 212.166992188 -68 219.166992188 -53.0830078125 225.5 -38.25 c 128
 231.833007812 -23.4169921875 236.833007812 -10.3330078125 240.5 1 c 1
 66.5 447.5 l 1
 10 453.5 l 1
 10 493.5 l 1
 236.5 493.5 l 1
 236.5 453.5 l 1
 187.5 450.5 l 2
 181.833007812 449.833007812 177.333007812 447.333007812 174 443 c 128
 170.666992188 438.666992188 170 433.666992188 172 428 c 2
 291 126 l 1
 412.5 428 l 2
 414.833007812 433.333007812 414.5 438.25 411.5 442.75 c 128
 408.5 447.25 404.166992188 449.833007812 398.5 450.5 c 2
 350 453.5 l 1
 350 493.5 l 1
 532.5 493.5 l 1
 532.5 453.5 l 1
 479 447.5 l 1
EndSplineSet
EndChar

StartChar: z
Encoding: 122 122 72
Width: 473
VWidth: 1024
GlyphClass: 2
Flags: HW
LayerCount: 2
Back
Fore
SplineSet
35 0 m 1
 35 54.5 l 1
 306 445.5 l 1
 128 445.5 l 2
 123 445.5 118.583007812 443.083007812 114.75 438.25 c 128
 110.916992188 433.416992188 108.5 428.666992188 107.5 424 c 1
 97.5 348 l 1
 45 348 l 1
 45 493.5 l 1
 424 493.5 l 1
 424 451.5 l 1
 143.5 49 l 1
 350 49 l 2
 352.333007812 49 354.75 49.8330078125 357.25 51.5 c 128
 359.75 53.1669921875 362.083007812 55.1669921875 364.25 57.5 c 128
 366.416992188 59.8330078125 368.25 62.4169921875 369.75 65.25 c 128
 371.25 68.0830078125 372.166992188 70.8330078125 372.5 73.5 c 2
 383 154.5 l 1
 438.5 154.5 l 1
 438.5 0 l 1
 35 0 l 1
EndSplineSet
EndChar

StartChar: braceleft
Encoding: 123 123 73
Width: 499
VWidth: 1024
GlyphClass: 2
Flags: HW
LayerCount: 2
Back
Fore
SplineSet
429 -126 m 1
 411 -126 393.166992188 -125.333007812 375.5 -124 c 128
 357.833007812 -122.666992188 341.166992188 -120.25 325.5 -116.75 c 128
 309.833007812 -113.25 295.583007812 -108.666992188 282.75 -103 c 128
 269.916992188 -97.3330078125 259.333007812 -90 251 -81 c 0
 239.333007812 -69 230.666992188 -55.9169921875 225 -41.75 c 128
 219.333007812 -27.5830078125 215.25 -12.6669921875 212.75 3 c 128
 210.25 18.6669921875 209 34.6669921875 209 51 c 2
 209 139 l 2
 209 152.666992188 208.166992188 166.166992188 206.5 179.5 c 128
 204.833007812 192.833007812 202 205.5 198 217.5 c 128
 194 229.5 188 239.333007812 180 247 c 0
 174 253 167.166992188 257.75 159.5 261.25 c 128
 151.833007812 264.75 143.25 267.5 133.75 269.5 c 128
 124.25 271.5 113.583007812 272.833007812 101.75 273.5 c 128
 89.9169921875 274.166992188 76.5 274.5 61.5 274.5 c 1
 61.5 320.5 l 1
 76.5 320.5 89.9169921875 320.833007812 101.75 321.5 c 128
 113.583007812 322.166992188 124.25 323.5 133.75 325.5 c 128
 143.25 327.5 151.833007812 330.25 159.5 333.75 c 128
 167.166992188 337.25 174 342 180 348 c 0
 188 355.666992188 194 365.5 198 377.5 c 128
 202 389.5 204.833007812 402.166992188 206.5 415.5 c 128
 208.166992188 428.833007812 209 442.333007812 209 456 c 2
 209 543.5 l 2
 209 560.166992188 210.25 576.25 212.75 591.75 c 128
 215.25 607.25 219.333007812 622.166992188 225 636.5 c 128
 230.666992188 650.833007812 239.333007812 664 251 676 c 0
 259.333007812 685 269.916992188 692.333007812 282.75 698 c 128
 295.583007812 703.666992188 309.833007812 708.25 325.5 711.75 c 128
 341.166992188 715.25 357.833007812 717.666992188 375.5 719 c 128
 393.166992188 720.333007812 411 721 429 721 c 1
 429 679 l 1
 424.666992188 679 418 678.666992188 409 678 c 128
 400 677.333007812 390.25 676 379.75 674 c 128
 369.25 672 359 668.916992188 349 664.75 c 128
 339 660.583007812 330.833007812 655 324.5 648 c 0
 317.5 640.333007812 312.25 630.833007812 308.75 619.5 c 128
 305.25 608.166992188 302.833007812 595.75 301.5 582.25 c 128
 300.166992188 568.75 299.583007812 554.666992188 299.75 540 c 128
 299.916992188 525.333007812 300 510.833007812 300 496.5 c 0
 300 484.833007812 299.75 472.583007812 299.25 459.75 c 128
 298.75 446.916992188 297.5 434.25 295.5 421.75 c 128
 293.5 409.25 290.583007812 397.416992188 286.75 386.25 c 128
 282.916992188 375.083007812 277.5 365.166992188 270.5 356.5 c 0
 256.833007812 338.833007812 240.583007812 325.833007812 221.75 317.5 c 128
 202.916992188 309.166992188 183 302.666992188 162 298 c 1
 183 293.333007812 202.916992188 286.666992188 221.75 278 c 128
 240.583007812 269.333007812 256.833007812 256.166992188 270.5 238.5 c 0
 277.5 229.833007812 282.916992188 219.916992188 286.75 208.75 c 128
 290.583007812 197.583007812 293.5 185.75 295.5 173.25 c 128
 297.5 160.75 298.75 148.083007812 299.25 135.25 c 128
 299.75 122.416992188 300 110.166992188 300 98.5 c 0
 300 84.1669921875 299.916992188 69.6669921875 299.75 55 c 128
 299.583007812 40.3330078125 300.166992188 26.25 301.5 12.75 c 128
 302.833007812 -0.75 305.25 -13.1669921875 308.75 -24.5 c 128
 312.25 -35.8330078125 317.5 -45.3330078125 324.5 -53 c 0
 330.833007812 -60 339 -65.5830078125 349 -69.75 c 128
 359 -73.9169921875 369.25 -77 379.75 -79 c 128
 390.25 -81 400 -82.3330078125 409 -83 c 128
 418 -83.6669921875 424.666992188 -84 429 -84 c 1
 429 -126 l 1
EndSplineSet
EndChar

StartChar: bar
Encoding: 124 124 74
Width: 362
VWidth: 1024
GlyphClass: 2
Flags: HW
LayerCount: 2
Back
Fore
SplineSet
150 -264 m 1
 150 815 l 1
 212 815 l 1
 212 -264 l 1
 150 -264 l 1
EndSplineSet
EndChar

StartChar: braceright
Encoding: 125 125 75
Width: 499
VWidth: 1024
GlyphClass: 2
Flags: HW
LayerCount: 2
Back
Fore
SplineSet
438.5 274.5 m 1
 408.833007812 274.5 384.666992188 272.833007812 366 269.5 c 128
 347.333007812 266.166992188 331.833007812 258.666992188 319.5 247 c 0
 311.5 239.333007812 305.5 229.5 301.5 217.5 c 128
 297.5 205.5 294.75 192.833007812 293.25 179.5 c 128
 291.75 166.166992188 291 152.666992188 291 139 c 2
 291 51 l 2
 291 34.6669921875 289.75 18.6669921875 287.25 3 c 128
 284.75 -12.6669921875 280.583007812 -27.5830078125 274.75 -41.75 c 128
 268.916992188 -55.9169921875 260.333007812 -69 249 -81 c 0
 240.333007812 -90 229.666992188 -97.3330078125 217 -103 c 128
 204.333007812 -108.666992188 190.166992188 -113.25 174.5 -116.75 c 128
 158.833007812 -120.25 142.166992188 -122.666992188 124.5 -124 c 128
 106.833007812 -125.333007812 88.8330078125 -126 70.5 -126 c 1
 70.5 -84 l 1
 74.8330078125 -84 81.5 -83.6669921875 90.5 -83 c 128
 99.5 -82.3330078125 109.25 -81 119.75 -79 c 128
 130.25 -77 140.5 -73.9169921875 150.5 -69.75 c 128
 160.5 -65.5830078125 168.666992188 -60 175 -53 c 0
 182.333007812 -45.3330078125 187.666992188 -35.8330078125 191 -24.5 c 128
 194.333007812 -13.1669921875 196.666992188 -0.75 198 12.75 c 128
 199.333007812 26.25 199.916992188 40.3330078125 199.75 55 c 128
 199.583007812 69.6669921875 199.5 84.1669921875 199.5 98.5 c 0
 199.5 110.166992188 199.75 122.416992188 200.25 135.25 c 128
 200.75 148.083007812 202 160.75 204 173.25 c 128
 206 185.75 209 197.583007812 213 208.75 c 128
 217 219.916992188 222.5 229.833007812 229.5 238.5 c 1
 242.833007812 256.166992188 259 269.333007812 278 278 c 128
 297 286.666992188 317 293.333007812 338 298 c 1
 327.333007812 300.333007812 317 303 307 306 c 128
 297 309 287.333007812 312.833007812 278 317.5 c 128
 268.666992188 322.166992188 259.916992188 327.666992188 251.75 334 c 128
 243.583007812 340.333007812 236.166992188 347.833007812 229.5 356.5 c 0
 222.5 365.166992188 217 375.083007812 213 386.25 c 128
 209 397.416992188 206 409.25 204 421.75 c 128
 202 434.25 200.75 446.916992188 200.25 459.75 c 128
 199.75 472.583007812 199.5 484.833007812 199.5 496.5 c 0
 199.5 510.833007812 199.583007812 525.333007812 199.75 540 c 128
 199.916992188 554.666992188 199.333007812 568.75 198 582.25 c 128
 196.666992188 595.75 194.333007812 608.166992188 191 619.5 c 128
 187.666992188 630.833007812 182.333007812 640.333007812 175 648 c 0
 168.666992188 655 160.5 660.583007812 150.5 664.75 c 128
 140.5 668.916992188 130.25 672 119.75 674 c 128
 109.25 676 99.5 677.333007812 90.5 678 c 128
 81.5 678.666992188 74.8330078125 679 70.5 679 c 1
 70.5 721 l 1
 88.8330078125 721 106.833007812 720.333007812 124.5 719 c 128
 142.166992188 717.666992188 158.833007812 715.25 174.5 711.75 c 128
 190.166992188 708.25 204.333007812 703.666992188 217 698 c 128
 229.666992188 692.333007812 240.333007812 685 249 676 c 0
 260.333007812 664 268.916992188 650.833007812 274.75 636.5 c 128
 280.583007812 622.166992188 284.75 607.25 287.25 591.75 c 128
 289.75 576.25 291 560.166992188 291 543.5 c 2
 291 456 l 2
 291 442.333007812 291.75 428.833007812 293.25 415.5 c 128
 294.75 402.166992188 297.5 389.5 301.5 377.5 c 128
 305.5 365.5 311.5 355.666992188 319.5 348 c 0
 331.833007812 336.333007812 347.333007812 328.833007812 366 325.5 c 128
 384.666992188 322.166992188 408.833007812 320.5 438.5 320.5 c 1
 438.5 274.5 l 1
EndSplineSet
EndChar

StartChar: asciitilde
Encoding: 126 126 76
Width: 853
VWidth: 1024
GlyphClass: 2
Flags: HW
LayerCount: 2
Back
Fore
SplineSet
765 313.5 m 1
 745.333007812 299.833007812 727 288.416992188 710 279.25 c 128
 693 270.083007812 676.75 262.666992188 661.25 257 c 128
 645.75 251.333007812 630.75 247.333007812 616.25 245 c 128
 601.75 242.666992188 587.166992188 241.5 572.5 241.5 c 0
 548.166992188 241.5 524 245.083007812 500 252.25 c 128
 476 259.416992188 451.833007812 267.333007812 427.5 276 c 128
 403.166992188 284.666992188 378.5 292.583007812 353.5 299.75 c 128
 328.5 306.916992188 302.833007812 310.5 276.5 310.5 c 0
 250.5 310.5 221.166992188 303.416992188 188.5 289.25 c 128
 155.833007812 275.083007812 122.333007812 255.5 88 230.5 c 1
 88 297 l 1
 124.666992188 323 159.333007812 341.583007812 192 352.75 c 128
 224.666992188 363.916992188 254.833007812 369.5 282.5 369.5 c 0
 307.5 369.5 332.5 365.916992188 357.5 358.75 c 128
 382.5 351.583007812 407.333007812 343.75 432 335.25 c 128
 456.666992188 326.75 480.833007812 318.916992188 504.5 311.75 c 128
 528.166992188 304.583007812 551.166992188 301 573.5 301 c 0
 597.833007812 301 625.583007812 306.75 656.75 318.25 c 128
 687.916992188 329.75 724 350.333007812 765 380 c 1
 765 313.5 l 1
EndSplineSet
EndChar

StartChar: exclam
Encoding: 33 33 83
Width: 346
VWidth: 1024
GlyphClass: 2
Flags: HW
LayerCount: 2
Back
Fore
SplineSet
236.5 51 m 0
 236.5 42.6669921875 234.833007812 34.6669921875 231.5 27 c 128
 228.166992188 19.3330078125 223.583007812 12.5830078125 217.75 6.75 c 128
 211.916992188 0.9169921875 205.166992188 -3.75 197.5 -7.25 c 128
 189.833007812 -10.75 181.666992188 -12.5 173 -12.5 c 256
 164.333007812 -12.5 156.166992188 -10.75 148.5 -7.25 c 128
 140.833007812 -3.75 134.166992188 0.9169921875 128.5 6.75 c 128
 122.833007812 12.5830078125 118.416992188 19.3330078125 115.25 27 c 128
 112.083007812 34.6669921875 110.5 42.6669921875 110.5 51 c 0
 110.5 59.6669921875 112.083007812 67.8330078125 115.25 75.5 c 128
 118.416992188 83.1669921875 122.833007812 89.8330078125 128.5 95.5 c 128
 134.166992188 101.166992188 140.833007812 105.583007812 148.5 108.75 c 128
 156.166992188 111.916992188 164.333007812 113.5 173 113.5 c 256
 181.666992188 113.5 189.833007812 111.916992188 197.5 108.75 c 128
 205.166992188 105.583007812 211.916992188 101.166992188 217.75 95.5 c 128
 223.583007812 89.8330078125 228.166992188 83.1669921875 231.5 75.5 c 128
 234.833007812 67.8330078125 236.5 59.6669921875 236.5 51 c 0
235.5 637 m 0
 235.5 635 234.916992188 626.916992188 233.75 612.75 c 128
 232.583007812 598.583007812 231.166992188 580.75 229.5 559.25 c 128
 227.833007812 537.75 225.916992188 513.583007812 223.75 486.75 c 128
 221.583007812 459.916992188 219.333007812 432.666992188 217 405 c 0
 211.333007812 340 205.166992188 266.833007812 198.5 185.5 c 1
 148.5 185.5 l 1
 141.5 266.833007812 135.166992188 340 129.5 405 c 0
 127.166992188 432.666992188 124.833007812 459.916992188 122.5 486.75 c 128
 120.166992188 513.583007812 118.166992188 537.75 116.5 559.25 c 128
 114.833007812 580.75 113.416992188 598.583007812 112.25 612.75 c 128
 111.083007812 626.916992188 110.5 635 110.5 637 c 0
 110.5 657.666992188 115.5 673.916992188 125.5 685.75 c 128
 135.5 697.583007812 151.333007812 703.5 173 703.5 c 256
 194.666992188 703.5 210.5 697.583007812 220.5 685.75 c 128
 230.5 673.916992188 235.5 657.666992188 235.5 637 c 0
EndSplineSet
EndChar

StartChar: quoteleft
Encoding: 8216 8216 84
Width: 324
GlyphClass: 2
Flags: HW
LayerCount: 2
Back
Fore
SplineSet
246 823 m 1
 204.837 793.598 169 738.07 169 673 c 1
 237 609 l 1
 166 541 l 1
 92 612 l 1
 124.981 699.95 174.834 775.79 220 844 c 1
 246 823 l 1
EndSplineSet
EndChar

StartChar: u25CC
Encoding: 9676 9676 85
Width: 747
GlyphClass: 2
Flags: HW
LayerCount: 2
Back
Fore
SplineSet
628 436 m 1
 629.333 430.667 630 425.667 630 421 c 0
 630 406.333 623.667 394 611 384 c 1
 605 380.667 595.667 379 583 379 c 0
 566.333 379 555 382.667 549 390 c 1
 542.924 408.227 562.945 453 598 453 c 0
 612.667 453 622.667 447.333 628 436 c 1
514 540 m 0
 532.6 540 545 524.8 545 502 c 0
 545 475.136 504.021 448.326 484 455 c 1
 474.6 464.4 474 487.923 474 492 c 0
 474 534.9 504.975 540 514 540 c 0
392 567 m 0
 414.444 567 433 549.796 433 529 c 256
 433 505.75 410.85 480 392 480 c 0
 376.917 480 359 509.347 359 529 c 0
 359 550.551 372.922 567 392 567 c 0
582 293 m 1
 582 314 614.35 328 633 328 c 0
 659.667 328 672.333 316.333 671 293 c 1
 668.319 272.892 651.351 257 632 257 c 0
 609.329 257 584.522 274.083 582 293 c 1
642 172 m 0
 642 171.027 639.186 137 600 137 c 0
 594.667 137 589.333 138.333 584 141 c 1
 564.117 155.912 529.36 210 594 210 c 0
 637.68 210 642 178.48 642 172 c 0
273 536 m 0
 296.643 536 314 518.173 314 491 c 0
 314 475.667 309 464.333 299 457 c 1
 283.521 450.55 259.457 460.327 244 480 c 1
 242.667 483.333 242 489 242 497 c 0
 242 515.809 248.2 536 273 536 c 0
520 50 m 0
 492.906 50 476 68.1342 476 98 c 0
 476 114.667 480 125.667 488 131 c 1
 504.615 137.923 534.114 120.411 548 104 c 1
 551.333 96.6667 553 90.3333 553 85 c 0
 553 72.0957 547.685 50 520 50 c 0
233 398 m 0
 233 378 218.238 373 200 373 c 0
 190 373 179.5 375.5 168.5 380.5 c 128
 157.5 385.5 152 397.333 152 416 c 0
 152 423.977 154.768 447 186 447 c 0
 207.25 447 233 431.325 233 398 c 0
157 331 m 0
 169.225 331 205 323.1 205 296 c 0
 205 276.567 178.294 260 154 260 c 0
 130 260 118 272 118 296 c 0
 118 319.333 131 331 157 331 c 0
393 104 m 0
 411.8 104 434 78.65 434 56 c 256
 434 35.4556 415.578 15 393 15 c 0
 373.976 15 360 34.7846 360 56 c 0
 360 76.3424 376.7 104 393 104 c 0
185 140 m 0
 166.827 140 144 152.439 144 175 c 0
 144 187.667 151.667 198 167 206 c 1
 172.333 211.333 181.333 214 194 214 c 0
 197.48 214 212.144 213.392 230 200 c 1
 238.172 185.29 213.554 140 185 140 c 0
301 69 m 0
 293.667 57 280.667 51 262 51 c 0
 259.333 51 254.333 51.6667 247 53 c 1
 237 61 232 71 232 83 c 0
 232 121.635 277.694 139.412 294 132 c 0
 303.333 126.667 308 115 308 97 c 0
 308 87.6667 305.667 78.3333 301 69 c 0
-26 679 m 1
 -26 616 l 1
 816 616 l 1
 816 679 l 1
 -26 679 l 1
EndSplineSet
EndChar

StartChar: u0950
Encoding: 2384 2384 86
Width: 992
GlyphClass: 2
Flags: HW
LayerCount: 2
Back
Fore
SplineSet
585 951 m 1
 522 889 l 1
 462 949 l 1
 522 1012 l 1
 585 951 l 1
302 934 m 1
 331.841 882.673 385.2 806 510 806 c 0
 569.333 806 620 831.667 662 883 c 0
 674.667 899.667 689.333 925 706 959 c 1
 762 903 l 1
 743.333 867.667 726.333 841.667 711 825 c 0
 663 773 605 747 537 747 c 0
 424.88 747 308.894 866.212 283 918 c 1
 302 934 l 1
385 396 m 1
 429.209 365.606 441 364 455 364 c 0
 503 364 546 411.333 584 506 c 128
 622 600.667 669 648 725 648 c 0
 770.333 648 815.5 621 860.5 567 c 128
 905.5 513 926.667 456.667 924 398 c 1
 924 196.6 824.4 167 758 167 c 0
 710.531 167 634.249 258.006 630 275 c 1
 646 291 l 1
 660.04 261.644 682.4 221 737 221 c 0
 807.2 221 854 333.398 854 478 c 0
 854 553.2 809.582 572 757 572 c 0
 711.667 572 672.333 529.333 639 444 c 128
 605.667 358.667 559.667 316 501 316 c 0
 493.454 316 448.877 331.998 418 358 c 1
 459.728 305.84 502 242.2 502 165 c 0
 502 73.6869 449.487 19 365 19 c 0
 256.6 19 160.587 146.505 94 289 c 1
 56 385 l 1
 84 401 l 1
 76 379.667 93.3333 328 136 246 c 0
 187.333 149.333 250 101 324 101 c 0
 364.033 101 440 121 440 201 c 0
 440 295.261 379.448 381.851 367 386 c 1
 357.501 381.25 332.11 372.919 322 372 c 1
 265 358 l 1
 223 439 l 1
 233.667 433.667 264 437.333 314 450 c 0
 372.667 465.333 402 489.667 402 523 c 0
 402 581.2 382.825 620 294 620 c 0
 240 620 194.098 596.599 159 575 c 1
 119 652 l 1
 129.004 662.004 229.226 683 266 683 c 0
 367.058 683 444 596.024 444 491 c 0
 444 426.423 406.626 413.3 385 396 c 1
EndSplineSet
EndChar

StartChar: u093D
Encoding: 2365 2365 87
Width: 667
GlyphClass: 2
Flags: HW
LayerCount: 2
Back
Fore
SplineSet
219 603 m 2
 175.733 603 168 590.813 168 559 c 0
 168 521.667 203 481.667 273 439 c 0
 402.333 359.667 467.333 319.667 468 319 c 0
 538.667 264.333 574.667 205.333 576 142 c 1
 576 18.0988 476.17 -51 353 -51 c 0
 263.027 -51 152.817 14.3818 56 82 c 1
 70 97 l 1
 75.1802 80.4234 190.978 -8 312 -8 c 0
 427.069 -8 491 47.3493 491 157 c 0
 491 229.667 456 293 386 347 c 1
 192 463 l 2
 122 505.667 87 548.667 87 592 c 0
 87 638.66 127.522 675 170 675 c 2
 506 675 l 1
 506 603 l 1
 219 603 l 2
EndSplineSet
EndChar

StartChar: u0903
Encoding: 2307 2307 88
Width: 324
GlyphClass: 2
Flags: HW
LayerCount: 2
Back
Fore
SplineSet
380 617 m 1
 -28 617 l 1
 -28 680 l 1
 380 680 l 1
 380 617 l 1
249 399 m 1
 178 325 l 1
 102 407 l 1
 178 474 l 1
 249 399 l 1
249 137 m 1
 178 66 l 1
 104 142 l 1
 178 212 l 1
 249 137 l 1
EndSplineSet
EndChar

StartChar: quoteright
Encoding: 8217 8217 89
Width: 324
GlyphClass: 2
Flags: HW
LayerCount: 2
Back
Fore
SplineSet
108 561 m 1
 139.397 591.35 181 654 181 716 c 1
 113 779 l 1
 184 851 l 1
 257 774 l 1
 226.22 698.449 175.417 611.057 130 546 c 1
 108 561 l 1
EndSplineSet
EndChar

StartChar: parenleft
Encoding: 40 40 90
Width: 385
VWidth: 1024
GlyphClass: 2
Flags: HW
LayerCount: 2
Back
Fore
SplineSet
351 -145.5 m 1
 315.333007812 -141.5 283.416992188 -133.083007812 255.25 -120.25 c 128
 227.083007812 -107.416992188 202.25 -90.8330078125 180.75 -70.5 c 128
 159.25 -50.1669921875 140.833007812 -26.75 125.5 -0.25 c 128
 110.166992188 26.25 97.75 55.1669921875 88.25 86.5 c 128
 78.75 117.833007812 71.75 151.083007812 67.25 186.25 c 128
 62.75 221.416992188 60.5 257.666992188 60.5 295 c 0
 60.5 350.666992188 65.5830078125 403.75 75.75 454.25 c 128
 85.9169921875 504.75 102.5 549.75 125.5 589.25 c 128
 148.5 628.75 178.416992188 661.25 215.25 686.75 c 128
 252.083007812 712.25 297.333007812 728 351 734 c 1
 351 689 l 1
 315 683 284.583007812 669.75 259.75 649.25 c 128
 234.916992188 628.75 214.75 601.75 199.25 568.25 c 128
 183.75 534.75 172.583007812 495 165.75 449 c 128
 158.916992188 403 155.5 351.666992188 155.5 295 c 0
 155.5 238 158.916992188 186.5 165.75 140.5 c 128
 172.583007812 94.5 183.75 54.5830078125 199.25 20.75 c 128
 214.75 -13.0830078125 234.916992188 -40.25 259.75 -60.75 c 128
 284.583007812 -81.25 315 -94.5 351 -100.5 c 1
 351 -145.5 l 1
EndSplineSet
EndChar

StartChar: parenright
Encoding: 41 41 91
Width: 385
VWidth: 1024
GlyphClass: 2
Flags: HW
LayerCount: 2
Back
Fore
SplineSet
325.5 295 m 0
 325.5 257.666992188 323.25 221.416992188 318.75 186.25 c 128
 314.25 151.083007812 307.25 117.833007812 297.75 86.5 c 128
 288.25 55.1669921875 275.833007812 26.25 260.5 -0.25 c 128
 245.166992188 -26.75 226.75 -50.1669921875 205.25 -70.5 c 128
 183.75 -90.8330078125 158.916992188 -107.416992188 130.75 -120.25 c 128
 102.583007812 -133.083007812 70.6669921875 -141.5 35 -145.5 c 1
 35 -100.5 l 1
 71 -94.5 101.416992188 -81.25 126.25 -60.75 c 128
 151.083007812 -40.25 171.083007812 -13.0830078125 186.25 20.75 c 128
 201.416992188 54.5830078125 212.416992188 94.5 219.25 140.5 c 128
 226.083007812 186.5 229.5 238 229.5 295 c 0
 229.5 351.666992188 226.083007812 403 219.25 449 c 128
 212.416992188 495 201.416992188 534.75 186.25 568.25 c 128
 171.083007812 601.75 151.083007812 628.75 126.25 649.25 c 128
 101.416992188 669.75 71 683 35 689 c 1
 35 734 l 1
 88.3330078125 728 133.5 712.25 170.5 686.75 c 128
 207.5 661.25 237.5 628.75 260.5 589.25 c 128
 283.5 549.75 300.083007812 504.75 310.25 454.25 c 128
 320.416992188 403.75 325.5 350.666992188 325.5 295 c 0
EndSplineSet
EndChar

StartChar: u0964
Encoding: 2404 2404 92
Width: 732
GlyphClass: 2
Flags: HW
LayerCount: 2
Back
Fore
SplineSet
473 -49 m 1
 391 11 l 1
 391 797 l 1
 473 737 l 1
 473 -49 l 1
EndSplineSet
EndChar

StartChar: u0905
Encoding: 2309 2309 112
Width: 812
GlyphClass: 2
Flags: HW
LayerCount: 2
Back
Fore
SplineSet
528 337 m 0
 576.256 337 615.604 353.035 650 382 c 1
 650 608 l 1
 524 608 l 1
 498 671 l 1
 904 671 l 1
 898 617 l 1
 728 617 l 1
 728 -49 l 1
 646 11 l 1
 646 300 l 1
 617.309 289.567 596.425 287 559 287 c 1
 535.318 289.871 492.591 305.762 446 346 c 1
 466.356 325.644 493 236.571 493 180 c 0
 493 83.8174 423.055 26 321 26 c 0
 112.841 26 21.1841 399.552 25 411 c 1
 54 422 l 1
 38.6667 398.667 50.3333 342.667 89 254 c 0
 134.333 150.667 201.667 99 291 99 c 0
 350.829 99 439 131.431 439 260 c 0
 439 313.6 416.074 358.55 384 394 c 1
 343.333 372.667 302.333 362 261 362 c 1
 214 437 l 1
 256 441.667 287 447 307 453 c 0
 370.333 475 402 511 402 561 c 0
 402 598.8 382.625 624 313 624 c 0
 257.243 624 182.842 584.456 172 570 c 1
 132 649 l 1
 139.642 656.642 219.414 685 270 685 c 0
 353.899 685 463 610.401 463 510 c 0
 463 468 434.288 430.014 407 405 c 1
 434.13 364.306 478.121 337 528 337 c 0
EndSplineSet
EndChar

StartChar: comma
Encoding: 44 44 113
Width: 286
VWidth: 1024
GlyphClass: 2
Flags: HW
LayerCount: 2
Back
Fore
SplineSet
211 10 m 0
 211 -15.6669921875 206.083007812 -39.25 196.25 -60.75 c 128
 186.416992188 -82.25 173.25 -101.083007812 156.75 -117.25 c 128
 140.25 -133.416992188 121.333007812 -146.416992188 100 -156.25 c 128
 78.6669921875 -166.083007812 56.3330078125 -172 33 -174 c 1
 33 -137 l 1
 51 -133 67.0830078125 -127.583007812 81.25 -120.75 c 128
 95.4169921875 -113.916992188 107.25 -104.916992188 116.75 -93.75 c 128
 126.25 -82.5830078125 133.5 -68.8330078125 138.5 -52.5 c 128
 143.5 -36.1669921875 145.833007812 -16.3330078125 145.5 7 c 1
 81 7 l 1
 80.3330078125 7.6669921875 79 9.25 77 11.75 c 128
 75 14.25 72.9169921875 17.5 70.75 21.5 c 128
 68.5830078125 25.5 66.6669921875 30.25 65 35.75 c 128
 63.3330078125 41.25 62.5 47.5 62.5 54.5 c 0
 62.5 63.5 64.0830078125 72.1669921875 67.25 80.5 c 128
 70.4169921875 88.8330078125 74.8330078125 96.3330078125 80.5 103 c 128
 86.1669921875 109.666992188 92.8330078125 115 100.5 119 c 128
 108.166992188 123 116.666992188 125 126 125 c 0
 140.666992188 125 153.333007812 122.083007812 164 116.25 c 128
 174.666992188 110.416992188 183.5 102.416992188 190.5 92.25 c 128
 197.5 82.0830078125 202.666992188 69.9169921875 206 55.75 c 128
 209.333007812 41.5830078125 211 26.3330078125 211 10 c 0
EndSplineSet
EndChar

StartChar: hyphen
Encoding: 45 45 114
Width: 327
VWidth: 1024
GlyphClass: 2
Flags: HW
LayerCount: 2
Back
Fore
SplineSet
45 208 m 1
 45 284.5 l 1
 282.5 284.5 l 1
 282.5 208 l 1
 45 208 l 1
EndSplineSet
EndChar

StartChar: period
Encoding: 46 46 115
Width: 286
VWidth: 1024
GlyphClass: 2
Flags: HW
LayerCount: 2
Back
Fore
SplineSet
200.5 56.5 m 0
 200.5 46.8330078125 198.666992188 37.8330078125 195 29.5 c 128
 191.333007812 21.1669921875 186.333007812 13.9169921875 180 7.75 c 128
 173.666992188 1.5830078125 166.25 -3.3330078125 157.75 -7 c 128
 149.25 -10.6669921875 140.333007812 -12.5 131 -12.5 c 0
 121.333007812 -12.5 112.416992188 -10.6669921875 104.25 -7 c 128
 96.0830078125 -3.3330078125 88.8330078125 1.5830078125 82.5 7.75 c 128
 76.1669921875 13.9169921875 71.25 21.1669921875 67.75 29.5 c 128
 64.25 37.8330078125 62.5 46.8330078125 62.5 56.5 c 0
 62.5 65.8330078125 64.25 74.6669921875 67.75 83 c 128
 71.25 91.3330078125 76.1669921875 98.5830078125 82.5 104.75 c 128
 88.8330078125 110.916992188 96.0830078125 115.833007812 104.25 119.5 c 128
 112.416992188 123.166992188 121.333007812 125 131 125 c 0
 140.333007812 125 149.25 123.166992188 157.75 119.5 c 128
 166.25 115.833007812 173.666992188 110.916992188 180 104.75 c 128
 186.333007812 98.5830078125 191.333007812 91.3330078125 195 83 c 128
 198.666992188 74.6669921875 200.5 65.8330078125 200.5 56.5 c 0
EndSplineSet
EndChar

StartChar: slash
Encoding: 47 47 116
Width: 502
VWidth: 1024
GlyphClass: 2
Flags: HW
LayerCount: 2
Back
Fore
SplineSet
65.5 -95 m 1
 0 -95 l 1
 436 687 l 1
 502 687 l 1
 65.5 -95 l 1
EndSplineSet
EndChar

StartChar: u0966
Encoding: 2406 2406 117
Width: 667
GlyphClass: 2
Flags: HW
LayerCount: 2
Back
Fore
SplineSet
97 345 m 0
 97 470.208 200.798 571 337 571 c 0
 402.333 571 458.333 548.167 505 502.5 c 128
 551.667 456.833 574.667 401.333 574 336 c 0
 574 270 550 213.5 502 166.5 c 128
 454 119.5 397 96 331 96 c 256
 265 96 209.5 120.5 164.5 169.5 c 128
 119.5 218.5 97 277 97 345 c 0
512 359 m 0
 512 422.333 501.667 462.5 481 479.5 c 128
 460.333 496.5 419.333 505 358 505 c 0
 317.333 505 273 484 225 442 c 128
 177 400 153 357.667 153 315 c 0
 153 260.333 163.5 222.167 184.5 200.5 c 128
 205.5 178.833 247 168 309 168 c 0
 357 168 402.833 187.5 446.5 226.5 c 128
 490.167 265.5 512 309.667 512 359 c 0
EndSplineSet
EndChar

StartChar: u0967
Encoding: 2407 2407 118
Width: 667
GlyphClass: 2
Flags: HW
LayerCount: 2
Back
Fore
SplineSet
248 201 m 1
 356.109 110.188 498.02 -5.00134 501 -81 c 0
 501 -103 492.667 -122.333 476 -139 c 1
 400 -89 l 1
 403.681 -86.3004 424 -73.8 424 -51 c 0
 424 2.15966 246.717 162.719 168 222 c 1
 219.213 270.012 280.071 339.28 301 373 c 1
 209.533 422.442 138 486.823 138 543 c 0
 138 613.855 196.544 682 270 682 c 0
 368.585 682 447 580.437 447 511 c 0
 447 469.667 423.333 418.667 376 358 c 1
 248 201 l 1
317 401 m 1
 345.445 431.919 376 501.762 376 542 c 0
 376 594.198 346.137 631 298 631 c 0
 256.3 631 207 578.362 207 525 c 0
 207 487 243.667 445.667 317 401 c 1
EndSplineSet
EndChar

StartChar: u0968
Encoding: 2408 2408 119
Width: 667
GlyphClass: 2
Flags: HW
LayerCount: 2
Back
Fore
SplineSet
514 442 m 0
 514 318.263 439.71 240.462 335 206 c 1
 530 -65 l 1
 476 -100 l 1
 313 203 l 1
 293 203 l 2
 211.529 203 149 224.951 149 286 c 0
 149 313.9 166.541 360 213 360 c 0
 265.2 360 287.432 322.042 300 299 c 1
 342 299 381.667 315.667 419 349 c 0
 452.333 378.333 469 415.667 469 461 c 0
 469 563.483 383.45 613 270 613 c 0
 181.2 613 137.277 577.499 122 565 c 1
 71 642 l 1
 100 657 l 1
 146.667 677 201.667 687 265 687 c 0
 327 687 385 658.333 439 601 c 0
 489 547 514 494 514 442 c 0
EndSplineSet
EndChar

StartChar: u0969
Encoding: 2409 2409 120
Width: 667
GlyphClass: 2
Flags: HW
LayerCount: 2
Back
Fore
SplineSet
421 373 m 1
 444.953 349.047 517 240.442 517 192 c 0
 517 146.667 500 109.333 466 80 c 0
 425.333 44.6667 385.667 27 347 27 c 1
 539 -155 l 1
 493 -183 l 1
 325 22 l 1
 302 22 l 2
 218.884 22 155 36.518 155 104 c 0
 155 143.075 180.2 177 218 177 c 0
 272.73 177 305 124.968 305 113 c 1
 312.333 110.333 330.333 114 359 124 c 0
 429.667 148 465 182.333 465 227 c 0
 465 282.124 398.762 358.079 387 362 c 1
 346.5 362 299.25 340 252 340 c 1
 206 428 l 1
 215.378 426.124 226.814 426 237 426 c 0
 342.536 426 463 448.235 463 523 c 0
 463 568.333 446.333 597.333 413 610 c 0
 396.333 616 358.667 619 300 619 c 0
 240.4 619 165.48 592.068 151 587 c 1
 125 665 l 1
 165.667 682.333 211 691 261 691 c 0
 394.395 691 499 633.131 499 516 c 0
 499 446.365 447.121 386.06 421 373 c 1
EndSplineSet
EndChar

StartChar: u096A
Encoding: 2410 2410 121
Width: 667
GlyphClass: 2
Flags: HW
LayerCount: 2
Back
Fore
SplineSet
484 670 m 1
 515.635 654.182 569.932 605.739 571 547 c 1
 571 488.489 407.55 353 397 353 c 1
 406.443 353 514 267.871 514 199 c 0
 514 90.126 438.034 40 362 40 c 0
 283.668 40 194 118.15 194 217 c 0
 194 250.2 215.07 306.101 316 383 c 1
 269.256 422.081 134 533.188 134 586 c 256
 134 610.667 141.667 632.667 157 652 c 1
 174.333 667.333 183.333 675.333 184 676 c 2
 247 633 l 1
 217.43 621.735 188 594.011 188 566 c 0
 188 515.087 282.539 438.882 336 398 c 1
 371.908 424.931 505 521.525 505 563 c 0
 505 622.953 482.918 631.082 465 649 c 1
 484 670 l 1
452 221 m 0
 452 267.449 436.065 317.142 372 338 c 1
 357.333 338 329 312 287 260 c 0
 262.333 229.333 250 203 250 181 c 0
 250 125.861 274.223 78 325 78 c 0
 412.97 78 452 158.442 452 221 c 0
EndSplineSet
EndChar

StartChar: u096B
Encoding: 2411 2411 122
Width: 667
GlyphClass: 2
Flags: HW
LayerCount: 2
Back
Fore
SplineSet
491 465 m 0
 523.8 465 532 452.491 532 389 c 0
 532 360.333 519.667 332.667 495 306 c 0
 459.667 268 430.333 249 407 249 c 1
 350 9 l 1
 554 -95 l 1
 533 -137 l 1
 344 -17 l 1
 333.08 -36.1105 314.8 -60 271 -60 c 0
 231.7 -60 208 -29.7 208 0 c 0
 208 18.8 218.4 47 260 47 c 256
 270.4 47 296.78 46.1756 312 34 c 1
 379 242 l 1
 371.88 238.44 366.62 237 337 237 c 0
 222.51 237 146 384.763 146 518 c 0
 146 551.333 155.333 593.667 174 645 c 1
 203 717 l 1
 285 670 l 1
 227.349 573.145 209 516.4 209 478 c 0
 209 376.186 230.2 309 315 309 c 0
 339.627 309 390.093 327.683 397 332 c 1
 383 346 392.667 377 426 425 c 0
 444.667 451.667 466.333 465 491 465 c 0
EndSplineSet
EndChar

StartChar: u096C
Encoding: 2412 2412 123
Width: 667
GlyphClass: 2
Flags: HW
LayerCount: 2
Back
Fore
SplineSet
545 142 m 0
 545 72.9043 491.593 39.0574 472 27 c 1
 614 -163 l 1
 571 -193 l 1
 460 18 l 1
 435 13.5 l 130
 425.667 11.8333 416 11 406 11 c 0
 349.333 11 293.667 37.3333 239 90 c 0
 181.667 146 153 207.333 153 274 c 0
 153 324 167 362.333 195 389 c 1
 240 418 l 1
 199.349 449.861 129 509.8 129 571 c 0
 129 628.386 167.8 677 226 677 c 2
 477 677 l 1
 509 607 l 1
 259 607 l 2
 228.7 607 200 572.088 200 540 c 0
 200 477.446 242.198 427 259 427 c 2
 449 427 l 1
 485 356 l 1
 322 356 l 2
 262.17 356 216 298.441 216 233 c 0
 216 120.283 271.12 94 365 94 c 0
 403.4 94 413 110 413 149 c 0
 413 197.829 414.808 220 466 220 c 0
 529.2 220 545 183.569 545 142 c 0
EndSplineSet
EndChar

StartChar: u096D
Encoding: 2413 2413 124
Width: 585
GlyphClass: 2
Flags: HW
LayerCount: 2
Back
Fore
SplineSet
380 568 m 0
 497.729 568 567.103 440.594 571 312 c 1
 571 131.548 490.348 -13 329 -13 c 0
 112.737 -13 32 174.46 32 428 c 0
 32 486.834 38.2624 558.574 45 599 c 1
 89 599 l 1
 75.8473 581.463 62 537.935 62 499 c 1
 60.5108 487.087 57 430.545 57 406 c 0
 57 237.231 111.8 59 331 59 c 0
 393 59 439.667 82.3333 471 129 c 1
 491 177 501.667 202.333 503 205 c 1
 447 220.333 405.667 235.333 379 250 c 0
 295.667 296 254 358 254 436 c 0
 254 484.764 279.2 568 380 568 c 0
403 508 m 0
 353.116 508 324 456.188 324 402 c 0
 324 333.333 354.667 283.667 416 253 c 0
 436 243.667 466.667 235.333 508 228 c 1
 522 263.333 529 302 529 344 c 0
 529 439.724 488.531 508 403 508 c 0
EndSplineSet
EndChar

StartChar: u096E
Encoding: 2414 2414 125
Width: 667
GlyphClass: 2
Flags: HW
LayerCount: 2
Back
Fore
SplineSet
400 126 m 0
 571.175 126 603.822 73.4873 607 29 c 1
 607 -25.9165 587.064 -32.3831 554 -56 c 1
 522 -19 l 1
 552.099 -12.1593 570 0.2 570 29 c 0
 570 39.6667 547 45 501 45 c 2
 445 45 l 2
 389 45 337 64.3333 289 103 c 0
 223 155.667 190 229.333 190 324 c 0
 190 410.4 229.765 449.661 251 468 c 1
 106 468 l 1
 92 536 l 1
 549 536 l 1
 558 468 l 1
 368 468 l 2
 311.742 468 232 385.25 232 272 c 0
 232 190.361 302.543 126 400 126 c 0
EndSplineSet
EndChar

StartChar: u096F
Encoding: 2415 2415 126
Width: 667
GlyphClass: 2
Flags: HW
LayerCount: 2
Back
Fore
SplineSet
411 100 m 2
 514.528 100 614 76.4265 614 -22 c 0
 614 -62.9465 594.26 -70.4591 566 -88 c 1
 543 -65 l 1
 560.072 -58.0162 579 -54.9505 579 -21 c 0
 579 -2.2 513.9 26 428 26 c 0
 296.361 26 183 55.3133 183 252 c 0
 183 324.724 224.984 354.078 231 359 c 1
 111 357 l 1
 95 425 l 1
 254 425 l 1
 230.752 439.683 198 470.2 198 538 c 0
 198 634.847 268.764 662 378 662 c 0
 410 662 426 661 458 661 c 1
 469 596 l 1
 411.5 600.5 l 130
 390.5 602.167 370.667 603 352 603 c 0
 288.468 603 238 559.716 238 502 c 0
 238 455.8 281.411 433.166 297 425 c 1
 554 425 l 1
 563 360 l 1
 351 360 l 2
 313.516 360 232 266.772 232 204 c 0
 232 120.8 276.344 100 365 100 c 2
 411 100 l 2
EndSplineSet
EndChar

StartChar: colon
Encoding: 58 58 127
Width: 286
VWidth: 1024
GlyphClass: 2
Flags: HW
LayerCount: 2
Back
Fore
SplineSet
200.5 56.5 m 0
 200.5 46.8330078125 198.666992188 37.8330078125 195 29.5 c 128
 191.333007812 21.1669921875 186.333007812 13.9169921875 180 7.75 c 128
 173.666992188 1.5830078125 166.25 -3.3330078125 157.75 -7 c 128
 149.25 -10.6669921875 140.333007812 -12.5 131 -12.5 c 0
 121.333007812 -12.5 112.416992188 -10.6669921875 104.25 -7 c 128
 96.0830078125 -3.3330078125 88.8330078125 1.5830078125 82.5 7.75 c 128
 76.1669921875 13.9169921875 71.25 21.1669921875 67.75 29.5 c 128
 64.25 37.8330078125 62.5 46.8330078125 62.5 56.5 c 0
 62.5 65.8330078125 64.25 74.6669921875 67.75 83 c 128
 71.25 91.3330078125 76.1669921875 98.5830078125 82.5 104.75 c 128
 88.8330078125 110.916992188 96.0830078125 115.833007812 104.25 119.5 c 128
 112.416992188 123.166992188 121.333007812 125 131 125 c 0
 140.333007812 125 149.25 123.166992188 157.75 119.5 c 128
 166.25 115.833007812 173.666992188 110.916992188 180 104.75 c 128
 186.333007812 98.5830078125 191.333007812 91.3330078125 195 83 c 128
 198.666992188 74.6669921875 200.5 65.8330078125 200.5 56.5 c 0
200.5 437 m 256
 200.5 427.666992188 198.666992188 418.833007812 195 410.5 c 128
 191.333007812 402.166992188 186.333007812 394.916992188 180 388.75 c 128
 173.666992188 382.583007812 166.25 377.666992188 157.75 374 c 128
 149.25 370.333007812 140.333007812 368.5 131 368.5 c 0
 121.333007812 368.5 112.416992188 370.333007812 104.25 374 c 128
 96.0830078125 377.666992188 88.8330078125 382.583007812 82.5 388.75 c 128
 76.1669921875 394.916992188 71.25 402.166992188 67.75 410.5 c 128
 64.25 418.833007812 62.5 427.666992188 62.5 437 c 256
 62.5 446.333007812 64.25 455.25 67.75 463.75 c 128
 71.25 472.25 76.1669921875 479.583007812 82.5 485.75 c 128
 88.8330078125 491.916992188 96.0830078125 496.833007812 104.25 500.5 c 128
 112.416992188 504.166992188 121.333007812 506 131 506 c 0
 140.333007812 506 149.25 504.166992188 157.75 500.5 c 128
 166.25 496.833007812 173.666992188 491.916992188 180 485.75 c 128
 186.333007812 479.583007812 191.333007812 472.25 195 463.75 c 128
 198.666992188 455.25 200.5 446.333007812 200.5 437 c 256
EndSplineSet
EndChar

StartChar: semicolon
Encoding: 59 59 128
Width: 286
VWidth: 1024
GlyphClass: 2
Flags: HW
LayerCount: 2
Back
Fore
SplineSet
211 10 m 0
 211 -15.6669921875 206.083007812 -39.25 196.25 -60.75 c 128
 186.416992188 -82.25 173.25 -101.083007812 156.75 -117.25 c 128
 140.25 -133.416992188 121.333007812 -146.416992188 100 -156.25 c 128
 78.6669921875 -166.083007812 56.3330078125 -172 33 -174 c 1
 33 -137 l 1
 51 -133 67.0830078125 -127.583007812 81.25 -120.75 c 128
 95.4169921875 -113.916992188 107.25 -104.916992188 116.75 -93.75 c 128
 126.25 -82.5830078125 133.5 -68.8330078125 138.5 -52.5 c 128
 143.5 -36.1669921875 145.833007812 -16.3330078125 145.5 7 c 1
 81 7 l 1
 80.3330078125 7.6669921875 79 9.25 77 11.75 c 128
 75 14.25 72.9169921875 17.5 70.75 21.5 c 128
 68.5830078125 25.5 66.6669921875 30.25 65 35.75 c 128
 63.3330078125 41.25 62.5 47.5 62.5 54.5 c 0
 62.5 63.5 64.0830078125 72.1669921875 67.25 80.5 c 128
 70.4169921875 88.8330078125 74.8330078125 96.3330078125 80.5 103 c 128
 86.1669921875 109.666992188 92.8330078125 115 100.5 119 c 128
 108.166992188 123 116.666992188 125 126 125 c 0
 140.666992188 125 153.333007812 122.083007812 164 116.25 c 128
 174.666992188 110.416992188 183.5 102.416992188 190.5 92.25 c 128
 197.5 82.0830078125 202.666992188 69.9169921875 206 55.75 c 128
 209.333007812 41.5830078125 211 26.3330078125 211 10 c 0
199.5 437 m 256
 199.5 427.666992188 197.75 418.833007812 194.25 410.5 c 128
 190.75 402.166992188 185.833007812 394.916992188 179.5 388.75 c 128
 173.166992188 382.583007812 165.833007812 377.666992188 157.5 374 c 128
 149.166992188 370.333007812 140.333007812 368.5 131 368.5 c 0
 121.333007812 368.5 112.416992188 370.333007812 104.25 374 c 128
 96.0830078125 377.666992188 88.8330078125 382.583007812 82.5 388.75 c 128
 76.1669921875 394.916992188 71.25 402.166992188 67.75 410.5 c 128
 64.25 418.833007812 62.5 427.666992188 62.5 437 c 256
 62.5 446.333007812 64.3330078125 455.25 68 463.75 c 128
 71.6669921875 472.25 76.6669921875 479.583007812 83 485.75 c 128
 89.3330078125 491.916992188 96.6669921875 496.833007812 105 500.5 c 128
 113.333007812 504.166992188 122.333007812 506 132 506 c 0
 141.333007812 506 150.166992188 504.166992188 158.5 500.5 c 128
 166.833007812 496.833007812 174 491.916992188 180 485.75 c 128
 186 479.583007812 190.75 472.25 194.25 463.75 c 128
 197.75 455.25 199.5 446.333007812 199.5 437 c 256
EndSplineSet
EndChar

StartChar: u0907
Encoding: 2311 2311 130
Width: 487
GlyphClass: 2
Flags: HW
LayerCount: 2
Back
Fore
SplineSet
37 398 m 0
 37 459.734 63.8734 512 121 512 c 2
 304 512 l 1
 304 618 l 1
 -27 618 l 1
 -27 681 l 1
 596 681 l 1
 595 617 l 1
 380 617 l 1
 380 445 l 1
 135 445 l 2
 91 445 80 410.2 80 387 c 0
 80 346.996 105.291 311.29 138 305 c 1
 166 319 196.667 326 230 326 c 0
 338.111 326 429 258.4 429 157 c 0
 429 113.667 413.667 75.6667 383 43 c 0
 343 1.66667 306.333 -19 273 -19 c 1
 439 -165 l 1
 402 -200 l 1
 258 -26 l 1
 255.333 -30.6667 238.667 -33 208 -33 c 0
 138.613 -33 69 -11.1365 69 54 c 0
 69 93.175 95 122 134 122 c 0
 181.059 122 228 84.7641 228 66 c 1
 262.388 71.1906 385 85.4 385 163 c 0
 385 242.2 317.837 262 271 262 c 0
 228.333 262 194 249 168 223 c 1
 150.379 223 37 357.219 37 398 c 0
EndSplineSet
EndChar

StartChar: u0909
Encoding: 2313 2313 131
Width: 602
GlyphClass: 2
Flags: HW
LayerCount: 2
Back
Fore
SplineSet
427 521 m 0
 427 560.79 403.223 593.163 368 620 c 1
 -26 620 l 1
 -26 683 l 1
 709 683 l 1
 707 617 l 1
 394 617 l 1
 417.062 605.93 461 546.606 461 461 c 0
 461 416.303 440.3 383.3 428 371 c 1
 466.039 351.467 538 257.261 538 164 c 0
 538 23.2 439.9 -12 358 -12 c 0
 239.2 -12 131.963 91.4603 61 306 c 0
 37 377.333 27.3333 416.667 32 424 c 1
 60 435 l 1
 63.3333 403.667 67.3333 372.667 72 342 c 1
 124.473 82.0212 278.322 73 325 73 c 0
 403.882 73 494 126.398 494 204 c 0
 494 248.667 480 287.667 452 321 c 1
 422.667 347 407.667 360.333 407 361 c 0
 380.183 347.592 374.85 344.56 354 339 c 1
 289 327 l 1
 243 411 l 1
 283.667 411.667 314 414.667 334 420 c 0
 396 437.333 427 471 427 521 c 0
EndSplineSet
EndChar

StartChar: u090A
Encoding: 2314 2314 132
Width: 539
GlyphClass: 2
Flags: HW
LayerCount: 2
Back
Fore
SplineSet
421 513 m 0
 421 576 387.012 603.991 368 618 c 1
 -29 618 l 1
 -29 681 l 1
 943 681 l 1
 944 617 l 1
 393 617 l 1
 415.376 608.298 472 554.453 472 489 c 0
 472 415.723 443.371 389.418 427 379 c 1
 461 346 l 1
 483.7 368.7 582.898 427 636 427 c 0
 719.356 427 808 333.27 808 227 c 0
 808 124.332 726.703 12.8825 692 -4 c 1
 613 56 l 1
 628.312 65.9996 757 138.8 757 263 c 0
 757 322.659 748.133 358 675 358 c 0
 611.627 358 511.112 270.868 507 261 c 1
 514.481 253.519 525 211.785 525 155 c 0
 525 62.3746 452.059 -5 351 -5 c 0
 177 -5 84.5384 237.665 61 304 c 0
 36.3333 374 26.3333 412.667 31 420 c 1
 59 422 l 1
 63 392.667 67.6667 363.667 73 335 c 1
 103.99 209.847 171.8 80 320 80 c 0
 400.095 80 467 130 467 205 c 0
 467 316.988 426.88 353.56 404 365 c 1
 371.716 349.141 325.527 322 276 322 c 1
 233 403 l 1
 275 406.333 306 411 326 417 c 0
 389.333 436.333 421 468.333 421 513 c 0
EndSplineSet
EndChar

StartChar: question
Encoding: 63 63 133
Width: 497
VWidth: 1024
Flags: HW
LayerCount: 2
Back
Fore
SplineSet
427 520 m 0
 427 498.333007812 424 478.583007812 418 460.75 c 128
 412 442.916992188 404 426.75 394 412.25 c 128
 384 397.75 372.416992188 384.75 359.25 373.25 c 128
 346.083007812 361.75 332.333007812 351.416992188 318 342.25 c 128
 303.666992188 333.083007812 289.083007812 324.833007812 274.25 317.5 c 128
 259.416992188 310.166992188 245.5 303.666992188 232.5 298 c 1
 232.5 184.5 l 1
 175 184.5 l 1
 175 333 l 1
 191 338.333007812 207.75 345.916992188 225.25 355.75 c 128
 242.75 365.583007812 258.75 377.833007812 273.25 392.5 c 128
 287.75 407.166992188 299.75 424.416992188 309.25 444.25 c 128
 318.75 464.083007812 323.5 486.666992188 323.5 512 c 0
 323.5 559.666992188 310.833007812 595.166992188 285.5 618.5 c 128
 260.166992188 641.833007812 224 653.5 177 653.5 c 1
 135 549 l 1
 132 548.666992188 129.333007812 548.5 127 548.5 c 1
 125 548.166992188 123.166992188 548 121.5 548 c 2
 118 548 l 2
 108.666992188 548 99.9169921875 549 91.75 551 c 128
 83.5830078125 553 76.5 556.25 70.5 560.75 c 128
 64.5 565.25 59.75 571 56.25 578 c 128
 52.75 585 51 593.333007812 51 603 c 0
 51 615 54.25 627 60.75 639 c 128
 67.25 651 77.25 661.75 90.75 671.25 c 128
 104.25 680.75 121.166992188 688.5 141.5 694.5 c 128
 161.833007812 700.5 186 703.5 214 703.5 c 0
 244.333007812 703.5 272.5 699.166992188 298.5 690.5 c 128
 324.5 681.833007812 347 669.583007812 366 653.75 c 128
 385 637.916992188 399.916992188 618.666992188 410.75 596 c 128
 421.583007812 573.333007812 427 548 427 520 c 0
268.5 50 m 256
 268.5 41.3330078125 266.833007812 33.25 263.5 25.75 c 128
 260.166992188 18.25 255.583007812 11.6669921875 249.75 6 c 128
 243.916992188 0.3330078125 237.166992188 -4.1669921875 229.5 -7.5 c 128
 221.833007812 -10.8330078125 213.666992188 -12.5 205 -12.5 c 256
 196.333007812 -12.5 188.166992188 -10.8330078125 180.5 -7.5 c 128
 172.833007812 -4.1669921875 166.166992188 0.4169921875 160.5 6.25 c 128
 154.833007812 12.0830078125 150.416992188 18.8330078125 147.25 26.5 c 128
 144.083007812 34.1669921875 142.5 42.3330078125 142.5 51 c 256
 142.5 59.6669921875 144.083007812 67.8330078125 147.25 75.5 c 128
 150.416992188 83.1669921875 154.833007812 89.8330078125 160.5 95.5 c 128
 166.166992188 101.166992188 172.833007812 105.583007812 180.5 108.75 c 128
 188.166992188 111.916992188 196.333007812 113.5 205 113.5 c 0
 214 113.5 222.333007812 111.833007812 230 108.5 c 128
 237.666992188 105.166992188 244.333007812 100.583007812 250 94.75 c 128
 255.666992188 88.9169921875 260.166992188 82.1669921875 263.5 74.5 c 128
 266.833007812 66.8330078125 268.5 58.6669921875 268.5 50 c 256
EndSplineSet
EndChar

StartChar: u090B
Encoding: 2315 2315 134
Width: 473
GlyphClass: 2
Flags: HW
LayerCount: 2
Back
Fore
SplineSet
239 425 m 0
 204.389 425 78.0005 372 78 372 c 2
 45 456 l 1
 208 495 l 1
 234.098 497.747 248.108 484.03 272 459 c 1
 300.986 426.793 374.373 336.412 383 317 c 1
 383 619 l 1
 -27 619 l 1
 -27 682 l 1
 899 682 l 1
 898 617 l 1
 459 617 l 1
 459 318 l 1
 573 379 l 1
 561 391.667 555 408 555 428 c 0
 555 453.925 568.4 497 622 497 c 0
 662 497 672 463.4 672 441 c 0
 672 401.414 648.658 364 613 364 c 1
 719 208 l 1
 706.333 220.667 677.333 206 632 164 c 0
 605.333 139.333 592 110 592 76 c 0
 592 32.6667 623.667 11 687 11 c 0
 737.12 11 760.719 40.8993 768 50 c 1
 808 -31 l 1
 803.769 -35.2308 747.843 -61 702 -61 c 0
 613.801 -61 559 25.5592 559 120 c 0
 559 172.231 574.9 243.032 650 267 c 1
 593 355 l 1
 459 264 l 1
 459 -52 l 1
 382 8 l 1
 382 220 l 1
 140 65 l 1
 96 146 l 1
 383 277 l 1
 383 288 l 1
 271 411 l 2
 263.667 420.333 253 425 239 425 c 0
EndSplineSet
EndChar

StartChar: u0960
Encoding: 2400 2400 135
Width: 473
GlyphClass: 2
Flags: HW
LayerCount: 2
Back
Fore
SplineSet
539 158 m 0
 539 203.75 589.399 237.518 650 267 c 1
 593 355 l 1
 459 264 l 1
 459 -52 l 1
 382 8 l 1
 382 220 l 1
 140 65 l 1
 96 146 l 1
 383 277 l 1
 383 288 l 1
 271 411 l 2
 263.667 420.333 253 425 239 425 c 0
 204.389 425 78.0005 372 78 372 c 2
 45 456 l 1
 208 495 l 1
 234.098 497.747 248.108 484.03 272 459 c 1
 300.986 426.793 374.373 336.412 383 317 c 1
 383 619 l 1
 -27 619 l 1
 -27 682 l 1
 899 682 l 1
 899 619 l 1
 460 619 l 1
 460 320 l 1
 574 381 l 1
 562 393.667 556 410 556 430 c 0
 556 455.925 569.4 499 623 499 c 0
 663 499 673 465.4 673 443 c 0
 673 403.414 649.658 366 614 366 c 1
 706 228 l 1
 608.574 197.148 595 163.2 595 147 c 0
 595 124.666 625.505 110 653 110 c 0
 680.575 110 694.975 115.7 709 131 c 1
 766 74 l 1
 724.421 53.2106 644 12.2 644 -29 c 0
 644 -62.3333 664.333 -79 705 -79 c 0
 738.994 -79 776.822 -60.0644 796 -49 c 1
 832 -95 l 1
 792 -119.667 753.333 -132 716 -132 c 256
 635.432 -132 586 -71.537 586 -17 c 0
 586 31 614.84 52.0175 632 63 c 1
 548.293 88.9781 539 120 539 158 c 0
EndSplineSet
EndChar

StartChar: u090F
Encoding: 2319 2319 139
Width: 602
GlyphClass: 2
Flags: HW
LayerCount: 2
Back
Fore
SplineSet
354 262 m 1
 377.656 262 424 276.188 424 322 c 2
 424 618 l 1
 158 618 l 1
 158 217 l 1
 544 -23 l 1
 569.419 -36.2621 595 -59.317 595 -97 c 0
 595 -143 552.299 -187.701 528 -212 c 1
 443 -134 l 2
 448.852 -139.852 560 -99.967 560 -79 c 0
 560 -62.2388 552.611 -56.2212 549 -49 c 1
 76 226 l 1
 76 622 l 1
 -26 622 l 1
 -26 685 l 1
 706 685 l 1
 704 617 l 1
 503 617 l 1
 503 321 l 2
 503 272.555 467.627 212 425 212 c 1
 354 262 l 1
EndSplineSet
EndChar

StartChar: u0915.half
Encoding: 65551 -1 140
Width: 536
GlyphClass: 3
Flags: HW
AnchorPoint: "N" 185 165 basechar 0
LayerCount: 2
Back
Fore
SplineSet
443 380 m 1
 458.357 405.864 480.105 430 580 430 c 2
 602 430 l 1
 599 355 l 1
 589 358.333 577.667 360 565 360 c 0
 506.196 360 455.284 317.947 440 267 c 1
 440 -49 l 1
 358 11 l 1
 358 200 l 1
 321.03 157.989 275.2 127 220 127 c 0
 129.776 127 46 228.414 46 318 c 0
 46 451.6 142.962 485 225 485 c 0
 248.333 485 262.667 483.667 268 481 c 1
 310 396 l 1
 304 402 284 405 250 405 c 0
 155.126 405 104 357.588 104 267 c 0
 104 204.6 155.715 189 181 189 c 0
 260.866 189 360 305.33 360 319 c 2
 360 615 l 1
 -23 615 l 1
 -23 678 l 1
 685 678 l 1
 685 615 l 1
 443 615 l 1
 443 380 l 1
EndSplineSet
Ligature2: "'half' Half Forms in Devanagari lookup 3 subtable" u0915 u094D
LCarets2: 1 2
EndChar

StartChar: u0958.half
Encoding: 65552 -1 141
Width: 536
GlyphClass: 3
Flags: HW
LayerCount: 2
Back
Fore
SplineSet
564 355 m 0
 505.196 355 454.284 312.947 439 262 c 1
 439 -54 l 1
 357 6 l 1
 357 195 l 1
 339.178 171.238 319.653 154.88 291 145 c 1
 37 -53 l 1
 -20 9 l 1
 174 132 l 1
 104.985 156.283 42 234.484 42 315 c 0
 42 448.6 138.962 482 221 482 c 0
 244.333 482 258.667 480.667 264 478 c 1
 306 393 l 1
 300 399 280 402 246 402 c 0
 151.126 402 100 354.588 100 264 c 0
 100 201.6 151.715 186 177 186 c 0
 256.866 186 356 302.33 356 316 c 2
 356 612 l 1
 -27 612 l 1
 -27 675 l 1
 639 675 l 1
 639 612 l 1
 439 612 l 1
 439 377 l 1
 454.357 402.864 476.105 427 576 427 c 2
 598 427 l 1
 598 350 l 1
 588 353.333 576.667 355 564 355 c 0
EndSplineSet
Ligature2: "'half' Half Forms in Devanagari lookup 3 subtable" u0958 u094D
EndChar

StartChar: u0915
Encoding: 2325 2325 142
Width: 536
GlyphClass: 2
Flags: HW
AnchorPoint: "N" 104 156 basechar 0
LayerCount: 2
Back
Fore
SplineSet
90 301 m 0
 90 236.824 113.409 187 173 187 c 0
 213.667 187 256.667 210.333 302 257 c 0
 339.333 295 358 319.333 358 330 c 2
 358 617 l 1
 -25 617 l 1
 -25 680 l 1
 876 680 l 1
 873 617 l 1
 438 617 l 1
 438 379 l 2
 438.945 389.391 498.876 455 561 455 c 0
 636.206 455 725 352.775 725 243 c 256
 725 128.962 631.399 8.58193 609 -7 c 1
 541 47 l 1
 614.22 111.504 663 192.2 663 289 c 0
 663 347.975 656.775 376 595 376 c 0
 519.42 376 438 276.104 438 260 c 2
 438 -49 l 1
 356 11 l 1
 356 207 l 1
 350.209 198.314 297.6 110 210 110 c 0
 121.65 110 42 229.178 42 331 c 0
 42 473.4 154.666 509 246 509 c 0
 250.667 509 257.333 508.667 266 508 c 1
 305 427 l 1
 301.667 428.333 289 429 267 429 c 0
 185 429 90 403.4 90 301 c 0
EndSplineSet
EndChar

StartChar: u0958
Encoding: 2392 2392 143
Width: 536
GlyphClass: 2
Flags: HW
LayerCount: 2
Back
Fore
SplineSet
90 301 m 0
 90 236.824 113.409 187 173 187 c 0
 213.667 187 256.667 210.333 302 257 c 0
 339.333 295 358 319.333 358 330 c 2
 358 617 l 1
 -25 617 l 1
 -25 680 l 1
 862 680 l 1
 859 617 l 1
 438 617 l 1
 438 379 l 2
 438.945 389.391 498.876 455 561 455 c 0
 636.206 455 725 352.775 725 243 c 256
 725 128.962 631.399 8.58193 609 -7 c 1
 541 47 l 1
 614.22 111.504 663 192.2 663 289 c 0
 663 347.975 656.775 376 595 376 c 0
 519.42 376 438 276.104 438 260 c 2
 438 -49 l 1
 356 11 l 1
 356 207 l 1
 350.209 198.314 297.6 110 210 110 c 0
 121.65 110 42 229.178 42 331 c 0
 42 473.4 154.666 509 246 509 c 0
 250.667 509 257.333 508.667 266 508 c 1
 305 427 l 1
 301.667 428.333 289 429 267 429 c 0
 185 429 90 403.4 90 301 c 0
146 8 m 1
 84 -54 l 1
 21 14 l 1
 81 74 l 1
 146 8 l 1
EndSplineSet
EndChar

StartChar: u0915.vatu
Encoding: 65553 -1 144
Width: 536
GlyphClass: 3
Flags: HW
AnchorPoint: "N" 52 -108 basechar 0
LayerCount: 2
Back
Fore
SplineSet
288 435 m 0
 189.442 435 111 398.565 111 318 c 0
 111 234.8 167.567 214 211 214 c 1
 353 318 l 1
 353 614 l 1
 -27 614 l 1
 -27 677 l 1
 874 677 l 1
 873 617 l 1
 435 617 l 1
 435 388 l 1
 442.119 405.086 500.183 444 557 444 c 0
 640.314 444 716 331.337 716 223 c 0
 716 184.333 707.333 142.667 690 98 c 0
 668.667 45.3333 646.333 7.33333 623 -16 c 1
 542 44 l 1
 608.172 107.021 669 185.6 669 280 c 0
 669 348 620.175 365 577 365 c 0
 513.377 365 449.634 327.811 434 277 c 1
 434 -50 l 1
 355 -1 l 1
 355 242 l 1
 71 10 l 1
 20 81 l 1
 181 193 l 1
 126.209 215.631 45 256.6 45 352 c 0
 45 418 79 463.333 147 488 c 0
 198.333 507.333 234.667 513.333 256 506 c 1
 310 434 l 2
 309.333 434.667 302 435 288 435 c 0
EndSplineSet
Ligature2: "'vatu' Vattu Variants in Devanagari lookup 4 subtable" u0915 u0930.sub
LCarets2: 1 0
EndChar

StartChar: u0915_u094D_u0924
Encoding: 65554 -1 145
Width: 634
GlyphClass: 2
Flags: HW
LayerCount: 2
Back
Fore
SplineSet
92 299 m 0
 92 365.338 156.495 390.618 178 401 c 1
 31 399 l 1
 15 473 l 1
 439 473 l 1
 439 617 l 1
 -24 617 l 1
 -24 680 l 1
 982 680 l 1
 978 617 l 1
 517 617 l 1
 517 440 l 1
 543.23 452.425 603.4 475 661 475 c 0
 698.333 475 737.167 455.667 777.5 417 c 128
 817.833 378.333 838 335.667 838 289 c 0
 838 178.382 762.733 6.09333 745 -1 c 1
 667 56 l 1
 708.71 109.474 781 211.4 781 315 c 0
 781 357 774.333 382.833 761 392.5 c 128
 747.667 402.167 719.667 407 677 407 c 0
 617.044 407 521.816 353.243 517 340 c 1
 517 -47 l 1
 436 13 l 1
 436 400 l 1
 294 400 l 2
 216.798 400 178 306.175 178 251 c 0
 178 197 192 146.333 220 99 c 0
 258 33 292.333 -3.66667 323 -11 c 1
 301 -25 l 1
 289 -25 253.667 10.6667 195 82 c 0
 126.333 165.333 92 237.667 92 299 c 0
EndSplineSet
EndChar

StartChar: u0915_u094D_u0937.half
Encoding: 65556 -1 147
Width: 424
GlyphClass: 3
Flags: HW
AnchorPoint: "N" 124 108 basechar 0
LayerCount: 2
Back
Fore
SplineSet
518 617 m 1
 408 617 l 1
 389 680 l 1
 519 680 l 1
 518 617 l 1
379 396 m 0
 398.114 396 457.967 398.561 535 457 c 1
 534 350 l 1
 499.251 340.855 464.147 335 427 335 c 0
 394.8 335 338.102 350.679 266 396 c 1
 255.3 389.943 108 317.429 108 205 c 0
 108 147.4 147.431 133 183 133 c 0
 210.57 133 232.453 139.832 259 148 c 1
 254.5 166.5 l 130
 252.833 173.5 252 182 252 192 c 0
 252 216.072 262.708 250 308 250 c 0
 351.723 250 380 221.581 380 174 c 0
 380 117 340.953 92.0653 317 79 c 1
 409 -44 l 1
 369 -66 l 1
 298 74 l 1
 272.558 68.6438 268.852 68 246 68 c 0
 135.9 68 46 147.2 46 266 c 0
 46 311.333 70.6667 355 120 397 c 0
 160 430.333 186.333 447 199 447 c 1
 177.97 447 63 504.688 63 596 c 0
 63 676 146.089 696 191 696 c 0
 282.26 696 374 627.434 374 533 c 0
 374 485.602 313.389 421.347 284 414 c 1
 299.559 404.665 322 396 379 396 c 0
210 457 m 1
 255.334 488.734 301.831 529.436 303 568 c 1
 303 619.651 292.881 645.696 254 652.5 c 128
 240.667 654.833 232.5 656 229.5 656 c 130
 224 656 l 2
 169.843 656 136 618.789 136 559 c 0
 136 497.8 190.037 468.18 210 457 c 1
EndSplineSet
Ligature2: "'half' Half Forms in Devanagari lookup 3 subtable" u0915_u094D_u0937 u094D
LCarets2: 1 0
EndChar

StartChar: u0916.half
Encoding: 65557 -1 149
Width: 536
GlyphClass: 3
Flags: HW
AnchorPoint: "N" 130 125 basechar 0
LayerCount: 2
Back
Fore
SplineSet
473 241 m 0
 541 241 633.727 316.983 643 324 c 1
 645 226 l 1
 607 188 557.883 170 511 170 c 0
 409.875 170 326 244.798 326 359 c 0
 326 468.895 417.958 516 503 516 c 0
 523 516 542.667 513.333 562 508 c 1
 598 425 l 1
 574.667 439.667 546.667 447 514 447 c 0
 435.57 447 364 403.081 364 329 c 0
 364 276.2 391.3 241 473 241 c 0
399 46 m 0
 516.861 46 611.9 89.9 644 122 c 1
 643 95 l 1
 597.007 60.9309 482.2 -24 375 -24 c 0
 295 -24 219.333 32.6667 148 146 c 0
 86.6667 242.667 56 321.333 56 382 c 0
 56 402 63.3333 412 78 412 c 2
 150 412 l 1
 150 616 l 1
 -27 616 l 1
 -27 679 l 1
 645 679 l 1
 645 616 l 1
 214 616 l 1
 223.234 604.458 236 551.328 236 505 c 0
 236 337.698 172.879 290.957 114 262 c 1
 140.509 181.558 228 46 399 46 c 0
EndSplineSet
Ligature2: "'half' Half Forms in Devanagari lookup 3 subtable" u0916 u094D
LCarets2: 1 0
EndChar

StartChar: u0959.half
Encoding: 65558 -1 151
Width: 536
GlyphClass: 3
Flags: HW
LayerCount: 2
Back
Fore
SplineSet
473 241 m 0
 541 241 633.727 316.983 643 324 c 1
 645 226 l 1
 607 188 557.883 170 511 170 c 0
 409.875 170 326 244.798 326 359 c 0
 326 468.895 417.958 516 503 516 c 0
 523 516 542.667 513.333 562 508 c 1
 598 425 l 1
 574.667 439.667 546.667 447 514 447 c 0
 435.57 447 364 403.081 364 329 c 0
 364 276.2 391.3 241 473 241 c 0
399 46 m 0
 516.861 46 611.9 89.9 644 122 c 1
 643 95 l 1
 597.007 60.9309 482.2 -24 375 -24 c 0
 295 -24 219.333 32.6667 148 146 c 0
 86.6667 242.667 56 321.333 56 382 c 0
 56 402 63.3333 412 78 412 c 2
 150 412 l 1
 150 616 l 1
 -27 616 l 1
 -27 679 l 1
 645 679 l 1
 645 616 l 1
 214 616 l 1
 223.234 604.458 236 551.328 236 505 c 0
 236 337.698 172.879 290.957 114 262 c 1
 140.509 181.558 228 46 399 46 c 0
142 24 m 1
 80 -38 l 1
 17 30 l 1
 77 90 l 1
 142 24 l 1
EndSplineSet
Ligature2: "'half' Half Forms in Devanagari lookup 3 subtable" u0959 u094D
EndChar

StartChar: u0916.half.vatu
Encoding: 65560 -1 153
Width: 536
GlyphClass: 3
Flags: HW
LayerCount: 2
Back
Fore
SplineSet
473 241 m 0
 541 241 633.727 316.983 643 324 c 1
 645 226 l 1
 607 188 557.883 170 511 170 c 0
 409.875 170 326 244.798 326 359 c 0
 326 468.895 417.958 516 503 516 c 0
 523 516 542.667 513.333 562 508 c 1
 598 425 l 1
 574.667 439.667 546.667 447 514 447 c 0
 435.57 447 364 403.081 364 329 c 0
 364 276.2 391.3 241 473 241 c 0
398 45 m 0
 502.434 45 583.513 89.736 647 127 c 1
 647 73 l 1
 342 -165 l 1
 285 -102 l 1
 411 -23 l 1
 374 -25 l 1
 294 -25 218.333 31.6667 147 145 c 0
 85.6667 241.667 55 320.333 55 381 c 0
 55 401 62.3333 411 77 411 c 2
 149 411 l 1
 149 615 l 1
 -28 615 l 1
 -28 678 l 1
 644 678 l 1
 644 615 l 1
 213 615 l 1
 222.234 603.458 235 550.328 235 504 c 0
 235 336.698 171.879 289.957 113 261 c 1
 139.509 180.558 227 45 398 45 c 0
EndSplineSet
Ligature2: "'vatu' Vattu Variants in Devanagari lookup 4 subtable" u0916.half u0930.sub
LCarets2: 1 0
EndChar

StartChar: u0917.half
Encoding: 65561 -1 156
Width: 341
GlyphClass: 3
Flags: HW
AnchorPoint: "N" 25 430 basechar 0
LayerCount: 2
Back
Fore
SplineSet
53 378 m 0
 53 380.4 56.2 398 69 398 c 2
 146 398 l 1
 146 616 l 1
 -27 616 l 1
 -27 679 l 1
 435 679 l 1
 434 617 l 1
 224 617 l 1
 224 260 l 2
 224 250.717 212.474 241 201 241 c 1
 180.552 238.274 53 352.816 53 378 c 0
EndSplineSet
Ligature2: "'half' Half Forms in Devanagari lookup 3 subtable" u0917 u094D
LCarets2: 1 0
EndChar

StartChar: u095A.half
Encoding: 65562 -1 158
Width: 341
GlyphClass: 3
Flags: HW
LayerCount: 2
Back
Fore
SplineSet
53 378 m 0
 53 380.4 56.2 398 69 398 c 2
 146 398 l 1
 146 616 l 1
 -27 616 l 1
 -27 679 l 1
 435 679 l 1
 434 617 l 1
 224 617 l 1
 224 260 l 2
 224 250.717 212.474 241 201 241 c 1
 180.552 238.274 53 352.816 53 378 c 0
214 21 m 1
 151 -41 l 1
 89 27 l 1
 149 87 l 1
 214 21 l 1
EndSplineSet
Ligature2: "'half' Half Forms in Devanagari lookup 3 subtable" u095A u094D
EndChar

StartChar: u0917.half.vatu
Encoding: 65564 -1 160
Width: 341
GlyphClass: 3
Flags: HW
LayerCount: 2
Back
Fore
SplineSet
53 378 m 0
 53 380.4 56.2 398 69 398 c 2
 146 398 l 1
 146 616 l 1
 -27 616 l 1
 -27 679 l 1
 435 679 l 1
 434 617 l 1
 224 617 l 1
 224 260 l 2
 224 250.717 212.474 241 201 241 c 1
 180.552 238.274 53 352.816 53 378 c 0
454 128 m 1
 149 -109 l 1
 92 -47 l 1
 454 182 l 1
 454 128 l 1
EndSplineSet
Ligature2: "'vatu' Vattu Variants in Devanagari lookup 4 subtable" u0917.half u0930.sub
EndChar

StartChar: u0918.half
Encoding: 65565 -1 162
Width: 341
GlyphClass: 3
Flags: HW
AnchorPoint: "N" 110 305 basechar 0
LayerCount: 2
Back
Fore
SplineSet
257 175 m 0
 340.892 175 443.305 248.915 449 266 c 1
 448 172 l 1
 442.116 159.055 349.156 102 283 102 c 0
 244.333 102 201 121.333 153 160 c 0
 97.6667 205.333 70 256 70 312 c 0
 70 373.748 111.868 398.395 156 422 c 1
 58 500 l 1
 58 614 l 1
 -24 614 l 1
 -24 677 l 1
 452 677 l 1
 452 614 l 1
 139 614 l 1
 139 473 l 1
 179 430 l 1
 243.004 438.649 253.836 442 286 442 c 1
 332 372 l 1
 287.333 371.333 254 368.667 232 364 c 0
 165.333 348.667 132 315 132 263 c 0
 132 223 141.667 197.667 161 187 c 0
 175.667 179 207.667 175 257 175 c 0
EndSplineSet
Ligature2: "'half' Half Forms in Devanagari lookup 3 subtable" u0918 u094D
LCarets2: 1 0
EndChar

StartChar: u0918.half.vatu
Encoding: 65567 -1 164
Width: 341
GlyphClass: 3
Flags: HW
LayerCount: 2
Back
Fore
SplineSet
254 173 m 0
 337.892 173 440.305 246.915 446 264 c 1
 448 172 l 1
 149 -46 l 1
 92 16 l 1
 238 108 l 1
 151.772 137.641 67 215.895 67 310 c 0
 67 371.748 108.868 396.395 153 420 c 1
 55 498 l 1
 55 612 l 1
 -27 612 l 1
 -27 675 l 1
 449 675 l 1
 449 612 l 1
 136 612 l 1
 136 471 l 1
 176 428 l 1
 240.004 436.649 250.836 440 283 440 c 1
 329 370 l 1
 284.333 369.333 251 366.667 229 362 c 0
 162.333 346.667 129 313 129 261 c 0
 129 221 138.667 195.667 158 185 c 0
 172.667 177 204.667 173 254 173 c 0
EndSplineSet
Ligature2: "'vatu' Vattu Variants in Devanagari lookup 4 subtable" u0918.half u0930.sub
EndChar

StartChar: u0919
Encoding: 2329 2329 165
Width: 453
GlyphClass: 2
Flags: HW
AnchorPoint: "N" 160 125 basechar 0
LayerCount: 2
Back
Fore
SplineSet
602 378 m 1
 537 315 l 1
 469 379 l 1
 537 444 l 1
 602 378 l 1
80 444 m 256
 80 486.225 107.6 523 149 523 c 2
 346 523 l 1
 346 618 l 1
 -29 618 l 1
 -29 681 l 1
 722 681 l 1
 724 616 l 1
 416 616 l 1
 416 453 l 1
 195 453 l 2
 176.333 453 162.667 450.5 154 445.5 c 128
 145.333 440.5 141 425 141 399 c 0
 141 382 150.005 349.995 186 314 c 1
 193.42 321.42 276.696 351 313 351 c 0
 383 351 473 319 473 191 c 0
 473 78.5863 405.23 4 297 4 c 0
 235.667 4 172 38 106 106 c 0
 50 162.667 22 200.333 22 219 c 1
 37 230 l 1
 94.0943 110.102 197.979 92 262 92 c 0
 349.956 92 447 128.277 447 197 c 0
 447 245 418.333 269 361 269 c 0
 320.06 269 270.424 260.906 225 232 c 1
 210.333 232 176.667 270.667 124 348 c 0
 94.6667 390.667 80 422.667 80 444 c 256
EndSplineSet
EndChar

StartChar: u091A.half
Encoding: 65568 -1 167
Width: 407
GlyphClass: 3
Flags: HW
AnchorPoint: "N" 120 250 basechar 0
LayerCount: 2
Back
Fore
SplineSet
513 617 m 1
 -28 617 l 1
 -28 680 l 1
 513 680 l 1
 513 617 l 1
319 164 m 0
 418.735 164 503.324 237.31 516 269 c 1
 515 150 l 1
 471.681 108.228 410.716 94 360 94 c 0
 232.312 94 117 173.6 117 293 c 0
 117 350.946 150.423 400.346 185 423 c 1
 48 423 l 1
 19 491 l 1
 401 491 l 1
 434 423 l 1
 320 423 l 2
 303.625 423 185 338.559 185 263 c 0
 185 187.412 218.607 164 319 164 c 0
EndSplineSet
Ligature2: "'half' Half Forms in Devanagari lookup 3 subtable" u091A u094D
LCarets2: 1 0
EndChar

StartChar: u091A.half.vatu
Encoding: 65570 -1 169
Width: 407
GlyphClass: 3
Flags: HW
LayerCount: 2
Back
Fore
SplineSet
320 161 m 0
 419.735 161 504.324 234.31 517 266 c 1
 517 146 l 1
 495.667 124.667 468.667 109 436 99 c 1
 191 -91 l 1
 134 -29 l 1
 322 93 l 1
 211.473 108.79 118 181.763 118 290 c 0
 118 347.946 151.423 397.346 186 420 c 1
 49 420 l 1
 20 488 l 1
 402 488 l 1
 435 420 l 1
 321 420 l 2
 304.625 420 186 335.559 186 260 c 0
 186 184.412 219.607 161 320 161 c 0
528 613 m 1
 -27 613 l 1
 -27 676 l 1
 528 676 l 1
 528 613 l 1
EndSplineSet
Ligature2: "'vatu' Vattu Variants in Devanagari lookup 4 subtable" u091A.half u0930.sub
EndChar

StartChar: u091B
Encoding: 2331 2331 170
Width: 667
GlyphClass: 2
Flags: HW
AnchorPoint: "N" 95 100 basechar 0
LayerCount: 2
Back
Fore
SplineSet
60 257 m 0
 60 328.4 144.18 369.194 156 376 c 1
 70 473 l 1
 70 614 l 1
 -26 614 l 1
 -26 677 l 1
 766 677 l 1
 764 617 l 1
 517 617 l 1
 517 522 l 1
 529 514 541.333 506.333 554 499 c 1
 601.333 459 625 396.333 625 311 c 0
 625 69.4273 479.125 -1 351 -1 c 0
 281 -1 216.333 23 157 71 c 0
 92.3333 123.667 60 185.667 60 257 c 0
488 459 m 0
 450.8 459 426 412.872 426 357 c 0
 426 256.2 486.699 213.977 544 189 c 1
 554.581 210.918 583 285.6 583 350 c 0
 583 432.45 545 459 488 459 c 0
120 207 m 0
 120 83.8 222.344 53 301 53 c 0
 398.141 53 494.519 96.2594 537 173 c 1
 496.333 189.667 466 205 446 219 c 0
 384 263.667 353 319 353 385 c 0
 353 475.608 411.281 521 458 521 c 1
 458 613 l 1
 150 613 l 1
 150 423 l 1
 176 384 l 1
 190.042 384 223.17 398 238 398 c 1
 289 333 l 1
 231.342 333 120 282.6 120 207 c 0
EndSplineSet
EndChar

StartChar: u091C.half
Encoding: 65571 -1 174
Width: 470
GlyphClass: 3
Flags: HW
AnchorPoint: "N" 130 275 basechar 0
LayerCount: 2
Back
Fore
SplineSet
593 617 m 1
 -28 617 l 1
 -28 680 l 1
 593 680 l 1
 593 617 l 1
332 281 m 0
 332 351.8 289.622 414.596 253 458 c 1
 563 458 l 1
 565 385 l 1
 333 385 l 1
 354.476 340.705 383 277.805 383 240 c 0
 383 119.5 309.4 104 266 104 c 0
 202.667 104 142.333 154.667 85 256 c 0
 33.6667 346 11.6667 398 19 412 c 1
 42 423 l 1
 47.6578 395.418 79.4 192 229 192 c 0
 297.667 192 332 221.667 332 281 c 0
EndSplineSet
Ligature2: "'half' Half Forms in Devanagari lookup 3 subtable" u091C u094D
LCarets2: 1 5
EndChar

StartChar: u095B.half
Encoding: 65572 -1 176
Width: 470
GlyphClass: 3
Flags: HW
LayerCount: 2
Back
Fore
SplineSet
579 617 m 1
 -28 617 l 1
 -28 680 l 1
 579 680 l 1
 579 617 l 1
157 22 m 1
 95 -40 l 1
 32 28 l 1
 92 88 l 1
 157 22 l 1
333 280 m 0
 333 350.8 290.622 413.596 254 457 c 1
 564 457 l 1
 566 384 l 1
 334 384 l 1
 355.476 339.705 384 276.805 384 239 c 0
 384 118.5 310.4 103 267 103 c 0
 203.667 103 143.333 153.667 86 255 c 0
 34.6667 345 12.6667 397 20 411 c 1
 43 422 l 1
 48.6578 394.418 80.4 191 230 191 c 0
 298.667 191 333 220.667 333 280 c 0
EndSplineSet
Ligature2: "'half' Half Forms in Devanagari lookup 3 subtable" u095B u094D
LCarets2: 1 0
EndChar

StartChar: u091C.half.vatu
Encoding: 65574 -1 178
Width: 470
GlyphClass: 3
Flags: HW
LayerCount: 2
Back
Fore
SplineSet
565 617 m 1
 -28 617 l 1
 -28 680 l 1
 565 680 l 1
 565 617 l 1
579 150 m 1
 274 -87 l 1
 217 -25 l 1
 579 204 l 1
 579 150 l 1
332 280 m 0
 332 350.8 289.622 413.596 253 457 c 1
 563 457 l 1
 565 384 l 1
 333 384 l 1
 354.476 339.705 383 276.805 383 239 c 0
 383 118.5 309.4 103 266 103 c 0
 202.667 103 142.333 153.667 85 255 c 0
 33.6667 345 11.6667 397 19 411 c 1
 42 422 l 1
 47.6578 394.418 79.4 191 229 191 c 0
 297.667 191 332 220.667 332 280 c 0
EndSplineSet
Ligature2: "'vatu' Vattu Variants in Devanagari lookup 4 subtable" u091C.half u0930.sub
EndChar

StartChar: u091C_u094D_u091E.half
Encoding: 65576 -1 180
Width: 424
GlyphClass: 3
Flags: HW
AnchorPoint: "N" 72 -20 basechar 0
LayerCount: 2
Back
Fore
SplineSet
523 617 m 1
 -28 617 l 1
 -28 680 l 1
 523 680 l 1
 523 617 l 1
53 425 m 0
 53 492.2 102.8 509 143 509 c 2
 522 509 l 1
 522 440 l 1
 187 440 l 2
 148.542 440 120 438.779 120 379 c 0
 119.333 371.667 119 366.667 119 364 c 0
 119 334.667 130 320 152 320 c 0
 184.8 320 217.6 331 234 331 c 0
 332.921 331 402 251.967 402 166 c 0
 402 77.2 328.258 40.9977 247 18 c 1
 345 -84 l 1
 313 -110 l 1
 231 16 l 1
 229.667 13.3333 219.667 12 201 12 c 0
 101.8 12 77 53.4 77 81 c 0
 77 107.525 88.4 158 134 158 c 0
 195.619 158 202.53 123.092 207 107 c 0
 208.333 104.333 217.333 103 234 103 c 0
 302.178 103 370 125.157 370 177 c 0
 370 242.6 322.43 259 281 259 c 0
 237.4 259 191.6 241.8 172 232 c 1
 137.361 275.298 53 378.069 53 425 c 0
EndSplineSet
Ligature2: "'half' Half Forms in Devanagari lookup 3 subtable" u091C_u094D_u091E u094D
LCarets2: 1 0
EndChar

StartChar: u091D.half
Encoding: 65577 -1 182
Width: 456
GlyphClass: 3
Flags: HW
AnchorPoint: "N" 108 -100 basechar 0
LayerCount: 2
Back
Fore
SplineSet
389 304 m 0
 421.4 304 474.025 314.08 551 367 c 1
 553 264 l 1
 539.892 260.505 499.4 252 486 252 c 0
 463.2 252 409.477 259.015 372 284 c 1
 390.135 260.683 392 221.6 392 206 c 0
 392 163.333 379 126.667 353 96 c 0
 317.667 55.3333 285.667 35 257 35 c 1
 366 -74 l 1
 324 -103 l 1
 238 31 l 1
 212.8 31 200.2 30 175 30 c 0
 106.858 30 64 41.4234 64 114 c 0
 64 166 104.375 179 134 179 c 0
 183.124 179 203.367 146.337 213 126 c 1
 219 121.333 234 123 258 131 c 0
 318.667 151 349 188 349 242 c 0
 349 280.12 317.504 295 278 295 c 0
 237.068 295 196.019 282.618 168 268 c 1
 151.751 268 49 380.912 49 443 c 0
 49 488.777 82.9768 527 125 527 c 2
 288 527 l 1
 288 616 l 1
 -24 616 l 1
 -24 679 l 1
 527 679 l 1
 527 616 l 1
 354 616 l 1
 354 461 l 1
 136 461 l 2
 106.579 461 93 440.886 93 412 c 0
 93 378.916 110.818 348 141 348 c 1
 163 356 l 2
 191 365.333 214.333 370 233 370 c 0
 262.333 370 286.667 364 306 352 c 1
 354 308 l 1
 364.667 305.333 376.333 304 389 304 c 0
EndSplineSet
Ligature2: "'half' Half Forms in Devanagari lookup 3 subtable" u091D u094D
LCarets2: 1 12
EndChar

StartChar: u091D.half.vatu
Encoding: 65579 -1 184
Width: 516
GlyphClass: 3
Flags: HW
LayerCount: 2
Back
Fore
SplineSet
620 149 m 1
 471 -20 l 1
 406 40 l 1
 621 229 l 1
 620 149 l 1
51 433 m 0
 51 478.735 77.7031 527 124 527 c 2
 290 527 l 1
 290 619 l 1
 -24 619 l 1
 -24 682 l 1
 661 682 l 1
 664 616 l 1
 362 616 l 1
 362 455 l 1
 150 455 l 2
 130 455 116.5 447.333 109.5 432 c 128
 102.5 416.667 99 403.667 99 393 c 0
 99 367 108.667 349 128 339 c 1
 165.053 351.351 232 361 258 361 c 0
 324.029 361 323.783 311 397 311 c 0
 440.8 311 512.728 330.546 616 408 c 1
 616 313 l 1
 547.463 286.075 499.2 281 470 281 c 0
 444 281 419 283.667 395 289 c 1
 375 295 363.333 298.333 360 299 c 1
 387.24 266.312 405 231.993 405 194 c 0
 405 153.333 389.667 118.667 359 90 c 0
 321.667 56 285.333 39 250 39 c 1
 350 -61 l 1
 315 -87 l 1
 233 34 l 1
 122.6 34 56 50.8 56 118 c 0
 56 159.333 75 180 113 180 c 0
 172.4 180 202.907 139.341 212 127 c 1
 220 119 245.667 124.333 289 143 c 0
 339 164.333 362.333 194.333 359 233 c 1
 359 282.6 314.819 295 276 295 c 0
 229.2 295 178.527 276.333 159 264 c 1
 144.32 268.194 51 370.554 51 433 c 0
EndSplineSet
Ligature2: "'vatu' Vattu Variants in Devanagari lookup 4 subtable" u091D.half u0930.sub
EndChar

StartChar: u091E.half
Encoding: 65580 -1 186
Width: 456
GlyphClass: 3
Flags: HW
AnchorPoint: "N" 155 250 basechar 0
LayerCount: 2
Back
Fore
SplineSet
529 617 m 1
 -28 617 l 1
 -28 680 l 1
 529 680 l 1
 529 617 l 1
132 491 m 1
 158.775 504.387 211.2 517 231 517 c 0
 300.333 517 355 487.667 395 429 c 0
 407.667 409.667 421 380 435 340 c 1
 439.667 339.333 445.667 339 453 339 c 0
 463.667 339 472.5 339.667 479.5 341 c 130
 507.5 346.5 l 130
 521.054 349.211 545.012 366.586 564 391 c 1
 565 298 l 1
 551 292 536.333 289 521 289 c 0
 492.2 289 481.352 291.457 449 316 c 0
 446.333 317.333 442.333 320.667 437 326 c 1
 438.333 316 439 304.667 439 292 c 0
 439 198.95 407.4 89 281 89 c 0
 225.667 89 166 126.333 102 201 c 0
 48 263 21 302.667 21 320 c 1
 33 332 l 1
 50.9296 299.232 115.424 175 248 175 c 0
 341.169 175 385 239.897 385 305 c 0
 385 414.974 361.222 445 294 445 c 0
 247.488 445 188.569 415.139 181 400 c 1
 132 491 l 1
EndSplineSet
Ligature2: "'half' Half Forms in Devanagari lookup 3 subtable" u091E u094D
LCarets2: 1 0
EndChar

StartChar: u091F
Encoding: 2335 2335 187
Width: 568
GlyphClass: 2
Flags: HW
AnchorPoint: "N" 145 140 basechar 0
AnchorPoint: "B" 536 -48 basechar 0
LayerCount: 2
Back
Fore
SplineSet
544 82 m 1
 497.818 58.9089 434.767 28 353 28 c 0
 284.333 28 221.333 50.3333 164 95 c 0
 98 145.667 65 212 65 294 c 0
 65 339.333 116.5 379.5 219.5 414.5 c 128
 322.5 449.5 374 474.667 374 490 c 2
 374 617 l 1
 -29 617 l 1
 -29 680 l 1
 679 680 l 1
 680 617 l 1
 454 617 l 1
 454 435 l 2
 454 417.667 398 390 286 352 c 128
 174 314 118 274.667 118 234 c 0
 118 127.6 217.363 101 303 101 c 0
 394.832 101 482.195 143.179 500 171 c 1
 544 82 l 1
EndSplineSet
EndChar

StartChar: u091F_u094D_u091F
Encoding: 65581 -1 188
Width: 536
GlyphClass: 2
Flags: HW
LayerCount: 2
Back
Fore
SplineSet
51 438 m 0
 51 494.366 110.259 529 170 529 c 2
 328 529 l 1
 328 618 l 1
 -27 618 l 1
 -27 681 l 1
 621 681 l 1
 620 617 l 1
 397 617 l 1
 397 468 l 1
 199 468 l 2
 153.288 468 121 452.55 121 381 c 0
 121 341.609 137.094 309 213 309 c 0
 339.122 309 465.372 346.201 476 371 c 1
 508 297 l 1
 480.819 297 419.659 258 384 258 c 1
 384 72 l 1
 197 72 l 2
 133.8 72 118 24.175 118 -11 c 0
 118 -56.257 146.7 -103 207 -103 c 0
 353.4 -103 426.834 -47.4531 451 -30 c 1
 484 -104 l 1
 464.856 -116.991 397.6 -160 268 -160 c 0
 213.333 -160 162.5 -139.333 115.5 -98 c 128
 68.5 -56.6667 45 -13.6667 45 31 c 0
 45 99.4422 94.2937 139 156 139 c 2
 315 139 l 1
 315 251 l 1
 281.667 229 221 245.667 133 301 c 0
 78.3333 335 51 380.667 51 438 c 0
EndSplineSet
EndChar

StartChar: u091F_u094D_u0920
Encoding: 65582 -1 189
Width: 536
GlyphClass: 2
Flags: HW
LayerCount: 2
Back
Fore
SplineSet
288 228 m 0
 192.8 228 50 268.8 50 432 c 0
 50 466 61.6667 489.667 85 503 c 128
 108.333 516.333 137.667 523 173 523 c 2
 331 523 l 1
 331 618 l 1
 -24 618 l 1
 -24 681 l 1
 624 681 l 1
 620 617 l 1
 394 617 l 1
 394 456 l 1
 173 456 l 2
 118.6 456 105 415.8 105 364 c 0
 105 313.633 138.234 285 192 285 c 0
 333.65 285 414.2 333.2 448 367 c 1
 495 299 l 1
 438 266 l 1
 373 237 l 1
 373 120 l 1
 396.378 110.909 484 98.6837 484 -13 c 0
 484 -114.4 386.948 -182 279 -182 c 0
 226.333 -182 173.667 -162 121 -122 c 128
 68.3333 -82 42 -38.3333 42 9 c 0
 42 70.4805 88.543 123 151 123 c 2
 302 123 l 1
 302 229 l 1
 296 228.333 291.333 228 288 228 c 0
210 -118 m 0
 278.12 -118 466 -94.2 466 1 c 0
 466 49.558 422.126 60 390 60 c 0
 379.246 60 370.421 59.3459 361 58 c 1
 175 58 l 2
 130.036 58 105 11.3481 105 -36 c 0
 105 -101.6 173.894 -118 210 -118 c 0
EndSplineSet
EndChar

StartChar: u0920
Encoding: 2336 2336 190
Width: 602
GlyphClass: 2
Flags: HW
AnchorPoint: "N" 140 130 basechar 0
LayerCount: 2
Back
Fore
SplineSet
367 1 m 0
 202.082 1 70 102.495 70 282 c 0
 70 333.333 115 378 205 416 c 128
 295 454 340 480.333 340 495 c 2
 340 616 l 1
 -29 616 l 1
 -29 679 l 1
 708 679 l 1
 709 617 l 1
 413 617 l 1
 413 442 l 2
 413 426.667 367.5 399.5 276.5 360.5 c 128
 185.5 321.5 140 277.333 140 228 c 0
 140 130.8 187.35 66 316 66 c 0
 397.513 66 522 142.05 522 266 c 0
 522 297.333 507.667 327 479 355 c 1
 448.333 377 432.333 388.667 431 390 c 1
 446 409 l 1
 458.522 403.782 573 304.232 573 210 c 0
 573 89.5086 496.886 1 367 1 c 0
EndSplineSet
EndChar

StartChar: u0920_u094D_u0920
Encoding: 65583 -1 191
Width: 536
GlyphClass: 2
Flags: HW
LayerCount: 2
Back
Fore
SplineSet
48 425 m 0
 48 489.8 104.52 533 170 533 c 2
 321 533 l 1
 321 619 l 1
 -27 619 l 1
 -27 682 l 1
 635 682 l 1
 634 617 l 1
 383 617 l 1
 383 497 l 1
 423.981 490.309 482 474.394 482 372 c 0
 482 285 414.468 248.147 371 227 c 1
 371 89 l 1
 425 73 l 1
 457.667 55.6667 474 26.6667 474 -14 c 0
 474 -116.6 378.705 -185 272 -185 c 0
 216 -185 164.333 -165.333 117 -126 c 128
 69.6667 -86.6667 46 -41 46 11 c 0
 46 66.716 90.8581 122 151 122 c 2
 304 122 l 1
 304 220 l 1
 254.667 203.333 195.667 218.667 127 266 c 0
 74.3333 302 48 355 48 425 c 0
244 286 m 0
 373.086 286 453.33 334.523 452 401 c 1
 452 464.633 406.675 466.115 385 468 c 1
 175 468 l 2
 125.608 468 86.1507 416.534 93 359 c 1
 103.129 301.118 150.952 286 244 286 c 0
165 52 m 2
 124.102 52 92 12.5244 92 -34 c 0
 92 -77.0883 107.314 -85.5005 137 -98 c 128
 162.333 -108.667 192 -114 226 -114 c 0
 274.392 -114 358.476 -99.3018 388 -87 c 0
 425.333 -70.3333 444.333 -42.6667 445 -4 c 0
 445 46.2795 395.853 50.1718 373 52 c 1
 165 52 l 2
EndSplineSet
EndChar

StartChar: u0921
Encoding: 2337 2337 193
Width: 518
GlyphClass: 2
Flags: HW
AnchorPoint: "N" 140 130 basechar 0
LayerCount: 2
Back
Fore
SplineSet
75 446 m 0
 75 486.8 117.55 514 153 514 c 2
 404 514 l 1
 404 617 l 1
 -28 617 l 1
 -28 680 l 1
 698 680 l 1
 698 617 l 1
 476 617 l 1
 476 448 l 1
 195 448 l 2
 147 448 135 411.4 135 387 c 0
 135 348.33 160.859 316 199 316 c 1
 209.773 322.033 250.6 344 328 344 c 0
 444.333 344 532 291.127 532 190 c 0
 532 39.6 455.325 2 355 2 c 0
 300.333 2 228.667 36 140 104 c 0
 60 165.333 20 203.667 20 219 c 1
 29 230 l 1
 53.52 180.96 151.731 82 346 82 c 0
 426.324 82 506 142.2 506 199 c 0
 506 251 447.6 264 360 264 c 0
 310.774 264 263.425 256.26 227 234 c 1
 217.667 234 191.667 258.667 149 308 c 0
 99.6667 364.667 75 410.667 75 446 c 0
EndSplineSet
EndChar

StartChar: u095C
Encoding: 2396 2396 194
Width: 602
GlyphClass: 2
Flags: HW
LayerCount: 2
Back
Fore
SplineSet
75 445 m 0
 75 485.8 117.55 513 153 513 c 2
 404 513 l 1
 404 616 l 1
 -28 616 l 1
 -28 679 l 1
 698 679 l 1
 698 617 l 1
 476 617 l 1
 476 448 l 1
 195 448 l 2
 147 448 135 411.4 135 387 c 0
 135 348.33 160.859 316 199 316 c 1
 209.773 322.033 250.6 344 328 344 c 0
 444.333 344 532 291.127 532 190 c 0
 532 39.6 455.325 2 355 2 c 0
 300.333 2 228.667 36 140 104 c 0
 60 165.333 20 203.667 20 219 c 1
 29 230 l 1
 63.7578 159.243 180.754 87 346 87 c 0
 423.398 87 506 139.212 506 198 c 0
 506 250 447.6 263 360 263 c 0
 310.774 263 263.425 255.26 227 233 c 1
 217.667 233 191.667 257.667 149 307 c 0
 99.6667 363.667 75 409.667 75 445 c 0
426 -127 m 1
 359 -192 l 1
 291 -124 l 1
 359 -56 l 1
 426 -127 l 1
EndSplineSet
EndChar

StartChar: u0921_u094D_u0921
Encoding: 65584 -1 195
Width: 553
GlyphClass: 2
Flags: HW
LayerCount: 2
Back
Fore
SplineSet
101 475 m 0
 101 520.6 133.55 532 160 532 c 2
 371 532 l 1
 371 607 l 1
 -23 607 l 1
 -23 670 l 1
 660 670 l 1
 655 617 l 1
 436 617 l 1
 436 479 l 1
 201 479 l 2
 173 479 159 462.667 159 430 c 0
 159 405.014 174.269 383 198 383 c 1
 246.814 398.02 282.214 407 316 407 c 0
 420.705 407 487 339.193 487 284 c 0
 487 202.4 439.416 148 320 148 c 0
 287.954 148 239.385 166.669 204 183 c 1
 188.667 159 181 134 181 108 c 0
 181 76.6667 192.667 49.3333 216 26 c 1
 240 50 275.333 62 322 62 c 0
 395.365 62 487 21.3645 487 -59 c 0
 487 -144.992 424.644 -201 319 -201 c 0
 259.667 -201 193.667 -172.667 121 -116 c 0
 61 -68.6667 29.3333 -37.3333 26 -22 c 1
 41 -8 l 1
 84 -67 l 1
 127.333 -105.667 188.667 -125 268 -125 c 2
 296 -125 l 2
 304 -124.333 309.667 -124 313 -124 c 0
 409.39 -111.269 468 -85.6 468 -60 c 0
 468 -15.15 442.451 -9 354 -9 c 0
 315.24 -9 257.517 -37.4832 251 -44 c 1
 225.62 -34.0689 121 122.611 121 166 c 0
 121 179.961 126.27 200.473 134 214 c 1
 119.852 231.684 47.2422 274.142 27 318 c 1
 48 334 l 1
 74.6667 298 91.6667 277.333 99 272 c 0
 144.333 236 208 218 290 218 c 0
 383.225 218 469 223.906 469 288 c 0
 469 315 445.65 333 341 333 c 0
 306.579 333 242.029 317.911 228 307 c 1
 203.65 307 101 431.761 101 475 c 0
EndSplineSet
EndChar

StartChar: u0921_u094D_u0922
Encoding: 65585 -1 196
Width: 553
GlyphClass: 2
Flags: HW
LayerCount: 2
Back
Fore
SplineSet
98 479 m 0
 98 524.6 130.55 536 157 536 c 2
 368 536 l 1
 368 611 l 1
 -40 611 l 1
 -40 674 l 1
 657 674 l 1
 655 617 l 1
 440 617 l 1
 440 482 l 1
 205 482 l 2
 177.721 482 163 451.383 163 420 c 0
 163 387.333 174 371 196 371 c 1
 226.667 391 266.667 401 316 401 c 256
 416.669 401 496 356.739 496 270 c 0
 496 177.2 412.806 154 351 154 c 0
 307.451 154 258.808 162.087 237 172 c 1
 227.864 172 129 81.6031 129 3 c 0
 129 -101.8 195.625 -128 271 -128 c 0
 293.846 -128 307.354 -124.706 321 -123 c 1
 304.115 -120.588 254 -79.3673 254 -43 c 0
 254 26.6 319.025 44 366 44 c 0
 436.746 44 512 7.64844 512 -58 c 0
 512 -111.2 472.286 -191 322 -191 c 0
 263.333 -191 207.667 -169.333 155 -126 c 0
 97.6667 -78.6667 69 -22.3333 69 43 c 0
 69 105.8 133.407 174.048 157 200 c 1
 27 330 l 1
 45 346 l 1
 66.4917 303.843 139.8 221 282 221 c 0
 356 221 467 235.6 467 294 c 0
 467 317.4 450.6 333 385 333 c 2
 348 333 l 2
 309.019 333 267.999 317.666 232 299 c 1
 214.965 296.566 98 422.475 98 479 c 0
402 -1 m 0
 363.45 -1 311 -27.4594 311 -75 c 0
 311 -90.3333 318 -105.667 332 -121 c 1
 341.348 -139.696 367.382 -134.079 420 -99 c 0
 444 -82.3333 456 -65.6667 456 -49 c 256
 456 -10.6 428.4 -1 402 -1 c 0
EndSplineSet
EndChar

StartChar: u0922
Encoding: 2338 2338 197
Width: 585
GlyphClass: 2
Flags: HW
AnchorPoint: "N" 140 95 basechar 0
LayerCount: 2
Back
Fore
SplineSet
41 329 m 0
 41 423.286 88.1538 495 174 495 c 2
 368 495 l 1
 368 615 l 1
 -29 615 l 1
 -29 678 l 1
 696 678 l 1
 697 617 l 1
 454 617 l 1
 454 430 l 1
 204 430 l 2
 134.4 430 117 349.633 117 299 c 0
 117 98.6125 218.4 67 286 67 c 0
 314.4 67 321.819 70.6035 357 77 c 1
 314.849 114.288 279 159.8 279 215 c 0
 279 308.6 350.4 332 398 332 c 0
 470.792 332 551 280.274 551 195 c 0
 551 61.9895 451.653 -1 338 -1 c 0
 264.667 -1 196.833 34.6667 134.5 106 c 128
 72.1667 177.333 41 251.667 41 329 c 0
374 80 m 1
 419.701 103.889 507.32 151.748 510 204 c 1
 510 256 473.65 269 444 269 c 0
 397.604 269 337 236.371 337 179 c 0
 337 109.417 358.65 95.3501 374 80 c 1
EndSplineSet
EndChar

StartChar: u095D
Encoding: 2397 2397 198
Width: 585
GlyphClass: 2
Flags: HW
LayerCount: 2
Back
Fore
SplineSet
42 328 m 0
 42 422.286 89.1538 494 175 494 c 2
 369 494 l 1
 369 614 l 1
 -42 614 l 1
 -42 677 l 1
 697 677 l 1
 697 617 l 1
 454 617 l 1
 454 430 l 1
 204 430 l 2
 134.4 430 117 349.633 117 299 c 0
 117 101.188 217.2 70 284 70 c 0
 321.064 70 328.551 75.0919 358 80 c 1
 315.849 117.288 280 162.8 280 218 c 0
 280 311.6 351.4 335 399 335 c 0
 471.792 335 552 283.274 552 198 c 0
 552 64.9895 452.653 2 339 2 c 0
 265.667 2 197.833 37.3333 135.5 108 c 128
 73.1667 178.667 42 252 42 328 c 0
416 -143 m 1
 349 -208 l 1
 281 -140 l 1
 349 -72 l 1
 416 -143 l 1
375 81 m 1
 420.701 104.889 508.32 152.748 511 205 c 1
 511 257 474.65 270 445 270 c 0
 398.604 270 338 237.371 338 180 c 0
 338 110.417 359.65 96.3501 375 81 c 1
EndSplineSet
EndChar

StartChar: u0923.half
Encoding: 65586 -1 200
Width: 439
GlyphClass: 3
Flags: HW
AnchorPoint: "N" 90 340 basechar 0
LayerCount: 2
Back
Fore
SplineSet
387 279 m 2
 387 219.981 321.606 188 267 188 c 0
 237.667 188 196 211.333 142 258 c 0
 92 300.667 67 326 67 334 c 2
 67 618 l 1
 -26 618 l 1
 -26 681 l 1
 550 681 l 1
 548 617 l 1
 387 617 l 1
 387 279 l 2
229 241 m 0
 257.919 241 311 254.8 311 310 c 2
 311 618 l 1
 148 618 l 1
 148 302 l 2
 148 263.537 186.79 241 229 241 c 0
EndSplineSet
Ligature2: "'half' Half Forms in Devanagari lookup 3 subtable" u0923 u094D
LCarets2: 1 0
EndChar

StartChar: u0924.half
Encoding: 65587 -1 202
Width: 333
GlyphClass: 3
Flags: HW
AnchorPoint: "N" 105 100 basechar 0
LayerCount: 2
Back
Fore
SplineSet
496 617 m 1
 -29 617 l 1
 -29 680 l 1
 496 680 l 1
 496 617 l 1
45 334 m 0
 45 406.755 98.284 467 167 467 c 2
 430 467 l 1
 429 393 l 1
 194 393 l 2
 143.709 393 107 345.065 107 293 c 0
 107 229 132.333 156 183 74 c 0
 225 6 253 -29.6667 267 -33 c 1
 241 -52 l 1
 166.447 53.5207 45 233.275 45 334 c 0
EndSplineSet
Ligature2: "'half' Half Forms in Devanagari lookup 3 subtable" u0924 u094D
LCarets2: 1 0
EndChar

StartChar: u0924.half.vatu
Encoding: 65589 -1 204
Width: 358
GlyphClass: 3
Flags: HW
LayerCount: 2
Back
Fore
SplineSet
459 617 m 1
 -28 617 l 1
 -28 680 l 1
 459 680 l 1
 459 617 l 1
271 410 m 0
 238.964 410 127.333 384.078 70 367 c 1
 34 459 l 1
 245 481 l 1
 288.626 483.908 318.028 423.623 412 332 c 1
 460 288 l 1
 459 218 l 1
 156 49 l 1
 113 134 l 1
 440 278 l 1
 319 392 l 2
 306.333 404 290.333 410 271 410 c 0
EndSplineSet
Ligature2: "'vatu' Vattu Variants in Devanagari lookup 4 subtable" u0924.half u0930.sub
EndChar

StartChar: u0924_u094D_u0924.half
Encoding: 65591 -1 206
Width: 439
GlyphClass: 3
Flags: HW
LayerCount: 2
Back
Fore
SplineSet
551 617 m 1
 -28 617 l 1
 -28 680 l 1
 551 680 l 1
 551 617 l 1
183 220 m 1
 193.432 93.3253 330.704 -13.7281 354 -20 c 1
 338 -27 l 1
 319.333 -27 279 0.333333 217 55 c 0
 137.667 125 98 198 98 274 c 0
 98 311.333 114.333 344 147 372 c 1
 199 404 l 1
 22 396 l 1
 6 473 l 1
 539 473 l 1
 536 402 l 1
 313 402 l 2
 256.785 402 183 330.713 183 220 c 1
EndSplineSet
Ligature2: "'half' Half Forms in Devanagari lookup 3 subtable" u0924_u094D_u0924 u094D
EndChar

StartChar: u0925.half
Encoding: 65592 -1 208
Width: 390
GlyphClass: 3
Flags: HW
AnchorPoint: "N" 65 245 basechar 0
LayerCount: 2
Back
Fore
SplineSet
478 617 m 1
 375 617 l 1
 350 680 l 1
 478 680 l 1
 478 617 l 1
280 177 m 0
 384.781 177 467.037 253.951 490 288 c 1
 492 189 l 1
 438.318 135.318 372.6 102 293 102 c 0
 210.333 102 144.333 148.667 95 242 c 0
 79.6667 272.667 63.3333 319.667 46 383 c 1
 115.79 383 157.889 406.32 236 442 c 1
 219.333 438.667 189.667 449.333 147 474 c 0
 92.3333 506.667 65 548 65 598 c 0
 65 670.1 115.939 700 193 700 c 0
 263.225 700 336 631.546 336 520 c 0
 336 435.333 297.333 373 220 333 c 0
 161.333 302.333 120 291 96 299 c 1
 111.333 260.333 120.667 238.667 124 234 c 0
 155.333 196 207.333 177 280 177 c 0
246 457 m 1
 258.441 464.465 277.589 481.252 276 548 c 1
 276 605.5 265 653 221 653 c 0
 159.4 653 144 611.975 144 575 c 0
 144 519.632 183.509 457 246 457 c 1
EndSplineSet
Ligature2: "'half' Half Forms in Devanagari lookup 3 subtable" u0925 u094D
LCarets2: 1 0
EndChar

StartChar: u0925.half.vatu
Encoding: 65594 -1 210
Width: 390
GlyphClass: 3
Flags: HW
LayerCount: 2
Back
Fore
SplineSet
491 617 m 1
 375 617 l 1
 350 680 l 1
 491 680 l 1
 491 617 l 1
279 173 m 0
 383.781 173 466.037 249.951 489 284 c 1
 492 189 l 1
 179 -53 l 1
 122 9 l 1
 267 101 l 1
 193.667 109 134.667 157.667 90 247 c 0
 75.3333 276.333 60.3333 320.333 45 379 c 1
 114.79 379 156.889 402.32 235 438 c 1
 218.333 434.667 188.667 445.333 146 470 c 0
 91.3333 502.667 64 544 64 594 c 0
 64 666.1 114.939 696 192 696 c 0
 262.225 696 335 627.546 335 516 c 0
 335 431.333 296.333 369 219 329 c 0
 160.333 298.333 119 287 95 295 c 1
 110.333 256.333 119.667 234.667 123 230 c 0
 154.333 192 206.333 173 279 173 c 0
245 453 m 1
 257.441 460.465 276.589 477.252 275 544 c 1
 275 601.5 264 649 220 649 c 0
 158.4 649 143 607.975 143 571 c 0
 143 515.632 182.509 453 245 453 c 1
EndSplineSet
Ligature2: "'vatu' Vattu Variants in Devanagari lookup 4 subtable" u0925.half u0930.sub
EndChar

StartChar: u0926
Encoding: 2342 2342 211
Width: 536
GlyphClass: 2
Flags: HW
AnchorPoint: "N" 180 80 basechar 0
LayerCount: 2
Back
Fore
SplineSet
48 324 m 0
 48 409.842 81.4101 501 151 501 c 2
 323 501 l 1
 323 615 l 1
 -41 615 l 1
 -41 678 l 1
 639 678 l 1
 638 617 l 1
 396 617 l 1
 396 430 l 1
 181 430 l 2
 130.125 430 89 364.324 89 300 c 0
 89 193.6 155.675 167 264 167 c 0
 281.333 167 298.333 170.667 315 178 c 0
 320.333 179.333 326.667 182.667 334 188 c 1
 321.333 200.667 315 216.667 315 236 c 0
 315 273.708 339.82 302.505 376 305 c 1
 415.572 305 442 266.931 442 223 c 0
 442 156.4 399.463 125.997 378 112 c 1
 495 -35 l 1
 458 -60 l 1
 369 106 l 1
 343 93.3333 314.333 87 283 87 c 0
 223 87 168.833 110.667 120.5 158 c 128
 72.1667 205.333 48 260.667 48 324 c 0
EndSplineSet
EndChar

StartChar: u0926_u0943
Encoding: 65595 -1 212
Width: 536
GlyphClass: 2
Flags: HW
LayerCount: 2
Back
Fore
SplineSet
357 -136 m 0
 357 -156.122 384.95 -176 430 -176 c 0
 458 -176 489 -169 523 -155 c 1
 565 -219 l 1
 545 -229.667 517 -235 481 -235 c 0
 383.465 -235 318.808 -189.458 308 -109 c 0
 299.918 -49.1963 380.229 -21.4901 434 -13 c 1
 369 106 l 1
 343 93.3333 314.333 87 283 87 c 0
 223 87 168.833 110.667 120.5 158 c 128
 72.1667 205.333 48 260.667 48 324 c 0
 48 409.842 81.4101 501 151 501 c 2
 323 501 l 1
 323 615 l 1
 -27 615 l 1
 -27 678 l 1
 639 678 l 1
 639 615 l 1
 397 615 l 1
 397 428 l 1
 182 428 l 2
 131.125 428 90 362.324 90 298 c 0
 90 191.6 156.675 165 265 165 c 0
 282.333 165 299.333 168.667 316 176 c 0
 321.333 177.333 327.667 180.667 335 186 c 1
 322.333 198.667 316 214.667 316 234 c 0
 316 271.708 340.82 300.505 377 303 c 1
 416.572 303 443 264.931 443 221 c 0
 443 155 402.84 125.209 382 111 c 1
 516 -61 l 1
 427.221 -61 357 -102.77 357 -136 c 0
EndSplineSet
EndChar

StartChar: u0926.vatu
Encoding: 65596 -1 213
Width: 536
GlyphClass: 3
Flags: HW
LayerCount: 2
Back
Fore
SplineSet
53 396 m 0
 53 489.6 111.613 513 158 513 c 2
 330 513 l 1
 330 619 l 1
 -34 619 l 1
 -34 682 l 1
 625 682 l 1
 631 617 l 1
 407 617 l 1
 407 445 l 1
 204 445 l 2
 160.8 445 132 421.853 132 337 c 0
 132 251.111 165.101 198 248 198 c 0
 295.485 198 329.773 214.046 340 222 c 1
 332 236 328 254.667 328 278 c 0
 328 304.4 335.351 342.414 375 344 c 1
 429.605 349.903 454 301.193 454 252 c 0
 454 226.081 445.128 169.47 397 154 c 1
 497 -30 l 1
 462 -46 l 1
 385 150 l 1
 101 -48 l 1
 53 12 l 1
 304 140 l 1
 258.667 125.333 201 148.667 131 210 c 0
 79 256.667 53 318.667 53 396 c 0
EndSplineSet
Ligature2: "'vatu' Vattu Variants in Devanagari lookup 4 subtable" u0926 u0930.sub
EndChar

StartChar: u0926_u094D_u0926
Encoding: 65597 -1 214
Width: 536
GlyphClass: 2
Flags: HW
LayerCount: 2
Back
Fore
SplineSet
61 432 m 0
 61 475.753 102.929 515 152 515 c 2
 338 515 l 1
 338 618 l 1
 -28 618 l 1
 -28 681 l 1
 638 681 l 1
 638 617 l 1
 405 617 l 1
 405 448 l 1
 190 448 l 2
 157.075 448 128 425.2 128 391 c 0
 128 349.028 147.136 297.432 170 286 c 1
 228.372 306.303 288.532 316 364 316 c 1
 401 228 l 1
 398.496 230.504 354.02 234 336 234 c 0
 175.017 234 144 158.4 144 108 c 0
 144 13.5031 185.339 -8 268 -8 c 0
 282 -8 300 -4.33333 322 3 c 1
 329.333 4.33333 339.333 7.66667 352 13 c 1
 339.333 25.6667 333 40.6667 333 58 c 0
 333 97.8753 366.719 134 412 134 c 0
 447.849 134 468 95.1775 468 56 c 0
 468 -2.68383 421.715 -46.7782 392 -56 c 1
 495 -205 l 1
 463 -227 l 1
 378 -58 l 1
 358.667 -63.3333 338 -66 316 -66 c 0
 190.876 -66 75 15.9555 75 144 c 0
 75 226.2 129.56 269.28 153 281 c 1
 144.426 281 61 389.608 61 432 c 0
EndSplineSet
EndChar

StartChar: u0926_u094D_u0927
Encoding: 65598 -1 215
Width: 812
GlyphClass: 2
Flags: HW
LayerCount: 2
Back
Fore
SplineSet
325 389 m 0
 325 471.985 384.37 511 451 511 c 2
 602 511 l 1
 602 614 l 1
 -25 614 l 1
 -25 677 l 1
 915 677 l 1
 912 617 l 1
 672 617 l 1
 672 451 l 1
 468 451 l 2
 425.21 451 401 399.917 401 351 c 0
 401 292.333 411 253 431 233 c 0
 448.333 215.667 481.667 207 531 207 c 0
 543.667 207 560 211.833 580 221.5 c 130
 612 237 l 1
 604.682 242.855 597 249.788 597 275 c 0
 597 323.8 631.525 336 652 336 c 0
 674.8 336 718 321.6 718 264 c 0
 718 191.998 673.019 165 658 165 c 1
 805 -39 l 1
 765 -61 l 1
 716 27 l 1
 682.163 -6.83685 504.451 -87 379 -87 c 0
 292.534 -87 187 -34.035 187 33 c 0
 187 57.8 202.984 80.9841 217 95 c 1
 203 95 171 113.667 121 151 c 0
 61 195.667 31 238 31 278 c 0
 31 346.667 67.3333 381 140 381 c 0
 195.422 381 242 345.348 242 297 c 0
 242 282.333 237 267.333 227 252 c 1
 201 257 l 1
 218.333 264.333 227 275 227 289 c 0
 227 313.865 195.45 337 165 337 c 0
 144.682 337 98 338.664 98 260 c 256
 98 218 119.333 180.333 162 147 c 0
 194.667 122.333 218 110 232 110 c 1
 251 124 l 1
 261 129.333 277.333 135.667 300 143 c 0
 307.333 144.333 317.333 147.333 330 152 c 1
 395 95 l 1
 375.667 105.667 344.333 98 301 72 c 0
 274.333 56.6667 261 37.3333 261 14 c 0
 261 -36.6316 320.005 -62 375 -62 c 0
 441 -62 510.667 -38 584 10 c 0
 645.333 50.6667 676 76.3333 676 87 c 1
 639 154 l 1
 614.333 146.667 591.333 143 570 143 c 0
 506 143 449.167 167 399.5 215 c 128
 349.833 263 325 321 325 389 c 0
EndSplineSet
EndChar

